M48
; DRILL file {KiCad (5.1.10-1-10_14)} date Tuesday, September 07, 2021 at 09:55:34 PM
; FORMAT={-:-/ absolute / inch / decimal}
; #@! TF.CreationDate,2021-09-07T21:55:34-06:00
; #@! TF.GenerationSoftware,Kicad,Pcbnew,(5.1.10-1-10_14)
FMAT,2
INCH
T1C0.0150
T2C0.0300
T3C0.0315
T4C0.0400
T5C0.0420
T6C0.0430
T7C0.0440
T8C0.0730
T9C0.0138
T10C0.1300
T11C0.1693
%
G90
G05
T1
X5.8Y-4.2
X5.89Y-4.1
X5.9Y-4.2
T2
X5.73Y-3.66
X5.93Y-3.66
T3
X5.63Y-3.3
X5.63Y-3.48
X5.93Y-3.3
X5.93Y-3.48
X6.17Y-3.3
X6.17Y-3.45
X6.17Y-3.6
X6.47Y-3.3
X6.47Y-3.45
X6.47Y-3.6
T4
X5.08Y-2.61
X5.15Y-2.9
X5.15Y-3.0
X5.15Y-3.1
X5.15Y-3.2
X5.15Y-3.3
X5.15Y-3.4
X5.15Y-3.5
X5.15Y-3.6
X5.15Y-3.7
X5.15Y-3.8
X5.15Y-3.9
X5.15Y-4.0
X5.15Y-4.1
X5.15Y-4.2
X5.15Y-4.3
X5.15Y-4.4
X5.15Y-4.5
X5.15Y-4.6
X5.15Y-4.7
X5.18Y-2.61
X5.28Y-2.61
X5.38Y-2.61
X5.48Y-2.61
X5.58Y-2.61
X6.05Y-2.9
X6.05Y-3.0
X6.05Y-3.1
X6.05Y-3.2
X6.05Y-3.3
X6.05Y-3.4
X6.05Y-3.5
X6.05Y-3.6
X6.05Y-3.7
X6.05Y-3.8
X6.05Y-3.9
X6.05Y-4.0
X6.05Y-4.1
X6.05Y-4.2
X6.05Y-4.3
X6.05Y-4.4
X6.05Y-4.5
X6.05Y-4.6
X6.05Y-4.7
T5
X5.85Y-2.13
X5.95Y-2.13
T6
X6.4Y-3.8
X6.4Y-3.9
X6.4Y-4.0
X6.4Y-4.1
X6.4Y-4.2
X6.4Y-4.3
T7
X6.2Y-2.65
X6.3Y-2.65
X6.4Y-2.65
T8
X5.4Y-2.86
X5.4Y-3.14
X5.4Y-4.56
X5.4Y-4.84
X6.35Y-2.86
X6.35Y-3.14
X6.35Y-4.56
X6.35Y-4.84
T9
X5.03Y-2.51
X5.63Y-2.51
T10
X6.3Y-1.96
T11
X5.8Y-1.75
X5.8Y-4.9
T0
M30
