G04 #@! TF.GenerationSoftware,KiCad,Pcbnew,(5.1.10-1-10_14)*
G04 #@! TF.CreationDate,2021-09-07T21:53:28-06:00*
G04 #@! TF.ProjectId,soil_moisture_0.5,736f696c-5f6d-46f6-9973-747572655f30,0.5*
G04 #@! TF.SameCoordinates,Original*
G04 #@! TF.FileFunction,Legend,Bot*
G04 #@! TF.FilePolarity,Positive*
%FSLAX46Y46*%
G04 Gerber Fmt 4.6, Leading zero omitted, Abs format (unit mm)*
G04 Created by KiCad (PCBNEW (5.1.10-1-10_14)) date 2021-09-07 21:53:28*
%MOMM*%
%LPD*%
G01*
G04 APERTURE LIST*
%ADD10C,0.508000*%
%ADD11C,0.203200*%
%ADD12C,0.406400*%
%ADD13C,0.120000*%
%ADD14C,0.115824*%
%ADD15C,0.150000*%
G04 APERTURE END LIST*
D10*
X154940000Y-54102000D02*
G75*
G03*
X154178000Y-54102000I-381000J0D01*
G01*
X154178000Y-54102000D02*
G75*
G03*
X154940000Y-54102000I381000J0D01*
G01*
D11*
X156464000Y-124841000D02*
X156464000Y-115316000D01*
X166116000Y-115316000D02*
X166116000Y-124841000D01*
X166116000Y-124841000D02*
X156464000Y-124841000D01*
X166116000Y-80264000D02*
X166116000Y-70739000D01*
X166116000Y-70739000D02*
X156464000Y-70739000D01*
X156464000Y-70739000D02*
X156464000Y-80264000D01*
D12*
X158750000Y-111760000D02*
X158750000Y-85090000D01*
X158750000Y-85090000D02*
X160705800Y-85090000D01*
X160705800Y-85090000D02*
X161975800Y-85090000D01*
X161975800Y-85090000D02*
X163830000Y-85090000D01*
X163830000Y-85090000D02*
X163830000Y-111760000D01*
X163830000Y-111760000D02*
X158750000Y-111760000D01*
X160705800Y-85090000D02*
X160705800Y-83820000D01*
X160705800Y-83820000D02*
X161975800Y-83820000D01*
X161975800Y-83820000D02*
X161975800Y-85090000D01*
X161290000Y-109855000D02*
X161290000Y-108585000D01*
X161290000Y-88265000D02*
X161290000Y-86995000D01*
X160655000Y-87630000D02*
X161925000Y-87630000D01*
X136525000Y-87630000D02*
X137795000Y-87630000D01*
X137160000Y-88265000D02*
X137160000Y-86995000D01*
X137160000Y-109855000D02*
X137160000Y-108585000D01*
X137845800Y-83820000D02*
X137845800Y-85090000D01*
X136575800Y-83820000D02*
X137845800Y-83820000D01*
X136575800Y-85090000D02*
X136575800Y-83820000D01*
X139700000Y-111760000D02*
X134620000Y-111760000D01*
X139700000Y-85090000D02*
X139700000Y-111760000D01*
X137845800Y-85090000D02*
X139700000Y-85090000D01*
X136575800Y-85090000D02*
X137845800Y-85090000D01*
X134620000Y-85090000D02*
X136575800Y-85090000D01*
X134620000Y-111760000D02*
X134620000Y-85090000D01*
D11*
X132334000Y-70739000D02*
X132334000Y-80264000D01*
X141986000Y-70739000D02*
X132334000Y-70739000D01*
X141986000Y-80264000D02*
X141986000Y-70739000D01*
X141986000Y-124841000D02*
X132334000Y-124841000D01*
X141986000Y-115316000D02*
X141986000Y-124841000D01*
X132334000Y-124841000D02*
X132334000Y-115316000D01*
D10*
X162560000Y-92735400D02*
G75*
G03*
X162560000Y-93497400I0J-381000D01*
G01*
X162560000Y-93497400D02*
G75*
G03*
X162560000Y-92735400I0J381000D01*
G01*
D13*
X156668000Y-110982000D02*
X158068000Y-110982000D01*
X158768000Y-110282000D02*
X158768000Y-109682000D01*
X158068000Y-108982000D02*
X156668000Y-108982000D01*
X155968000Y-109682000D02*
X155968000Y-110282000D01*
X158068000Y-110982000D02*
G75*
G03*
X158768000Y-110282000I0J700000D01*
G01*
X158768000Y-109682000D02*
G75*
G03*
X158068000Y-108982000I-700000J0D01*
G01*
X156668000Y-108982000D02*
G75*
G03*
X155968000Y-109682000I0J-700000D01*
G01*
X155968000Y-110282000D02*
G75*
G03*
X156668000Y-110982000I700000J0D01*
G01*
X156638000Y-114030000D02*
X158038000Y-114030000D01*
X158738000Y-113330000D02*
X158738000Y-112730000D01*
X158038000Y-112030000D02*
X156638000Y-112030000D01*
X155938000Y-112730000D02*
X155938000Y-113330000D01*
X158038000Y-114030000D02*
G75*
G03*
X158738000Y-113330000I0J700000D01*
G01*
X158738000Y-112730000D02*
G75*
G03*
X158038000Y-112030000I-700000J0D01*
G01*
X156638000Y-112030000D02*
G75*
G03*
X155938000Y-112730000I0J-700000D01*
G01*
X155938000Y-113330000D02*
G75*
G03*
X156638000Y-114030000I700000J0D01*
G01*
D14*
X161745022Y-70154074D02*
X161662291Y-70181651D01*
X161634714Y-70209228D01*
X161607137Y-70264382D01*
X161607137Y-70347114D01*
X161634714Y-70402268D01*
X161662291Y-70429845D01*
X161717445Y-70457422D01*
X161938062Y-70457422D01*
X161938062Y-69878302D01*
X161745022Y-69878302D01*
X161689868Y-69905880D01*
X161662291Y-69933457D01*
X161634714Y-69988611D01*
X161634714Y-70043765D01*
X161662291Y-70098920D01*
X161689868Y-70126497D01*
X161745022Y-70154074D01*
X161938062Y-70154074D01*
X161441674Y-69878302D02*
X161110748Y-69878302D01*
X161276211Y-70457422D02*
X161276211Y-69878302D01*
X160945285Y-69933457D02*
X160917708Y-69905880D01*
X160862554Y-69878302D01*
X160724668Y-69878302D01*
X160669514Y-69905880D01*
X160641937Y-69933457D01*
X160614360Y-69988611D01*
X160614360Y-70043765D01*
X160641937Y-70126497D01*
X160972862Y-70457422D01*
X160614360Y-70457422D01*
D15*
X158201333Y-111234380D02*
X158201333Y-111948666D01*
X158248952Y-112091523D01*
X158344190Y-112186761D01*
X158487047Y-112234380D01*
X158582285Y-112234380D01*
X157725142Y-112234380D02*
X157725142Y-111234380D01*
X157344190Y-111234380D01*
X157248952Y-111282000D01*
X157201333Y-111329619D01*
X157153714Y-111424857D01*
X157153714Y-111567714D01*
X157201333Y-111662952D01*
X157248952Y-111710571D01*
X157344190Y-111758190D01*
X157725142Y-111758190D01*
X156201333Y-112234380D02*
X156772761Y-112234380D01*
X156487047Y-112234380D02*
X156487047Y-111234380D01*
X156582285Y-111377238D01*
X156677523Y-111472476D01*
X156772761Y-111520095D01*
X158171333Y-114282380D02*
X158171333Y-114996666D01*
X158218952Y-115139523D01*
X158314190Y-115234761D01*
X158457047Y-115282380D01*
X158552285Y-115282380D01*
X157695142Y-115282380D02*
X157695142Y-114282380D01*
X157314190Y-114282380D01*
X157218952Y-114330000D01*
X157171333Y-114377619D01*
X157123714Y-114472857D01*
X157123714Y-114615714D01*
X157171333Y-114710952D01*
X157218952Y-114758571D01*
X157314190Y-114806190D01*
X157695142Y-114806190D01*
X156742761Y-114377619D02*
X156695142Y-114330000D01*
X156599904Y-114282380D01*
X156361809Y-114282380D01*
X156266571Y-114330000D01*
X156218952Y-114377619D01*
X156171333Y-114472857D01*
X156171333Y-114568095D01*
X156218952Y-114710952D01*
X156790380Y-115282380D01*
X156171333Y-115282380D01*
M02*
