G04 #@! TF.GenerationSoftware,KiCad,Pcbnew,(5.1.10-1-10_14)*
G04 #@! TF.CreationDate,2021-09-07T21:53:28-06:00*
G04 #@! TF.ProjectId,soil_moisture_0.5,736f696c-5f6d-46f6-9973-747572655f30,0.5*
G04 #@! TF.SameCoordinates,Original*
G04 #@! TF.FileFunction,Copper,L2,Bot*
G04 #@! TF.FilePolarity,Positive*
%FSLAX46Y46*%
G04 Gerber Fmt 4.6, Leading zero omitted, Abs format (unit mm)*
G04 Created by KiCad (PCBNEW (5.1.10-1-10_14)) date 2021-09-07 21:53:28*
%MOMM*%
%LPD*%
G01*
G04 APERTURE LIST*
G04 #@! TA.AperFunction,EtchedComponent*
%ADD10C,0.100000*%
G04 #@! TD*
G04 #@! TA.AperFunction,ComponentPad*
%ADD11C,1.574800*%
G04 #@! TD*
G04 #@! TA.AperFunction,ComponentPad*
%ADD12C,1.524000*%
G04 #@! TD*
G04 #@! TA.AperFunction,ComponentPad*
%ADD13C,2.781300*%
G04 #@! TD*
G04 #@! TA.AperFunction,ComponentPad*
%ADD14O,1.676400X3.352800*%
G04 #@! TD*
G04 #@! TA.AperFunction,ComponentPad*
%ADD15C,1.600200*%
G04 #@! TD*
G04 #@! TA.AperFunction,ComponentPad*
%ADD16O,1.600000X1.600000*%
G04 #@! TD*
G04 #@! TA.AperFunction,ComponentPad*
%ADD17C,1.600000*%
G04 #@! TD*
G04 #@! TA.AperFunction,SMDPad,CuDef*
%ADD18C,0.100000*%
G04 #@! TD*
G04 #@! TA.AperFunction,ComponentPad*
%ADD19R,1.270000X1.270000*%
G04 #@! TD*
G04 #@! TA.AperFunction,ComponentPad*
%ADD20C,1.270000*%
G04 #@! TD*
G04 #@! TA.AperFunction,ViaPad*
%ADD21C,0.762000*%
G04 #@! TD*
G04 #@! TA.AperFunction,Conductor*
%ADD22C,0.152400*%
G04 #@! TD*
G04 #@! TA.AperFunction,Conductor*
%ADD23C,0.508000*%
G04 #@! TD*
G04 #@! TA.AperFunction,Conductor*
%ADD24C,0.254000*%
G04 #@! TD*
G04 #@! TA.AperFunction,Conductor*
%ADD25C,0.100000*%
G04 #@! TD*
G04 APERTURE END LIST*
D10*
G36*
X157618000Y-110282000D02*
G01*
X157118000Y-110282000D01*
X157118000Y-109682000D01*
X157618000Y-109682000D01*
X157618000Y-110282000D01*
G37*
D11*
X151130000Y-54102000D03*
X148590000Y-54102000D03*
D12*
X153670000Y-73660000D03*
X153670000Y-76200000D03*
X153670000Y-78740000D03*
X153670000Y-81280000D03*
X153670000Y-83820000D03*
X153670000Y-86360000D03*
X153670000Y-88900000D03*
X153670000Y-91440000D03*
X153670000Y-93980000D03*
X153670000Y-96520000D03*
X153670000Y-99060000D03*
X153670000Y-101600000D03*
X153670000Y-104140000D03*
X153670000Y-106680000D03*
X153670000Y-109220000D03*
X153670000Y-111760000D03*
X153670000Y-114300000D03*
X153670000Y-116840000D03*
X153670000Y-119380000D03*
X130810000Y-73660000D03*
X130810000Y-76200000D03*
X130810000Y-78740000D03*
X130810000Y-81280000D03*
X130810000Y-83820000D03*
X130810000Y-86360000D03*
X130810000Y-88900000D03*
X130810000Y-91440000D03*
X130810000Y-93980000D03*
X130810000Y-96520000D03*
X130810000Y-99060000D03*
X130810000Y-101600000D03*
X130810000Y-104140000D03*
X130810000Y-106680000D03*
X130810000Y-109220000D03*
X130810000Y-111760000D03*
X130810000Y-114300000D03*
X130810000Y-116840000D03*
X130810000Y-119380000D03*
X129032000Y-66294000D03*
X131572000Y-66294000D03*
X134112000Y-66294000D03*
X136652000Y-66294000D03*
X139192000Y-66294000D03*
X141732000Y-66294000D03*
D13*
X161290000Y-79756000D03*
X161290000Y-72644000D03*
X161290000Y-115824000D03*
X161290000Y-122936000D03*
X137160000Y-122936000D03*
X137160000Y-115824000D03*
X137160000Y-72644000D03*
X137160000Y-79756000D03*
D14*
X162560000Y-67310000D03*
X160020000Y-67310000D03*
X157480000Y-67310000D03*
D15*
X162560000Y-96520000D03*
X162560000Y-99060000D03*
X162560000Y-101600000D03*
X162560000Y-104140000D03*
X162560000Y-106680000D03*
X162560000Y-109220000D03*
D16*
X164338000Y-91440000D03*
D17*
X156718000Y-91440000D03*
X156718000Y-87630000D03*
D16*
X164338000Y-87630000D03*
D17*
X156718000Y-83820000D03*
D16*
X164338000Y-83820000D03*
G04 #@! TA.AperFunction,SMDPad,CuDef*
D18*
G36*
X158018000Y-109232602D02*
G01*
X158042534Y-109232602D01*
X158091365Y-109237412D01*
X158139490Y-109246984D01*
X158186445Y-109261228D01*
X158231778Y-109280005D01*
X158275051Y-109303136D01*
X158315850Y-109330396D01*
X158353779Y-109361524D01*
X158388476Y-109396221D01*
X158419604Y-109434150D01*
X158446864Y-109474949D01*
X158469995Y-109518222D01*
X158488772Y-109563555D01*
X158503016Y-109610510D01*
X158512588Y-109658635D01*
X158517398Y-109707466D01*
X158517398Y-109732000D01*
X158518000Y-109732000D01*
X158518000Y-110232000D01*
X158517398Y-110232000D01*
X158517398Y-110256534D01*
X158512588Y-110305365D01*
X158503016Y-110353490D01*
X158488772Y-110400445D01*
X158469995Y-110445778D01*
X158446864Y-110489051D01*
X158419604Y-110529850D01*
X158388476Y-110567779D01*
X158353779Y-110602476D01*
X158315850Y-110633604D01*
X158275051Y-110660864D01*
X158231778Y-110683995D01*
X158186445Y-110702772D01*
X158139490Y-110717016D01*
X158091365Y-110726588D01*
X158042534Y-110731398D01*
X158018000Y-110731398D01*
X158018000Y-110732000D01*
X157518000Y-110732000D01*
X157518000Y-109232000D01*
X158018000Y-109232000D01*
X158018000Y-109232602D01*
G37*
G04 #@! TD.AperFunction*
G04 #@! TA.AperFunction,SMDPad,CuDef*
G36*
X157218000Y-110732000D02*
G01*
X156718000Y-110732000D01*
X156718000Y-110731398D01*
X156693466Y-110731398D01*
X156644635Y-110726588D01*
X156596510Y-110717016D01*
X156549555Y-110702772D01*
X156504222Y-110683995D01*
X156460949Y-110660864D01*
X156420150Y-110633604D01*
X156382221Y-110602476D01*
X156347524Y-110567779D01*
X156316396Y-110529850D01*
X156289136Y-110489051D01*
X156266005Y-110445778D01*
X156247228Y-110400445D01*
X156232984Y-110353490D01*
X156223412Y-110305365D01*
X156218602Y-110256534D01*
X156218602Y-110232000D01*
X156218000Y-110232000D01*
X156218000Y-109732000D01*
X156218602Y-109732000D01*
X156218602Y-109707466D01*
X156223412Y-109658635D01*
X156232984Y-109610510D01*
X156247228Y-109563555D01*
X156266005Y-109518222D01*
X156289136Y-109474949D01*
X156316396Y-109434150D01*
X156347524Y-109396221D01*
X156382221Y-109361524D01*
X156420150Y-109330396D01*
X156460949Y-109303136D01*
X156504222Y-109280005D01*
X156549555Y-109261228D01*
X156596510Y-109246984D01*
X156644635Y-109237412D01*
X156693466Y-109232602D01*
X156718000Y-109232602D01*
X156718000Y-109232000D01*
X157218000Y-109232000D01*
X157218000Y-110732000D01*
G37*
G04 #@! TD.AperFunction*
G04 #@! TA.AperFunction,SMDPad,CuDef*
G36*
X157188000Y-113780000D02*
G01*
X156688000Y-113780000D01*
X156688000Y-113779398D01*
X156663466Y-113779398D01*
X156614635Y-113774588D01*
X156566510Y-113765016D01*
X156519555Y-113750772D01*
X156474222Y-113731995D01*
X156430949Y-113708864D01*
X156390150Y-113681604D01*
X156352221Y-113650476D01*
X156317524Y-113615779D01*
X156286396Y-113577850D01*
X156259136Y-113537051D01*
X156236005Y-113493778D01*
X156217228Y-113448445D01*
X156202984Y-113401490D01*
X156193412Y-113353365D01*
X156188602Y-113304534D01*
X156188602Y-113280000D01*
X156188000Y-113280000D01*
X156188000Y-112780000D01*
X156188602Y-112780000D01*
X156188602Y-112755466D01*
X156193412Y-112706635D01*
X156202984Y-112658510D01*
X156217228Y-112611555D01*
X156236005Y-112566222D01*
X156259136Y-112522949D01*
X156286396Y-112482150D01*
X156317524Y-112444221D01*
X156352221Y-112409524D01*
X156390150Y-112378396D01*
X156430949Y-112351136D01*
X156474222Y-112328005D01*
X156519555Y-112309228D01*
X156566510Y-112294984D01*
X156614635Y-112285412D01*
X156663466Y-112280602D01*
X156688000Y-112280602D01*
X156688000Y-112280000D01*
X157188000Y-112280000D01*
X157188000Y-113780000D01*
G37*
G04 #@! TD.AperFunction*
G04 #@! TA.AperFunction,SMDPad,CuDef*
G36*
X157988000Y-112280602D02*
G01*
X158012534Y-112280602D01*
X158061365Y-112285412D01*
X158109490Y-112294984D01*
X158156445Y-112309228D01*
X158201778Y-112328005D01*
X158245051Y-112351136D01*
X158285850Y-112378396D01*
X158323779Y-112409524D01*
X158358476Y-112444221D01*
X158389604Y-112482150D01*
X158416864Y-112522949D01*
X158439995Y-112566222D01*
X158458772Y-112611555D01*
X158473016Y-112658510D01*
X158482588Y-112706635D01*
X158487398Y-112755466D01*
X158487398Y-112780000D01*
X158488000Y-112780000D01*
X158488000Y-113280000D01*
X158487398Y-113280000D01*
X158487398Y-113304534D01*
X158482588Y-113353365D01*
X158473016Y-113401490D01*
X158458772Y-113448445D01*
X158439995Y-113493778D01*
X158416864Y-113537051D01*
X158389604Y-113577850D01*
X158358476Y-113615779D01*
X158323779Y-113650476D01*
X158285850Y-113681604D01*
X158245051Y-113708864D01*
X158201778Y-113731995D01*
X158156445Y-113750772D01*
X158109490Y-113765016D01*
X158061365Y-113774588D01*
X158012534Y-113779398D01*
X157988000Y-113779398D01*
X157988000Y-113780000D01*
X157488000Y-113780000D01*
X157488000Y-112280000D01*
X157988000Y-112280000D01*
X157988000Y-112280602D01*
G37*
G04 #@! TD.AperFunction*
D19*
X145542000Y-92964000D03*
D20*
X150622000Y-92964000D03*
D17*
X143002000Y-83820000D03*
D16*
X150622000Y-83820000D03*
X150622000Y-88392000D03*
D17*
X143002000Y-88392000D03*
D21*
X149606000Y-104140000D03*
X147320000Y-106680000D03*
X149860000Y-106680000D03*
D22*
X161290000Y-71374000D02*
X160020000Y-72644000D01*
D23*
X161035999Y-72389999D02*
X161290000Y-72644000D01*
X137160000Y-72644000D02*
X137414001Y-72389999D01*
X151129999Y-72389999D02*
X161035999Y-72389999D01*
X137414001Y-72389999D02*
X151129999Y-72389999D01*
X151130000Y-54102000D02*
X151130000Y-72136000D01*
X162560000Y-96520000D02*
X162560000Y-92710000D01*
X163068000Y-92710000D02*
X164338000Y-91440000D01*
X162560000Y-92710000D02*
X163068000Y-92710000D01*
X164338000Y-87630000D02*
X164338000Y-91440000D01*
X130810000Y-104140000D02*
X149606000Y-104140000D01*
X149606000Y-104140000D02*
X149606000Y-104140000D01*
X165862000Y-87630000D02*
X164338000Y-87630000D01*
X165862000Y-52430678D02*
X165862000Y-87630000D01*
X165501322Y-52070000D02*
X165862000Y-52430678D01*
X143510000Y-52070000D02*
X165501322Y-52070000D01*
X141732000Y-53848000D02*
X143510000Y-52070000D01*
X141732000Y-66294000D02*
X141732000Y-53848000D01*
D24*
X163741101Y-102781101D02*
X162560000Y-101600000D01*
X163741101Y-109786929D02*
X163741101Y-102781101D01*
X156688030Y-116840000D02*
X163741101Y-109786929D01*
X153670000Y-116840000D02*
X156688030Y-116840000D01*
X157899001Y-96939001D02*
X157899001Y-89319001D01*
X157899001Y-89319001D02*
X156210000Y-87630000D01*
X162560000Y-101600000D02*
X157899001Y-96939001D01*
X156718000Y-98298000D02*
X156718000Y-91440000D01*
X162560000Y-104140000D02*
X156718000Y-98298000D01*
X129082790Y-68783210D02*
X131572000Y-66294000D01*
X129082790Y-97332790D02*
X129082790Y-68783210D01*
X130810000Y-99060000D02*
X129082790Y-97332790D01*
X147320000Y-106680000D02*
X149860000Y-106680000D01*
X152526999Y-112394999D02*
X153162000Y-113030000D01*
X153162000Y-113030000D02*
X156688000Y-113030000D01*
X152526999Y-100456999D02*
X152526999Y-112394999D01*
X131953001Y-81330803D02*
X150952198Y-100330000D01*
X131953001Y-79883001D02*
X131953001Y-81330803D01*
X130810000Y-78740000D02*
X131953001Y-79883001D01*
X152400000Y-100330000D02*
X152526999Y-100456999D01*
X150952198Y-100330000D02*
X152400000Y-100330000D01*
X156210000Y-106680000D02*
X162560000Y-106680000D01*
X153670000Y-109220000D02*
X156210000Y-106680000D01*
X161798000Y-109982000D02*
X162560000Y-109220000D01*
X158018000Y-109982000D02*
X161798000Y-109982000D01*
X157988000Y-110012000D02*
X158018000Y-109982000D01*
X157988000Y-113030000D02*
X157988000Y-110012000D01*
X154940000Y-111760000D02*
X156718000Y-109982000D01*
X153670000Y-111760000D02*
X154940000Y-111760000D01*
X132206999Y-77596999D02*
X143002000Y-88392000D01*
X130261359Y-77596999D02*
X132206999Y-77596999D01*
X129666999Y-78191359D02*
X130261359Y-77596999D01*
X129666999Y-80136999D02*
X129666999Y-78191359D01*
X130810000Y-81280000D02*
X129666999Y-80136999D01*
X143002000Y-90424000D02*
X145542000Y-92964000D01*
X143002000Y-88392000D02*
X143002000Y-90424000D01*
X146050000Y-88392000D02*
X150622000Y-83820000D01*
X143002000Y-88392000D02*
X146050000Y-88392000D01*
X168250001Y-128372000D02*
X126390000Y-128372000D01*
X126390000Y-124349789D01*
X135925817Y-124349789D01*
X136068668Y-124654155D01*
X136424833Y-124834049D01*
X136809250Y-124941003D01*
X137207146Y-124970905D01*
X137603230Y-124922607D01*
X137982281Y-124797964D01*
X138251332Y-124654155D01*
X138394183Y-124349789D01*
X138230096Y-124185701D01*
X144535000Y-124185701D01*
X144535000Y-124734299D01*
X144642026Y-125272354D01*
X144851965Y-125779192D01*
X145156750Y-126235334D01*
X145544666Y-126623250D01*
X146000808Y-126928035D01*
X146507646Y-127137974D01*
X147045701Y-127245000D01*
X147594299Y-127245000D01*
X148132354Y-127137974D01*
X148639192Y-126928035D01*
X149095334Y-126623250D01*
X149483250Y-126235334D01*
X149788035Y-125779192D01*
X149997974Y-125272354D01*
X150105000Y-124734299D01*
X150105000Y-124349789D01*
X160055817Y-124349789D01*
X160198668Y-124654155D01*
X160554833Y-124834049D01*
X160939250Y-124941003D01*
X161337146Y-124970905D01*
X161733230Y-124922607D01*
X162112281Y-124797964D01*
X162381332Y-124654155D01*
X162524183Y-124349789D01*
X161290000Y-123115605D01*
X160055817Y-124349789D01*
X150105000Y-124349789D01*
X150105000Y-124185701D01*
X149997974Y-123647646D01*
X149788035Y-123140808D01*
X149682689Y-122983146D01*
X159255095Y-122983146D01*
X159303393Y-123379230D01*
X159428036Y-123758281D01*
X159571845Y-124027332D01*
X159876211Y-124170183D01*
X161110395Y-122936000D01*
X161469605Y-122936000D01*
X162703789Y-124170183D01*
X163008155Y-124027332D01*
X163188049Y-123671167D01*
X163295003Y-123286750D01*
X163324905Y-122888854D01*
X163276607Y-122492770D01*
X163151964Y-122113719D01*
X163008155Y-121844668D01*
X162703789Y-121701817D01*
X161469605Y-122936000D01*
X161110395Y-122936000D01*
X159876211Y-121701817D01*
X159571845Y-121844668D01*
X159391951Y-122200833D01*
X159284997Y-122585250D01*
X159255095Y-122983146D01*
X149682689Y-122983146D01*
X149483250Y-122684666D01*
X149095334Y-122296750D01*
X148639192Y-121991965D01*
X148132354Y-121782026D01*
X147594299Y-121675000D01*
X147045701Y-121675000D01*
X146507646Y-121782026D01*
X146000808Y-121991965D01*
X145544666Y-122296750D01*
X145156750Y-122684666D01*
X144851965Y-123140808D01*
X144642026Y-123647646D01*
X144535000Y-124185701D01*
X138230096Y-124185701D01*
X137160000Y-123115605D01*
X135925817Y-124349789D01*
X126390000Y-124349789D01*
X126390000Y-122983146D01*
X135125095Y-122983146D01*
X135173393Y-123379230D01*
X135298036Y-123758281D01*
X135441845Y-124027332D01*
X135746211Y-124170183D01*
X136980395Y-122936000D01*
X137339605Y-122936000D01*
X138573789Y-124170183D01*
X138878155Y-124027332D01*
X139058049Y-123671167D01*
X139165003Y-123286750D01*
X139194905Y-122888854D01*
X139146607Y-122492770D01*
X139021964Y-122113719D01*
X138878155Y-121844668D01*
X138573789Y-121701817D01*
X137339605Y-122936000D01*
X136980395Y-122936000D01*
X135746211Y-121701817D01*
X135441845Y-121844668D01*
X135261951Y-122200833D01*
X135154997Y-122585250D01*
X135125095Y-122983146D01*
X126390000Y-122983146D01*
X126390000Y-121522211D01*
X135925817Y-121522211D01*
X137160000Y-122756395D01*
X138394183Y-121522211D01*
X160055817Y-121522211D01*
X161290000Y-122756395D01*
X162524183Y-121522211D01*
X162381332Y-121217845D01*
X162025167Y-121037951D01*
X161640750Y-120930997D01*
X161242854Y-120901095D01*
X160846770Y-120949393D01*
X160467719Y-121074036D01*
X160198668Y-121217845D01*
X160055817Y-121522211D01*
X138394183Y-121522211D01*
X138251332Y-121217845D01*
X137895167Y-121037951D01*
X137510750Y-120930997D01*
X137112854Y-120901095D01*
X136716770Y-120949393D01*
X136337719Y-121074036D01*
X136068668Y-121217845D01*
X135925817Y-121522211D01*
X126390000Y-121522211D01*
X126390000Y-120345565D01*
X130024040Y-120345565D01*
X130091020Y-120585656D01*
X130340048Y-120702756D01*
X130607135Y-120769023D01*
X130882017Y-120781910D01*
X131154133Y-120740922D01*
X131413023Y-120647636D01*
X131528980Y-120585656D01*
X131595960Y-120345565D01*
X130810000Y-119559605D01*
X130024040Y-120345565D01*
X126390000Y-120345565D01*
X126390000Y-119452017D01*
X129408090Y-119452017D01*
X129449078Y-119724133D01*
X129542364Y-119983023D01*
X129604344Y-120098980D01*
X129844435Y-120165960D01*
X130630395Y-119380000D01*
X130989605Y-119380000D01*
X131775565Y-120165960D01*
X132015656Y-120098980D01*
X132132756Y-119849952D01*
X132199023Y-119582865D01*
X132211910Y-119307983D01*
X132170922Y-119035867D01*
X132077636Y-118776977D01*
X132015656Y-118661020D01*
X131775565Y-118594040D01*
X130989605Y-119380000D01*
X130630395Y-119380000D01*
X129844435Y-118594040D01*
X129604344Y-118661020D01*
X129487244Y-118910048D01*
X129420977Y-119177135D01*
X129408090Y-119452017D01*
X126390000Y-119452017D01*
X126390000Y-116702408D01*
X129413000Y-116702408D01*
X129413000Y-116977592D01*
X129466686Y-117247490D01*
X129571995Y-117501727D01*
X129724880Y-117730535D01*
X129919465Y-117925120D01*
X130148273Y-118078005D01*
X130219943Y-118107692D01*
X130206977Y-118112364D01*
X130091020Y-118174344D01*
X130024040Y-118414435D01*
X130810000Y-119200395D01*
X131595960Y-118414435D01*
X131528980Y-118174344D01*
X131393240Y-118110515D01*
X131471727Y-118078005D01*
X131700535Y-117925120D01*
X131895120Y-117730535D01*
X132048005Y-117501727D01*
X132153314Y-117247490D01*
X132207000Y-116977592D01*
X132207000Y-116702408D01*
X132153314Y-116432510D01*
X132048005Y-116178273D01*
X131895120Y-115949465D01*
X131700535Y-115754880D01*
X131505395Y-115624491D01*
X135134350Y-115624491D01*
X135134350Y-116023509D01*
X135212195Y-116414860D01*
X135364892Y-116783505D01*
X135586575Y-117115276D01*
X135868724Y-117397425D01*
X136200495Y-117619108D01*
X136569140Y-117771805D01*
X136960491Y-117849650D01*
X137359509Y-117849650D01*
X137750860Y-117771805D01*
X138119505Y-117619108D01*
X138451276Y-117397425D01*
X138733425Y-117115276D01*
X138955108Y-116783505D01*
X139107805Y-116414860D01*
X139185650Y-116023509D01*
X139185650Y-115624491D01*
X139107805Y-115233140D01*
X138955108Y-114864495D01*
X138733425Y-114532724D01*
X138451276Y-114250575D01*
X138119505Y-114028892D01*
X137750860Y-113876195D01*
X137359509Y-113798350D01*
X136960491Y-113798350D01*
X136569140Y-113876195D01*
X136200495Y-114028892D01*
X135868724Y-114250575D01*
X135586575Y-114532724D01*
X135364892Y-114864495D01*
X135212195Y-115233140D01*
X135134350Y-115624491D01*
X131505395Y-115624491D01*
X131471727Y-115601995D01*
X131400057Y-115572308D01*
X131413023Y-115567636D01*
X131528980Y-115505656D01*
X131595960Y-115265565D01*
X130810000Y-114479605D01*
X130024040Y-115265565D01*
X130091020Y-115505656D01*
X130226760Y-115569485D01*
X130148273Y-115601995D01*
X129919465Y-115754880D01*
X129724880Y-115949465D01*
X129571995Y-116178273D01*
X129466686Y-116432510D01*
X129413000Y-116702408D01*
X126390000Y-116702408D01*
X126390000Y-114372017D01*
X129408090Y-114372017D01*
X129449078Y-114644133D01*
X129542364Y-114903023D01*
X129604344Y-115018980D01*
X129844435Y-115085960D01*
X130630395Y-114300000D01*
X130989605Y-114300000D01*
X131775565Y-115085960D01*
X132015656Y-115018980D01*
X132132756Y-114769952D01*
X132199023Y-114502865D01*
X132211910Y-114227983D01*
X132170922Y-113955867D01*
X132077636Y-113696977D01*
X132015656Y-113581020D01*
X131775565Y-113514040D01*
X130989605Y-114300000D01*
X130630395Y-114300000D01*
X129844435Y-113514040D01*
X129604344Y-113581020D01*
X129487244Y-113830048D01*
X129420977Y-114097135D01*
X129408090Y-114372017D01*
X126390000Y-114372017D01*
X126390000Y-66156408D01*
X127635000Y-66156408D01*
X127635000Y-66431592D01*
X127688686Y-66701490D01*
X127793995Y-66955727D01*
X127946880Y-67184535D01*
X128141465Y-67379120D01*
X128370273Y-67532005D01*
X128624510Y-67637314D01*
X128894408Y-67691000D01*
X129097370Y-67691000D01*
X128570439Y-68217931D01*
X128541369Y-68241788D01*
X128517512Y-68270858D01*
X128517511Y-68270859D01*
X128446145Y-68357818D01*
X128375389Y-68490195D01*
X128331817Y-68633832D01*
X128317104Y-68783210D01*
X128320791Y-68820643D01*
X128320790Y-97295367D01*
X128317104Y-97332790D01*
X128320790Y-97370213D01*
X128320790Y-97370215D01*
X128331816Y-97482167D01*
X128375388Y-97625804D01*
X128395270Y-97663000D01*
X128446145Y-97758182D01*
X128485773Y-97806468D01*
X128541368Y-97874212D01*
X128570444Y-97898074D01*
X129443159Y-98770789D01*
X129413000Y-98922408D01*
X129413000Y-99197592D01*
X129466686Y-99467490D01*
X129571995Y-99721727D01*
X129724880Y-99950535D01*
X129919465Y-100145120D01*
X130148273Y-100298005D01*
X130225515Y-100330000D01*
X130148273Y-100361995D01*
X129919465Y-100514880D01*
X129724880Y-100709465D01*
X129571995Y-100938273D01*
X129466686Y-101192510D01*
X129413000Y-101462408D01*
X129413000Y-101737592D01*
X129466686Y-102007490D01*
X129571995Y-102261727D01*
X129724880Y-102490535D01*
X129919465Y-102685120D01*
X130148273Y-102838005D01*
X130225515Y-102870000D01*
X130148273Y-102901995D01*
X129919465Y-103054880D01*
X129724880Y-103249465D01*
X129571995Y-103478273D01*
X129466686Y-103732510D01*
X129413000Y-104002408D01*
X129413000Y-104277592D01*
X129466686Y-104547490D01*
X129571995Y-104801727D01*
X129724880Y-105030535D01*
X129919465Y-105225120D01*
X130148273Y-105378005D01*
X130225515Y-105410000D01*
X130148273Y-105441995D01*
X129919465Y-105594880D01*
X129724880Y-105789465D01*
X129571995Y-106018273D01*
X129466686Y-106272510D01*
X129413000Y-106542408D01*
X129413000Y-106817592D01*
X129466686Y-107087490D01*
X129571995Y-107341727D01*
X129724880Y-107570535D01*
X129919465Y-107765120D01*
X130148273Y-107918005D01*
X130225515Y-107950000D01*
X130148273Y-107981995D01*
X129919465Y-108134880D01*
X129724880Y-108329465D01*
X129571995Y-108558273D01*
X129466686Y-108812510D01*
X129413000Y-109082408D01*
X129413000Y-109357592D01*
X129466686Y-109627490D01*
X129571995Y-109881727D01*
X129724880Y-110110535D01*
X129919465Y-110305120D01*
X130148273Y-110458005D01*
X130225515Y-110490000D01*
X130148273Y-110521995D01*
X129919465Y-110674880D01*
X129724880Y-110869465D01*
X129571995Y-111098273D01*
X129466686Y-111352510D01*
X129413000Y-111622408D01*
X129413000Y-111897592D01*
X129466686Y-112167490D01*
X129571995Y-112421727D01*
X129724880Y-112650535D01*
X129919465Y-112845120D01*
X130148273Y-112998005D01*
X130219943Y-113027692D01*
X130206977Y-113032364D01*
X130091020Y-113094344D01*
X130024040Y-113334435D01*
X130810000Y-114120395D01*
X131595960Y-113334435D01*
X131528980Y-113094344D01*
X131393240Y-113030515D01*
X131471727Y-112998005D01*
X131700535Y-112845120D01*
X131895120Y-112650535D01*
X132048005Y-112421727D01*
X132153314Y-112167490D01*
X132207000Y-111897592D01*
X132207000Y-111622408D01*
X132153314Y-111352510D01*
X132048005Y-111098273D01*
X131895120Y-110869465D01*
X131700535Y-110674880D01*
X131471727Y-110521995D01*
X131394485Y-110490000D01*
X131471727Y-110458005D01*
X131700535Y-110305120D01*
X131895120Y-110110535D01*
X132048005Y-109881727D01*
X132153314Y-109627490D01*
X132207000Y-109357592D01*
X132207000Y-109082408D01*
X132153314Y-108812510D01*
X132048005Y-108558273D01*
X131895120Y-108329465D01*
X131700535Y-108134880D01*
X131471727Y-107981995D01*
X131394485Y-107950000D01*
X131471727Y-107918005D01*
X131700535Y-107765120D01*
X131895120Y-107570535D01*
X132048005Y-107341727D01*
X132153314Y-107087490D01*
X132207000Y-106817592D01*
X132207000Y-106579933D01*
X146304000Y-106579933D01*
X146304000Y-106780067D01*
X146343044Y-106976356D01*
X146419632Y-107161256D01*
X146530821Y-107327662D01*
X146672338Y-107469179D01*
X146838744Y-107580368D01*
X147023644Y-107656956D01*
X147219933Y-107696000D01*
X147420067Y-107696000D01*
X147616356Y-107656956D01*
X147801256Y-107580368D01*
X147967662Y-107469179D01*
X147994841Y-107442000D01*
X149185159Y-107442000D01*
X149212338Y-107469179D01*
X149378744Y-107580368D01*
X149563644Y-107656956D01*
X149759933Y-107696000D01*
X149960067Y-107696000D01*
X150156356Y-107656956D01*
X150341256Y-107580368D01*
X150507662Y-107469179D01*
X150649179Y-107327662D01*
X150760368Y-107161256D01*
X150836956Y-106976356D01*
X150876000Y-106780067D01*
X150876000Y-106579933D01*
X150836956Y-106383644D01*
X150760368Y-106198744D01*
X150649179Y-106032338D01*
X150507662Y-105890821D01*
X150341256Y-105779632D01*
X150156356Y-105703044D01*
X149960067Y-105664000D01*
X149759933Y-105664000D01*
X149563644Y-105703044D01*
X149378744Y-105779632D01*
X149212338Y-105890821D01*
X149185159Y-105918000D01*
X147994841Y-105918000D01*
X147967662Y-105890821D01*
X147801256Y-105779632D01*
X147616356Y-105703044D01*
X147420067Y-105664000D01*
X147219933Y-105664000D01*
X147023644Y-105703044D01*
X146838744Y-105779632D01*
X146672338Y-105890821D01*
X146530821Y-106032338D01*
X146419632Y-106198744D01*
X146343044Y-106383644D01*
X146304000Y-106579933D01*
X132207000Y-106579933D01*
X132207000Y-106542408D01*
X132153314Y-106272510D01*
X132048005Y-106018273D01*
X131895120Y-105789465D01*
X131700535Y-105594880D01*
X131471727Y-105441995D01*
X131394485Y-105410000D01*
X131471727Y-105378005D01*
X131700535Y-105225120D01*
X131895120Y-105030535D01*
X131896146Y-105029000D01*
X149107731Y-105029000D01*
X149124744Y-105040368D01*
X149309644Y-105116956D01*
X149505933Y-105156000D01*
X149706067Y-105156000D01*
X149902356Y-105116956D01*
X150087256Y-105040368D01*
X150253662Y-104929179D01*
X150395179Y-104787662D01*
X150506368Y-104621256D01*
X150582956Y-104436356D01*
X150622000Y-104240067D01*
X150622000Y-104039933D01*
X150582956Y-103843644D01*
X150506368Y-103658744D01*
X150395179Y-103492338D01*
X150253662Y-103350821D01*
X150087256Y-103239632D01*
X149902356Y-103163044D01*
X149706067Y-103124000D01*
X149505933Y-103124000D01*
X149309644Y-103163044D01*
X149124744Y-103239632D01*
X149107731Y-103251000D01*
X131896146Y-103251000D01*
X131895120Y-103249465D01*
X131700535Y-103054880D01*
X131471727Y-102901995D01*
X131394485Y-102870000D01*
X131471727Y-102838005D01*
X131700535Y-102685120D01*
X131895120Y-102490535D01*
X132048005Y-102261727D01*
X132153314Y-102007490D01*
X132207000Y-101737592D01*
X132207000Y-101462408D01*
X132153314Y-101192510D01*
X132048005Y-100938273D01*
X131895120Y-100709465D01*
X131700535Y-100514880D01*
X131471727Y-100361995D01*
X131394485Y-100330000D01*
X131471727Y-100298005D01*
X131700535Y-100145120D01*
X131895120Y-99950535D01*
X132048005Y-99721727D01*
X132153314Y-99467490D01*
X132207000Y-99197592D01*
X132207000Y-98922408D01*
X132153314Y-98652510D01*
X132048005Y-98398273D01*
X131895120Y-98169465D01*
X131700535Y-97974880D01*
X131471727Y-97821995D01*
X131394485Y-97790000D01*
X131471727Y-97758005D01*
X131700535Y-97605120D01*
X131895120Y-97410535D01*
X132048005Y-97181727D01*
X132153314Y-96927490D01*
X132207000Y-96657592D01*
X132207000Y-96382408D01*
X132153314Y-96112510D01*
X132048005Y-95858273D01*
X131895120Y-95629465D01*
X131700535Y-95434880D01*
X131471727Y-95281995D01*
X131394485Y-95250000D01*
X131471727Y-95218005D01*
X131700535Y-95065120D01*
X131895120Y-94870535D01*
X132048005Y-94641727D01*
X132153314Y-94387490D01*
X132207000Y-94117592D01*
X132207000Y-93842408D01*
X132153314Y-93572510D01*
X132048005Y-93318273D01*
X131895120Y-93089465D01*
X131700535Y-92894880D01*
X131471727Y-92741995D01*
X131394485Y-92710000D01*
X131471727Y-92678005D01*
X131700535Y-92525120D01*
X131895120Y-92330535D01*
X132048005Y-92101727D01*
X132153314Y-91847490D01*
X132207000Y-91577592D01*
X132207000Y-91302408D01*
X132153314Y-91032510D01*
X132048005Y-90778273D01*
X131895120Y-90549465D01*
X131700535Y-90354880D01*
X131471727Y-90201995D01*
X131394485Y-90170000D01*
X131471727Y-90138005D01*
X131700535Y-89985120D01*
X131895120Y-89790535D01*
X132048005Y-89561727D01*
X132153314Y-89307490D01*
X132207000Y-89037592D01*
X132207000Y-88762408D01*
X132153314Y-88492510D01*
X132048005Y-88238273D01*
X131895120Y-88009465D01*
X131700535Y-87814880D01*
X131471727Y-87661995D01*
X131394485Y-87630000D01*
X131471727Y-87598005D01*
X131700535Y-87445120D01*
X131895120Y-87250535D01*
X132048005Y-87021727D01*
X132153314Y-86767490D01*
X132207000Y-86497592D01*
X132207000Y-86222408D01*
X132153314Y-85952510D01*
X132048005Y-85698273D01*
X131895120Y-85469465D01*
X131700535Y-85274880D01*
X131471727Y-85121995D01*
X131394485Y-85090000D01*
X131471727Y-85058005D01*
X131700535Y-84905120D01*
X131895120Y-84710535D01*
X132048005Y-84481727D01*
X132153314Y-84227490D01*
X132207000Y-83957592D01*
X132207000Y-83682408D01*
X132153314Y-83412510D01*
X132048005Y-83158273D01*
X131895120Y-82929465D01*
X131700535Y-82734880D01*
X131471727Y-82581995D01*
X131394485Y-82550000D01*
X131471727Y-82518005D01*
X131700535Y-82365120D01*
X131805111Y-82260544D01*
X150386918Y-100842351D01*
X150410776Y-100871422D01*
X150526806Y-100966645D01*
X150659183Y-101037402D01*
X150802820Y-101080974D01*
X150914772Y-101092000D01*
X150914774Y-101092000D01*
X150952197Y-101095686D01*
X150989620Y-101092000D01*
X151764999Y-101092000D01*
X151765000Y-112357566D01*
X151761313Y-112394999D01*
X151776026Y-112544377D01*
X151819598Y-112688014D01*
X151890354Y-112820391D01*
X151958150Y-112903000D01*
X151985578Y-112936421D01*
X152014648Y-112960278D01*
X152536396Y-113482027D01*
X152431995Y-113638273D01*
X152326686Y-113892510D01*
X152273000Y-114162408D01*
X152273000Y-114437592D01*
X152326686Y-114707490D01*
X152431995Y-114961727D01*
X152584880Y-115190535D01*
X152779465Y-115385120D01*
X153008273Y-115538005D01*
X153085515Y-115570000D01*
X153008273Y-115601995D01*
X152779465Y-115754880D01*
X152584880Y-115949465D01*
X152431995Y-116178273D01*
X152326686Y-116432510D01*
X152273000Y-116702408D01*
X152273000Y-116977592D01*
X152326686Y-117247490D01*
X152431995Y-117501727D01*
X152584880Y-117730535D01*
X152779465Y-117925120D01*
X153008273Y-118078005D01*
X153085515Y-118110000D01*
X153008273Y-118141995D01*
X152779465Y-118294880D01*
X152584880Y-118489465D01*
X152431995Y-118718273D01*
X152326686Y-118972510D01*
X152273000Y-119242408D01*
X152273000Y-119517592D01*
X152326686Y-119787490D01*
X152431995Y-120041727D01*
X152584880Y-120270535D01*
X152779465Y-120465120D01*
X153008273Y-120618005D01*
X153262510Y-120723314D01*
X153532408Y-120777000D01*
X153807592Y-120777000D01*
X154077490Y-120723314D01*
X154331727Y-120618005D01*
X154560535Y-120465120D01*
X154755120Y-120270535D01*
X154908005Y-120041727D01*
X155013314Y-119787490D01*
X155067000Y-119517592D01*
X155067000Y-119242408D01*
X155013314Y-118972510D01*
X154908005Y-118718273D01*
X154755120Y-118489465D01*
X154560535Y-118294880D01*
X154331727Y-118141995D01*
X154254485Y-118110000D01*
X154331727Y-118078005D01*
X154560535Y-117925120D01*
X154755120Y-117730535D01*
X154841005Y-117602000D01*
X156650607Y-117602000D01*
X156688030Y-117605686D01*
X156725453Y-117602000D01*
X156725456Y-117602000D01*
X156837408Y-117590974D01*
X156981045Y-117547402D01*
X157113422Y-117476645D01*
X157229452Y-117381422D01*
X157253314Y-117352346D01*
X159334665Y-115270995D01*
X159264350Y-115624491D01*
X159264350Y-116023509D01*
X159342195Y-116414860D01*
X159494892Y-116783505D01*
X159716575Y-117115276D01*
X159998724Y-117397425D01*
X160330495Y-117619108D01*
X160699140Y-117771805D01*
X161090491Y-117849650D01*
X161489509Y-117849650D01*
X161880860Y-117771805D01*
X162249505Y-117619108D01*
X162581276Y-117397425D01*
X162863425Y-117115276D01*
X163085108Y-116783505D01*
X163237805Y-116414860D01*
X163315650Y-116023509D01*
X163315650Y-115624491D01*
X163237805Y-115233140D01*
X163085108Y-114864495D01*
X162863425Y-114532724D01*
X162581276Y-114250575D01*
X162249505Y-114028892D01*
X161880860Y-113876195D01*
X161489509Y-113798350D01*
X161090491Y-113798350D01*
X160736995Y-113868665D01*
X164253448Y-110352212D01*
X164282523Y-110328351D01*
X164361596Y-110232000D01*
X164377746Y-110212322D01*
X164448502Y-110079945D01*
X164448503Y-110079944D01*
X164492075Y-109936307D01*
X164503101Y-109824355D01*
X164503101Y-109824352D01*
X164506787Y-109786929D01*
X164503101Y-109749506D01*
X164503101Y-102818523D01*
X164506787Y-102781100D01*
X164503101Y-102743675D01*
X164492075Y-102631723D01*
X164448503Y-102488086D01*
X164377746Y-102355709D01*
X164282523Y-102239679D01*
X164253453Y-102215822D01*
X163959243Y-101921612D01*
X163995100Y-101741345D01*
X163995100Y-101458655D01*
X163939950Y-101181397D01*
X163831769Y-100920225D01*
X163674715Y-100685177D01*
X163474823Y-100485285D01*
X163241068Y-100329095D01*
X163301574Y-100296754D01*
X163373169Y-100052774D01*
X162560000Y-99239605D01*
X162545858Y-99253748D01*
X162366253Y-99074143D01*
X162380395Y-99060000D01*
X162739605Y-99060000D01*
X163552774Y-99873169D01*
X163796754Y-99801574D01*
X163917664Y-99546046D01*
X163986400Y-99271839D01*
X164000320Y-98989492D01*
X163958889Y-98709853D01*
X163863700Y-98443672D01*
X163796754Y-98318426D01*
X163552774Y-98246831D01*
X162739605Y-99060000D01*
X162380395Y-99060000D01*
X161567226Y-98246831D01*
X161323246Y-98318426D01*
X161202336Y-98573954D01*
X161133600Y-98848161D01*
X161121957Y-99084326D01*
X158661001Y-96623371D01*
X158661001Y-89356423D01*
X158664687Y-89319000D01*
X158661001Y-89281575D01*
X158649975Y-89169623D01*
X158606403Y-89025986D01*
X158535646Y-88893609D01*
X158440423Y-88777579D01*
X158411353Y-88753722D01*
X157980739Y-88323108D01*
X157989680Y-88309727D01*
X158097853Y-88048574D01*
X158153000Y-87771335D01*
X158153000Y-87488665D01*
X158097853Y-87211426D01*
X157989680Y-86950273D01*
X157832637Y-86715241D01*
X157632759Y-86515363D01*
X157397727Y-86358320D01*
X157136574Y-86250147D01*
X156859335Y-86195000D01*
X156576665Y-86195000D01*
X156299426Y-86250147D01*
X156038273Y-86358320D01*
X155803241Y-86515363D01*
X155603363Y-86715241D01*
X155446320Y-86950273D01*
X155338147Y-87211426D01*
X155283000Y-87488665D01*
X155283000Y-87771335D01*
X155338147Y-88048574D01*
X155446320Y-88309727D01*
X155603363Y-88544759D01*
X155803241Y-88744637D01*
X156038273Y-88901680D01*
X156299426Y-89009853D01*
X156565061Y-89062692D01*
X157137002Y-89634633D01*
X157137002Y-90060324D01*
X157136574Y-90060147D01*
X156859335Y-90005000D01*
X156576665Y-90005000D01*
X156299426Y-90060147D01*
X156038273Y-90168320D01*
X155803241Y-90325363D01*
X155603363Y-90525241D01*
X155446320Y-90760273D01*
X155338147Y-91021426D01*
X155283000Y-91298665D01*
X155283000Y-91581335D01*
X155338147Y-91858574D01*
X155446320Y-92119727D01*
X155603363Y-92354759D01*
X155803241Y-92554637D01*
X155956001Y-92656708D01*
X155956000Y-98260577D01*
X155952314Y-98298000D01*
X155956000Y-98335423D01*
X155956000Y-98335425D01*
X155967026Y-98447377D01*
X156010598Y-98591014D01*
X156010599Y-98591015D01*
X156081355Y-98723392D01*
X156117130Y-98766984D01*
X156176578Y-98839422D01*
X156205654Y-98863284D01*
X161160757Y-103818387D01*
X161124900Y-103998655D01*
X161124900Y-104281345D01*
X161180050Y-104558603D01*
X161288231Y-104819775D01*
X161445285Y-105054823D01*
X161645177Y-105254715D01*
X161877578Y-105410000D01*
X161645177Y-105565285D01*
X161445285Y-105765177D01*
X161343172Y-105918000D01*
X156247422Y-105918000D01*
X156209999Y-105914314D01*
X156172576Y-105918000D01*
X156172574Y-105918000D01*
X156060622Y-105929026D01*
X155916985Y-105972598D01*
X155784608Y-106043355D01*
X155668578Y-106138578D01*
X155644721Y-106167648D01*
X155067000Y-106745369D01*
X155067000Y-106542408D01*
X155013314Y-106272510D01*
X154908005Y-106018273D01*
X154755120Y-105789465D01*
X154560535Y-105594880D01*
X154331727Y-105441995D01*
X154254485Y-105410000D01*
X154331727Y-105378005D01*
X154560535Y-105225120D01*
X154755120Y-105030535D01*
X154908005Y-104801727D01*
X155013314Y-104547490D01*
X155067000Y-104277592D01*
X155067000Y-104002408D01*
X155013314Y-103732510D01*
X154908005Y-103478273D01*
X154755120Y-103249465D01*
X154560535Y-103054880D01*
X154331727Y-102901995D01*
X154254485Y-102870000D01*
X154331727Y-102838005D01*
X154560535Y-102685120D01*
X154755120Y-102490535D01*
X154908005Y-102261727D01*
X155013314Y-102007490D01*
X155067000Y-101737592D01*
X155067000Y-101462408D01*
X155013314Y-101192510D01*
X154908005Y-100938273D01*
X154755120Y-100709465D01*
X154560535Y-100514880D01*
X154331727Y-100361995D01*
X154254485Y-100330000D01*
X154331727Y-100298005D01*
X154560535Y-100145120D01*
X154755120Y-99950535D01*
X154908005Y-99721727D01*
X155013314Y-99467490D01*
X155067000Y-99197592D01*
X155067000Y-98922408D01*
X155013314Y-98652510D01*
X154908005Y-98398273D01*
X154755120Y-98169465D01*
X154560535Y-97974880D01*
X154331727Y-97821995D01*
X154254485Y-97790000D01*
X154331727Y-97758005D01*
X154560535Y-97605120D01*
X154755120Y-97410535D01*
X154908005Y-97181727D01*
X155013314Y-96927490D01*
X155067000Y-96657592D01*
X155067000Y-96382408D01*
X155013314Y-96112510D01*
X154908005Y-95858273D01*
X154755120Y-95629465D01*
X154560535Y-95434880D01*
X154331727Y-95281995D01*
X154254485Y-95250000D01*
X154331727Y-95218005D01*
X154560535Y-95065120D01*
X154755120Y-94870535D01*
X154908005Y-94641727D01*
X155013314Y-94387490D01*
X155067000Y-94117592D01*
X155067000Y-93842408D01*
X155013314Y-93572510D01*
X154908005Y-93318273D01*
X154755120Y-93089465D01*
X154560535Y-92894880D01*
X154331727Y-92741995D01*
X154254485Y-92710000D01*
X154331727Y-92678005D01*
X154560535Y-92525120D01*
X154755120Y-92330535D01*
X154908005Y-92101727D01*
X155013314Y-91847490D01*
X155067000Y-91577592D01*
X155067000Y-91302408D01*
X155013314Y-91032510D01*
X154908005Y-90778273D01*
X154755120Y-90549465D01*
X154560535Y-90354880D01*
X154331727Y-90201995D01*
X154254485Y-90170000D01*
X154331727Y-90138005D01*
X154560535Y-89985120D01*
X154755120Y-89790535D01*
X154908005Y-89561727D01*
X155013314Y-89307490D01*
X155067000Y-89037592D01*
X155067000Y-88762408D01*
X155013314Y-88492510D01*
X154908005Y-88238273D01*
X154755120Y-88009465D01*
X154560535Y-87814880D01*
X154331727Y-87661995D01*
X154254485Y-87630000D01*
X154331727Y-87598005D01*
X154560535Y-87445120D01*
X154755120Y-87250535D01*
X154908005Y-87021727D01*
X155013314Y-86767490D01*
X155067000Y-86497592D01*
X155067000Y-86222408D01*
X155013314Y-85952510D01*
X154908005Y-85698273D01*
X154755120Y-85469465D01*
X154560535Y-85274880D01*
X154331727Y-85121995D01*
X154254485Y-85090000D01*
X154331727Y-85058005D01*
X154560535Y-84905120D01*
X154755120Y-84710535D01*
X154908005Y-84481727D01*
X155013314Y-84227490D01*
X155067000Y-83957592D01*
X155067000Y-83682408D01*
X155066256Y-83678665D01*
X155283000Y-83678665D01*
X155283000Y-83961335D01*
X155338147Y-84238574D01*
X155446320Y-84499727D01*
X155603363Y-84734759D01*
X155803241Y-84934637D01*
X156038273Y-85091680D01*
X156299426Y-85199853D01*
X156576665Y-85255000D01*
X156859335Y-85255000D01*
X157136574Y-85199853D01*
X157397727Y-85091680D01*
X157632759Y-84934637D01*
X157832637Y-84734759D01*
X157989680Y-84499727D01*
X158097853Y-84238574D01*
X158111684Y-84169039D01*
X162946096Y-84169039D01*
X162986754Y-84303087D01*
X163106963Y-84557420D01*
X163274481Y-84783414D01*
X163482869Y-84972385D01*
X163724119Y-85117070D01*
X163988960Y-85211909D01*
X164211000Y-85090624D01*
X164211000Y-83947000D01*
X163068085Y-83947000D01*
X162946096Y-84169039D01*
X158111684Y-84169039D01*
X158153000Y-83961335D01*
X158153000Y-83678665D01*
X158111685Y-83470961D01*
X162946096Y-83470961D01*
X163068085Y-83693000D01*
X164211000Y-83693000D01*
X164211000Y-82549376D01*
X163988960Y-82428091D01*
X163724119Y-82522930D01*
X163482869Y-82667615D01*
X163274481Y-82856586D01*
X163106963Y-83082580D01*
X162986754Y-83336913D01*
X162946096Y-83470961D01*
X158111685Y-83470961D01*
X158097853Y-83401426D01*
X157989680Y-83140273D01*
X157832637Y-82905241D01*
X157632759Y-82705363D01*
X157397727Y-82548320D01*
X157136574Y-82440147D01*
X156859335Y-82385000D01*
X156576665Y-82385000D01*
X156299426Y-82440147D01*
X156038273Y-82548320D01*
X155803241Y-82705363D01*
X155603363Y-82905241D01*
X155446320Y-83140273D01*
X155338147Y-83401426D01*
X155283000Y-83678665D01*
X155066256Y-83678665D01*
X155013314Y-83412510D01*
X154908005Y-83158273D01*
X154755120Y-82929465D01*
X154560535Y-82734880D01*
X154331727Y-82581995D01*
X154254485Y-82550000D01*
X154331727Y-82518005D01*
X154560535Y-82365120D01*
X154755120Y-82170535D01*
X154908005Y-81941727D01*
X155013314Y-81687490D01*
X155067000Y-81417592D01*
X155067000Y-81142408D01*
X155013314Y-80872510D01*
X154908005Y-80618273D01*
X154755120Y-80389465D01*
X154560535Y-80194880D01*
X154331727Y-80041995D01*
X154254485Y-80010000D01*
X154331727Y-79978005D01*
X154560535Y-79825120D01*
X154755120Y-79630535D01*
X154804594Y-79556491D01*
X159264350Y-79556491D01*
X159264350Y-79955509D01*
X159342195Y-80346860D01*
X159494892Y-80715505D01*
X159716575Y-81047276D01*
X159998724Y-81329425D01*
X160330495Y-81551108D01*
X160699140Y-81703805D01*
X161090491Y-81781650D01*
X161489509Y-81781650D01*
X161880860Y-81703805D01*
X162249505Y-81551108D01*
X162581276Y-81329425D01*
X162863425Y-81047276D01*
X163085108Y-80715505D01*
X163237805Y-80346860D01*
X163315650Y-79955509D01*
X163315650Y-79556491D01*
X163237805Y-79165140D01*
X163085108Y-78796495D01*
X162863425Y-78464724D01*
X162581276Y-78182575D01*
X162249505Y-77960892D01*
X161880860Y-77808195D01*
X161489509Y-77730350D01*
X161090491Y-77730350D01*
X160699140Y-77808195D01*
X160330495Y-77960892D01*
X159998724Y-78182575D01*
X159716575Y-78464724D01*
X159494892Y-78796495D01*
X159342195Y-79165140D01*
X159264350Y-79556491D01*
X154804594Y-79556491D01*
X154908005Y-79401727D01*
X155013314Y-79147490D01*
X155067000Y-78877592D01*
X155067000Y-78602408D01*
X155013314Y-78332510D01*
X154908005Y-78078273D01*
X154755120Y-77849465D01*
X154560535Y-77654880D01*
X154331727Y-77501995D01*
X154254485Y-77470000D01*
X154331727Y-77438005D01*
X154560535Y-77285120D01*
X154755120Y-77090535D01*
X154908005Y-76861727D01*
X155013314Y-76607490D01*
X155067000Y-76337592D01*
X155067000Y-76062408D01*
X155013314Y-75792510D01*
X154908005Y-75538273D01*
X154755120Y-75309465D01*
X154560535Y-75114880D01*
X154331727Y-74961995D01*
X154254485Y-74930000D01*
X154331727Y-74898005D01*
X154560535Y-74745120D01*
X154755120Y-74550535D01*
X154908005Y-74321727D01*
X155013314Y-74067490D01*
X155067000Y-73797592D01*
X155067000Y-73522408D01*
X155018583Y-73278999D01*
X159360478Y-73278999D01*
X159494892Y-73603505D01*
X159716575Y-73935276D01*
X159998724Y-74217425D01*
X160330495Y-74439108D01*
X160699140Y-74591805D01*
X161090491Y-74669650D01*
X161489509Y-74669650D01*
X161880860Y-74591805D01*
X162249505Y-74439108D01*
X162581276Y-74217425D01*
X162863425Y-73935276D01*
X163085108Y-73603505D01*
X163237805Y-73234860D01*
X163315650Y-72843509D01*
X163315650Y-72444491D01*
X163237805Y-72053140D01*
X163085108Y-71684495D01*
X162863425Y-71352724D01*
X162581276Y-71070575D01*
X162249505Y-70848892D01*
X161880860Y-70696195D01*
X161489509Y-70618350D01*
X161090491Y-70618350D01*
X160699140Y-70696195D01*
X160330495Y-70848892D01*
X159998724Y-71070575D01*
X159716575Y-71352724D01*
X159617500Y-71500999D01*
X152019000Y-71500999D01*
X152019000Y-66399429D01*
X156006800Y-66399429D01*
X156006800Y-68220572D01*
X156028117Y-68436998D01*
X156112356Y-68714697D01*
X156249153Y-68970626D01*
X156433251Y-69194950D01*
X156657575Y-69379048D01*
X156913504Y-69515845D01*
X157191203Y-69600084D01*
X157480000Y-69628528D01*
X157768798Y-69600084D01*
X158046497Y-69515845D01*
X158302426Y-69379048D01*
X158526750Y-69194950D01*
X158710848Y-68970626D01*
X158750001Y-68897377D01*
X158789153Y-68970626D01*
X158973251Y-69194950D01*
X159197575Y-69379048D01*
X159453504Y-69515845D01*
X159731203Y-69600084D01*
X160020000Y-69628528D01*
X160308798Y-69600084D01*
X160586497Y-69515845D01*
X160842426Y-69379048D01*
X161066750Y-69194950D01*
X161250848Y-68970626D01*
X161290829Y-68895826D01*
X161405637Y-69072263D01*
X161608094Y-69279712D01*
X161847132Y-69443678D01*
X162113565Y-69557859D01*
X162204962Y-69577979D01*
X162433000Y-69456500D01*
X162433000Y-67437000D01*
X162687000Y-67437000D01*
X162687000Y-69456500D01*
X162915038Y-69577979D01*
X163006435Y-69557859D01*
X163272868Y-69443678D01*
X163511906Y-69279712D01*
X163714363Y-69072263D01*
X163872458Y-68829302D01*
X163980116Y-68560167D01*
X164033200Y-68275200D01*
X164033200Y-67437000D01*
X162687000Y-67437000D01*
X162433000Y-67437000D01*
X162413000Y-67437000D01*
X162413000Y-67183000D01*
X162433000Y-67183000D01*
X162433000Y-65163500D01*
X162687000Y-65163500D01*
X162687000Y-67183000D01*
X164033200Y-67183000D01*
X164033200Y-66344800D01*
X163980116Y-66059833D01*
X163872458Y-65790698D01*
X163714363Y-65547737D01*
X163511906Y-65340288D01*
X163272868Y-65176322D01*
X163006435Y-65062141D01*
X162915038Y-65042021D01*
X162687000Y-65163500D01*
X162433000Y-65163500D01*
X162204962Y-65042021D01*
X162113565Y-65062141D01*
X161847132Y-65176322D01*
X161608094Y-65340288D01*
X161405637Y-65547737D01*
X161290829Y-65724174D01*
X161250848Y-65649374D01*
X161066749Y-65425050D01*
X160842425Y-65240952D01*
X160586496Y-65104155D01*
X160308797Y-65019916D01*
X160020000Y-64991472D01*
X159731202Y-65019916D01*
X159453503Y-65104155D01*
X159197574Y-65240952D01*
X158973250Y-65425051D01*
X158789152Y-65649375D01*
X158750000Y-65722623D01*
X158710848Y-65649374D01*
X158526749Y-65425050D01*
X158302425Y-65240952D01*
X158046496Y-65104155D01*
X157768797Y-65019916D01*
X157480000Y-64991472D01*
X157191202Y-65019916D01*
X156913503Y-65104155D01*
X156657574Y-65240952D01*
X156433250Y-65425051D01*
X156249152Y-65649375D01*
X156112355Y-65905304D01*
X156028116Y-66183003D01*
X156006800Y-66399429D01*
X152019000Y-66399429D01*
X152019000Y-55218695D01*
X152036727Y-55206850D01*
X152234850Y-55008727D01*
X152390514Y-54775759D01*
X152497738Y-54516899D01*
X152552400Y-54242094D01*
X152552400Y-53961906D01*
X152497738Y-53687101D01*
X152390514Y-53428241D01*
X152234850Y-53195273D01*
X152036727Y-52997150D01*
X151979631Y-52959000D01*
X164973000Y-52959000D01*
X164973001Y-82535596D01*
X164951881Y-82522930D01*
X164687040Y-82428091D01*
X164465000Y-82549376D01*
X164465000Y-83693000D01*
X164485000Y-83693000D01*
X164485000Y-83947000D01*
X164465000Y-83947000D01*
X164465000Y-85090624D01*
X164687040Y-85211909D01*
X164951881Y-85117070D01*
X164973001Y-85104404D01*
X164973001Y-86339794D01*
X164756574Y-86250147D01*
X164479335Y-86195000D01*
X164196665Y-86195000D01*
X163919426Y-86250147D01*
X163658273Y-86358320D01*
X163423241Y-86515363D01*
X163223363Y-86715241D01*
X163066320Y-86950273D01*
X162958147Y-87211426D01*
X162903000Y-87488665D01*
X162903000Y-87771335D01*
X162958147Y-88048574D01*
X163066320Y-88309727D01*
X163223363Y-88544759D01*
X163423241Y-88744637D01*
X163449000Y-88761849D01*
X163449001Y-90308151D01*
X163423241Y-90325363D01*
X163223363Y-90525241D01*
X163066320Y-90760273D01*
X162958147Y-91021426D01*
X162903000Y-91298665D01*
X162903000Y-91581335D01*
X162909044Y-91611720D01*
X162699765Y-91821000D01*
X162603667Y-91821000D01*
X162560000Y-91816699D01*
X162516333Y-91821000D01*
X162385726Y-91833864D01*
X162218149Y-91884697D01*
X162063709Y-91967247D01*
X161928341Y-92078341D01*
X161817247Y-92213709D01*
X161734697Y-92368149D01*
X161683864Y-92535726D01*
X161666699Y-92710000D01*
X161671001Y-92753677D01*
X161671000Y-95388030D01*
X161645177Y-95405285D01*
X161445285Y-95605177D01*
X161288231Y-95840225D01*
X161180050Y-96101397D01*
X161124900Y-96378655D01*
X161124900Y-96661345D01*
X161180050Y-96938603D01*
X161288231Y-97199775D01*
X161445285Y-97434823D01*
X161645177Y-97634715D01*
X161878932Y-97790905D01*
X161818426Y-97823246D01*
X161746831Y-98067226D01*
X162560000Y-98880395D01*
X163373169Y-98067226D01*
X163301574Y-97823246D01*
X163237256Y-97792812D01*
X163239775Y-97791769D01*
X163474823Y-97634715D01*
X163674715Y-97434823D01*
X163831769Y-97199775D01*
X163939950Y-96938603D01*
X163995100Y-96661345D01*
X163995100Y-96378655D01*
X163939950Y-96101397D01*
X163831769Y-95840225D01*
X163674715Y-95605177D01*
X163474823Y-95405285D01*
X163449000Y-95388031D01*
X163449000Y-93514377D01*
X163564291Y-93452753D01*
X163699659Y-93341659D01*
X163727499Y-93307736D01*
X164166280Y-92868956D01*
X164196665Y-92875000D01*
X164479335Y-92875000D01*
X164756574Y-92819853D01*
X165017727Y-92711680D01*
X165252759Y-92554637D01*
X165452637Y-92354759D01*
X165609680Y-92119727D01*
X165717853Y-91858574D01*
X165773000Y-91581335D01*
X165773000Y-91298665D01*
X165717853Y-91021426D01*
X165609680Y-90760273D01*
X165452637Y-90525241D01*
X165252759Y-90325363D01*
X165227000Y-90308151D01*
X165227000Y-88761849D01*
X165252759Y-88744637D01*
X165452637Y-88544759D01*
X165469849Y-88519000D01*
X165818333Y-88519000D01*
X165862000Y-88523301D01*
X165905667Y-88519000D01*
X166036274Y-88506136D01*
X166203851Y-88455303D01*
X166358291Y-88372753D01*
X166493659Y-88261659D01*
X166604753Y-88126291D01*
X166687303Y-87971851D01*
X166738136Y-87804274D01*
X166755301Y-87630000D01*
X166751000Y-87586333D01*
X166751000Y-52474338D01*
X166755300Y-52430678D01*
X166751000Y-52387018D01*
X166751000Y-52387011D01*
X166738136Y-52256404D01*
X166734457Y-52244274D01*
X166687303Y-52088828D01*
X166687303Y-52088827D01*
X166604753Y-51934387D01*
X166493659Y-51799019D01*
X166459737Y-51771180D01*
X166160821Y-51472264D01*
X166132981Y-51438341D01*
X165997613Y-51327247D01*
X165843173Y-51244697D01*
X165675596Y-51193864D01*
X165544989Y-51181000D01*
X165544982Y-51181000D01*
X165501322Y-51176700D01*
X165457662Y-51181000D01*
X161835903Y-51181000D01*
X162045827Y-50866827D01*
X162218150Y-50450802D01*
X162306000Y-50009151D01*
X162306000Y-49558849D01*
X162218150Y-49117198D01*
X162045827Y-48701173D01*
X161795652Y-48326760D01*
X161477240Y-48008348D01*
X161102827Y-47758173D01*
X160686802Y-47585850D01*
X160245151Y-47498000D01*
X159794849Y-47498000D01*
X159353198Y-47585850D01*
X158937173Y-47758173D01*
X158562760Y-48008348D01*
X158244348Y-48326760D01*
X157994173Y-48701173D01*
X157821850Y-49117198D01*
X157734000Y-49558849D01*
X157734000Y-50009151D01*
X157821850Y-50450802D01*
X157994173Y-50866827D01*
X158204097Y-51181000D01*
X143553660Y-51181000D01*
X143510000Y-51176700D01*
X143466340Y-51181000D01*
X143466333Y-51181000D01*
X143352325Y-51192229D01*
X143335725Y-51193864D01*
X143284892Y-51209284D01*
X143168149Y-51244697D01*
X143013709Y-51327247D01*
X142878341Y-51438341D01*
X142850506Y-51472258D01*
X141134259Y-53188506D01*
X141100342Y-53216341D01*
X141072507Y-53250258D01*
X141072505Y-53250260D01*
X140989248Y-53351709D01*
X140906698Y-53506148D01*
X140855864Y-53673726D01*
X140838700Y-53848000D01*
X140843001Y-53891670D01*
X140843000Y-65207854D01*
X140841465Y-65208880D01*
X140646880Y-65403465D01*
X140493995Y-65632273D01*
X140462000Y-65709515D01*
X140430005Y-65632273D01*
X140277120Y-65403465D01*
X140082535Y-65208880D01*
X139853727Y-65055995D01*
X139599490Y-64950686D01*
X139329592Y-64897000D01*
X139054408Y-64897000D01*
X138784510Y-64950686D01*
X138530273Y-65055995D01*
X138301465Y-65208880D01*
X138106880Y-65403465D01*
X137953995Y-65632273D01*
X137922000Y-65709515D01*
X137890005Y-65632273D01*
X137737120Y-65403465D01*
X137542535Y-65208880D01*
X137313727Y-65055995D01*
X137059490Y-64950686D01*
X136789592Y-64897000D01*
X136514408Y-64897000D01*
X136244510Y-64950686D01*
X135990273Y-65055995D01*
X135761465Y-65208880D01*
X135566880Y-65403465D01*
X135413995Y-65632273D01*
X135382000Y-65709515D01*
X135350005Y-65632273D01*
X135197120Y-65403465D01*
X135002535Y-65208880D01*
X134773727Y-65055995D01*
X134519490Y-64950686D01*
X134249592Y-64897000D01*
X133974408Y-64897000D01*
X133704510Y-64950686D01*
X133450273Y-65055995D01*
X133221465Y-65208880D01*
X133026880Y-65403465D01*
X132873995Y-65632273D01*
X132842000Y-65709515D01*
X132810005Y-65632273D01*
X132657120Y-65403465D01*
X132462535Y-65208880D01*
X132233727Y-65055995D01*
X131979490Y-64950686D01*
X131709592Y-64897000D01*
X131434408Y-64897000D01*
X131164510Y-64950686D01*
X130910273Y-65055995D01*
X130681465Y-65208880D01*
X130486880Y-65403465D01*
X130333995Y-65632273D01*
X130302000Y-65709515D01*
X130270005Y-65632273D01*
X130117120Y-65403465D01*
X129922535Y-65208880D01*
X129693727Y-65055995D01*
X129439490Y-64950686D01*
X129169592Y-64897000D01*
X128894408Y-64897000D01*
X128624510Y-64950686D01*
X128370273Y-65055995D01*
X128141465Y-65208880D01*
X127946880Y-65403465D01*
X127793995Y-65632273D01*
X127688686Y-65886510D01*
X127635000Y-66156408D01*
X126390000Y-66156408D01*
X126390000Y-63674222D01*
X126952000Y-63674222D01*
X126952000Y-63833778D01*
X126983128Y-63990268D01*
X127044188Y-64137679D01*
X127132832Y-64270345D01*
X127245655Y-64383168D01*
X127378321Y-64471812D01*
X127525732Y-64532872D01*
X127682222Y-64564000D01*
X127841778Y-64564000D01*
X127998268Y-64532872D01*
X128145679Y-64471812D01*
X128278345Y-64383168D01*
X128391168Y-64270345D01*
X128479812Y-64137679D01*
X128540872Y-63990268D01*
X128572000Y-63833778D01*
X128572000Y-63674222D01*
X128540872Y-63517732D01*
X128479812Y-63370321D01*
X128391168Y-63237655D01*
X128278345Y-63124832D01*
X128145679Y-63036188D01*
X127998268Y-62975128D01*
X127841778Y-62944000D01*
X127682222Y-62944000D01*
X127525732Y-62975128D01*
X127378321Y-63036188D01*
X127245655Y-63124832D01*
X127132832Y-63237655D01*
X127044188Y-63370321D01*
X126983128Y-63517732D01*
X126952000Y-63674222D01*
X126390000Y-63674222D01*
X126390000Y-44175701D01*
X144535000Y-44175701D01*
X144535000Y-44724299D01*
X144642026Y-45262354D01*
X144851965Y-45769192D01*
X145156750Y-46225334D01*
X145544666Y-46613250D01*
X146000808Y-46918035D01*
X146507646Y-47127974D01*
X147045701Y-47235000D01*
X147594299Y-47235000D01*
X148132354Y-47127974D01*
X148639192Y-46918035D01*
X149095334Y-46613250D01*
X149483250Y-46225334D01*
X149788035Y-45769192D01*
X149997974Y-45262354D01*
X150105000Y-44724299D01*
X150105000Y-44175701D01*
X149997974Y-43637646D01*
X149788035Y-43130808D01*
X149483250Y-42674666D01*
X149095334Y-42286750D01*
X148639192Y-41981965D01*
X148132354Y-41772026D01*
X147594299Y-41665000D01*
X147045701Y-41665000D01*
X146507646Y-41772026D01*
X146000808Y-41981965D01*
X145544666Y-42286750D01*
X145156750Y-42674666D01*
X144851965Y-43130808D01*
X144642026Y-43637646D01*
X144535000Y-44175701D01*
X126390000Y-44175701D01*
X126390000Y-40538000D01*
X168250000Y-40538000D01*
X168250001Y-128372000D01*
G04 #@! TA.AperFunction,Conductor*
D25*
G36*
X168250001Y-128372000D02*
G01*
X126390000Y-128372000D01*
X126390000Y-124349789D01*
X135925817Y-124349789D01*
X136068668Y-124654155D01*
X136424833Y-124834049D01*
X136809250Y-124941003D01*
X137207146Y-124970905D01*
X137603230Y-124922607D01*
X137982281Y-124797964D01*
X138251332Y-124654155D01*
X138394183Y-124349789D01*
X138230096Y-124185701D01*
X144535000Y-124185701D01*
X144535000Y-124734299D01*
X144642026Y-125272354D01*
X144851965Y-125779192D01*
X145156750Y-126235334D01*
X145544666Y-126623250D01*
X146000808Y-126928035D01*
X146507646Y-127137974D01*
X147045701Y-127245000D01*
X147594299Y-127245000D01*
X148132354Y-127137974D01*
X148639192Y-126928035D01*
X149095334Y-126623250D01*
X149483250Y-126235334D01*
X149788035Y-125779192D01*
X149997974Y-125272354D01*
X150105000Y-124734299D01*
X150105000Y-124349789D01*
X160055817Y-124349789D01*
X160198668Y-124654155D01*
X160554833Y-124834049D01*
X160939250Y-124941003D01*
X161337146Y-124970905D01*
X161733230Y-124922607D01*
X162112281Y-124797964D01*
X162381332Y-124654155D01*
X162524183Y-124349789D01*
X161290000Y-123115605D01*
X160055817Y-124349789D01*
X150105000Y-124349789D01*
X150105000Y-124185701D01*
X149997974Y-123647646D01*
X149788035Y-123140808D01*
X149682689Y-122983146D01*
X159255095Y-122983146D01*
X159303393Y-123379230D01*
X159428036Y-123758281D01*
X159571845Y-124027332D01*
X159876211Y-124170183D01*
X161110395Y-122936000D01*
X161469605Y-122936000D01*
X162703789Y-124170183D01*
X163008155Y-124027332D01*
X163188049Y-123671167D01*
X163295003Y-123286750D01*
X163324905Y-122888854D01*
X163276607Y-122492770D01*
X163151964Y-122113719D01*
X163008155Y-121844668D01*
X162703789Y-121701817D01*
X161469605Y-122936000D01*
X161110395Y-122936000D01*
X159876211Y-121701817D01*
X159571845Y-121844668D01*
X159391951Y-122200833D01*
X159284997Y-122585250D01*
X159255095Y-122983146D01*
X149682689Y-122983146D01*
X149483250Y-122684666D01*
X149095334Y-122296750D01*
X148639192Y-121991965D01*
X148132354Y-121782026D01*
X147594299Y-121675000D01*
X147045701Y-121675000D01*
X146507646Y-121782026D01*
X146000808Y-121991965D01*
X145544666Y-122296750D01*
X145156750Y-122684666D01*
X144851965Y-123140808D01*
X144642026Y-123647646D01*
X144535000Y-124185701D01*
X138230096Y-124185701D01*
X137160000Y-123115605D01*
X135925817Y-124349789D01*
X126390000Y-124349789D01*
X126390000Y-122983146D01*
X135125095Y-122983146D01*
X135173393Y-123379230D01*
X135298036Y-123758281D01*
X135441845Y-124027332D01*
X135746211Y-124170183D01*
X136980395Y-122936000D01*
X137339605Y-122936000D01*
X138573789Y-124170183D01*
X138878155Y-124027332D01*
X139058049Y-123671167D01*
X139165003Y-123286750D01*
X139194905Y-122888854D01*
X139146607Y-122492770D01*
X139021964Y-122113719D01*
X138878155Y-121844668D01*
X138573789Y-121701817D01*
X137339605Y-122936000D01*
X136980395Y-122936000D01*
X135746211Y-121701817D01*
X135441845Y-121844668D01*
X135261951Y-122200833D01*
X135154997Y-122585250D01*
X135125095Y-122983146D01*
X126390000Y-122983146D01*
X126390000Y-121522211D01*
X135925817Y-121522211D01*
X137160000Y-122756395D01*
X138394183Y-121522211D01*
X160055817Y-121522211D01*
X161290000Y-122756395D01*
X162524183Y-121522211D01*
X162381332Y-121217845D01*
X162025167Y-121037951D01*
X161640750Y-120930997D01*
X161242854Y-120901095D01*
X160846770Y-120949393D01*
X160467719Y-121074036D01*
X160198668Y-121217845D01*
X160055817Y-121522211D01*
X138394183Y-121522211D01*
X138251332Y-121217845D01*
X137895167Y-121037951D01*
X137510750Y-120930997D01*
X137112854Y-120901095D01*
X136716770Y-120949393D01*
X136337719Y-121074036D01*
X136068668Y-121217845D01*
X135925817Y-121522211D01*
X126390000Y-121522211D01*
X126390000Y-120345565D01*
X130024040Y-120345565D01*
X130091020Y-120585656D01*
X130340048Y-120702756D01*
X130607135Y-120769023D01*
X130882017Y-120781910D01*
X131154133Y-120740922D01*
X131413023Y-120647636D01*
X131528980Y-120585656D01*
X131595960Y-120345565D01*
X130810000Y-119559605D01*
X130024040Y-120345565D01*
X126390000Y-120345565D01*
X126390000Y-119452017D01*
X129408090Y-119452017D01*
X129449078Y-119724133D01*
X129542364Y-119983023D01*
X129604344Y-120098980D01*
X129844435Y-120165960D01*
X130630395Y-119380000D01*
X130989605Y-119380000D01*
X131775565Y-120165960D01*
X132015656Y-120098980D01*
X132132756Y-119849952D01*
X132199023Y-119582865D01*
X132211910Y-119307983D01*
X132170922Y-119035867D01*
X132077636Y-118776977D01*
X132015656Y-118661020D01*
X131775565Y-118594040D01*
X130989605Y-119380000D01*
X130630395Y-119380000D01*
X129844435Y-118594040D01*
X129604344Y-118661020D01*
X129487244Y-118910048D01*
X129420977Y-119177135D01*
X129408090Y-119452017D01*
X126390000Y-119452017D01*
X126390000Y-116702408D01*
X129413000Y-116702408D01*
X129413000Y-116977592D01*
X129466686Y-117247490D01*
X129571995Y-117501727D01*
X129724880Y-117730535D01*
X129919465Y-117925120D01*
X130148273Y-118078005D01*
X130219943Y-118107692D01*
X130206977Y-118112364D01*
X130091020Y-118174344D01*
X130024040Y-118414435D01*
X130810000Y-119200395D01*
X131595960Y-118414435D01*
X131528980Y-118174344D01*
X131393240Y-118110515D01*
X131471727Y-118078005D01*
X131700535Y-117925120D01*
X131895120Y-117730535D01*
X132048005Y-117501727D01*
X132153314Y-117247490D01*
X132207000Y-116977592D01*
X132207000Y-116702408D01*
X132153314Y-116432510D01*
X132048005Y-116178273D01*
X131895120Y-115949465D01*
X131700535Y-115754880D01*
X131505395Y-115624491D01*
X135134350Y-115624491D01*
X135134350Y-116023509D01*
X135212195Y-116414860D01*
X135364892Y-116783505D01*
X135586575Y-117115276D01*
X135868724Y-117397425D01*
X136200495Y-117619108D01*
X136569140Y-117771805D01*
X136960491Y-117849650D01*
X137359509Y-117849650D01*
X137750860Y-117771805D01*
X138119505Y-117619108D01*
X138451276Y-117397425D01*
X138733425Y-117115276D01*
X138955108Y-116783505D01*
X139107805Y-116414860D01*
X139185650Y-116023509D01*
X139185650Y-115624491D01*
X139107805Y-115233140D01*
X138955108Y-114864495D01*
X138733425Y-114532724D01*
X138451276Y-114250575D01*
X138119505Y-114028892D01*
X137750860Y-113876195D01*
X137359509Y-113798350D01*
X136960491Y-113798350D01*
X136569140Y-113876195D01*
X136200495Y-114028892D01*
X135868724Y-114250575D01*
X135586575Y-114532724D01*
X135364892Y-114864495D01*
X135212195Y-115233140D01*
X135134350Y-115624491D01*
X131505395Y-115624491D01*
X131471727Y-115601995D01*
X131400057Y-115572308D01*
X131413023Y-115567636D01*
X131528980Y-115505656D01*
X131595960Y-115265565D01*
X130810000Y-114479605D01*
X130024040Y-115265565D01*
X130091020Y-115505656D01*
X130226760Y-115569485D01*
X130148273Y-115601995D01*
X129919465Y-115754880D01*
X129724880Y-115949465D01*
X129571995Y-116178273D01*
X129466686Y-116432510D01*
X129413000Y-116702408D01*
X126390000Y-116702408D01*
X126390000Y-114372017D01*
X129408090Y-114372017D01*
X129449078Y-114644133D01*
X129542364Y-114903023D01*
X129604344Y-115018980D01*
X129844435Y-115085960D01*
X130630395Y-114300000D01*
X130989605Y-114300000D01*
X131775565Y-115085960D01*
X132015656Y-115018980D01*
X132132756Y-114769952D01*
X132199023Y-114502865D01*
X132211910Y-114227983D01*
X132170922Y-113955867D01*
X132077636Y-113696977D01*
X132015656Y-113581020D01*
X131775565Y-113514040D01*
X130989605Y-114300000D01*
X130630395Y-114300000D01*
X129844435Y-113514040D01*
X129604344Y-113581020D01*
X129487244Y-113830048D01*
X129420977Y-114097135D01*
X129408090Y-114372017D01*
X126390000Y-114372017D01*
X126390000Y-66156408D01*
X127635000Y-66156408D01*
X127635000Y-66431592D01*
X127688686Y-66701490D01*
X127793995Y-66955727D01*
X127946880Y-67184535D01*
X128141465Y-67379120D01*
X128370273Y-67532005D01*
X128624510Y-67637314D01*
X128894408Y-67691000D01*
X129097370Y-67691000D01*
X128570439Y-68217931D01*
X128541369Y-68241788D01*
X128517512Y-68270858D01*
X128517511Y-68270859D01*
X128446145Y-68357818D01*
X128375389Y-68490195D01*
X128331817Y-68633832D01*
X128317104Y-68783210D01*
X128320791Y-68820643D01*
X128320790Y-97295367D01*
X128317104Y-97332790D01*
X128320790Y-97370213D01*
X128320790Y-97370215D01*
X128331816Y-97482167D01*
X128375388Y-97625804D01*
X128395270Y-97663000D01*
X128446145Y-97758182D01*
X128485773Y-97806468D01*
X128541368Y-97874212D01*
X128570444Y-97898074D01*
X129443159Y-98770789D01*
X129413000Y-98922408D01*
X129413000Y-99197592D01*
X129466686Y-99467490D01*
X129571995Y-99721727D01*
X129724880Y-99950535D01*
X129919465Y-100145120D01*
X130148273Y-100298005D01*
X130225515Y-100330000D01*
X130148273Y-100361995D01*
X129919465Y-100514880D01*
X129724880Y-100709465D01*
X129571995Y-100938273D01*
X129466686Y-101192510D01*
X129413000Y-101462408D01*
X129413000Y-101737592D01*
X129466686Y-102007490D01*
X129571995Y-102261727D01*
X129724880Y-102490535D01*
X129919465Y-102685120D01*
X130148273Y-102838005D01*
X130225515Y-102870000D01*
X130148273Y-102901995D01*
X129919465Y-103054880D01*
X129724880Y-103249465D01*
X129571995Y-103478273D01*
X129466686Y-103732510D01*
X129413000Y-104002408D01*
X129413000Y-104277592D01*
X129466686Y-104547490D01*
X129571995Y-104801727D01*
X129724880Y-105030535D01*
X129919465Y-105225120D01*
X130148273Y-105378005D01*
X130225515Y-105410000D01*
X130148273Y-105441995D01*
X129919465Y-105594880D01*
X129724880Y-105789465D01*
X129571995Y-106018273D01*
X129466686Y-106272510D01*
X129413000Y-106542408D01*
X129413000Y-106817592D01*
X129466686Y-107087490D01*
X129571995Y-107341727D01*
X129724880Y-107570535D01*
X129919465Y-107765120D01*
X130148273Y-107918005D01*
X130225515Y-107950000D01*
X130148273Y-107981995D01*
X129919465Y-108134880D01*
X129724880Y-108329465D01*
X129571995Y-108558273D01*
X129466686Y-108812510D01*
X129413000Y-109082408D01*
X129413000Y-109357592D01*
X129466686Y-109627490D01*
X129571995Y-109881727D01*
X129724880Y-110110535D01*
X129919465Y-110305120D01*
X130148273Y-110458005D01*
X130225515Y-110490000D01*
X130148273Y-110521995D01*
X129919465Y-110674880D01*
X129724880Y-110869465D01*
X129571995Y-111098273D01*
X129466686Y-111352510D01*
X129413000Y-111622408D01*
X129413000Y-111897592D01*
X129466686Y-112167490D01*
X129571995Y-112421727D01*
X129724880Y-112650535D01*
X129919465Y-112845120D01*
X130148273Y-112998005D01*
X130219943Y-113027692D01*
X130206977Y-113032364D01*
X130091020Y-113094344D01*
X130024040Y-113334435D01*
X130810000Y-114120395D01*
X131595960Y-113334435D01*
X131528980Y-113094344D01*
X131393240Y-113030515D01*
X131471727Y-112998005D01*
X131700535Y-112845120D01*
X131895120Y-112650535D01*
X132048005Y-112421727D01*
X132153314Y-112167490D01*
X132207000Y-111897592D01*
X132207000Y-111622408D01*
X132153314Y-111352510D01*
X132048005Y-111098273D01*
X131895120Y-110869465D01*
X131700535Y-110674880D01*
X131471727Y-110521995D01*
X131394485Y-110490000D01*
X131471727Y-110458005D01*
X131700535Y-110305120D01*
X131895120Y-110110535D01*
X132048005Y-109881727D01*
X132153314Y-109627490D01*
X132207000Y-109357592D01*
X132207000Y-109082408D01*
X132153314Y-108812510D01*
X132048005Y-108558273D01*
X131895120Y-108329465D01*
X131700535Y-108134880D01*
X131471727Y-107981995D01*
X131394485Y-107950000D01*
X131471727Y-107918005D01*
X131700535Y-107765120D01*
X131895120Y-107570535D01*
X132048005Y-107341727D01*
X132153314Y-107087490D01*
X132207000Y-106817592D01*
X132207000Y-106579933D01*
X146304000Y-106579933D01*
X146304000Y-106780067D01*
X146343044Y-106976356D01*
X146419632Y-107161256D01*
X146530821Y-107327662D01*
X146672338Y-107469179D01*
X146838744Y-107580368D01*
X147023644Y-107656956D01*
X147219933Y-107696000D01*
X147420067Y-107696000D01*
X147616356Y-107656956D01*
X147801256Y-107580368D01*
X147967662Y-107469179D01*
X147994841Y-107442000D01*
X149185159Y-107442000D01*
X149212338Y-107469179D01*
X149378744Y-107580368D01*
X149563644Y-107656956D01*
X149759933Y-107696000D01*
X149960067Y-107696000D01*
X150156356Y-107656956D01*
X150341256Y-107580368D01*
X150507662Y-107469179D01*
X150649179Y-107327662D01*
X150760368Y-107161256D01*
X150836956Y-106976356D01*
X150876000Y-106780067D01*
X150876000Y-106579933D01*
X150836956Y-106383644D01*
X150760368Y-106198744D01*
X150649179Y-106032338D01*
X150507662Y-105890821D01*
X150341256Y-105779632D01*
X150156356Y-105703044D01*
X149960067Y-105664000D01*
X149759933Y-105664000D01*
X149563644Y-105703044D01*
X149378744Y-105779632D01*
X149212338Y-105890821D01*
X149185159Y-105918000D01*
X147994841Y-105918000D01*
X147967662Y-105890821D01*
X147801256Y-105779632D01*
X147616356Y-105703044D01*
X147420067Y-105664000D01*
X147219933Y-105664000D01*
X147023644Y-105703044D01*
X146838744Y-105779632D01*
X146672338Y-105890821D01*
X146530821Y-106032338D01*
X146419632Y-106198744D01*
X146343044Y-106383644D01*
X146304000Y-106579933D01*
X132207000Y-106579933D01*
X132207000Y-106542408D01*
X132153314Y-106272510D01*
X132048005Y-106018273D01*
X131895120Y-105789465D01*
X131700535Y-105594880D01*
X131471727Y-105441995D01*
X131394485Y-105410000D01*
X131471727Y-105378005D01*
X131700535Y-105225120D01*
X131895120Y-105030535D01*
X131896146Y-105029000D01*
X149107731Y-105029000D01*
X149124744Y-105040368D01*
X149309644Y-105116956D01*
X149505933Y-105156000D01*
X149706067Y-105156000D01*
X149902356Y-105116956D01*
X150087256Y-105040368D01*
X150253662Y-104929179D01*
X150395179Y-104787662D01*
X150506368Y-104621256D01*
X150582956Y-104436356D01*
X150622000Y-104240067D01*
X150622000Y-104039933D01*
X150582956Y-103843644D01*
X150506368Y-103658744D01*
X150395179Y-103492338D01*
X150253662Y-103350821D01*
X150087256Y-103239632D01*
X149902356Y-103163044D01*
X149706067Y-103124000D01*
X149505933Y-103124000D01*
X149309644Y-103163044D01*
X149124744Y-103239632D01*
X149107731Y-103251000D01*
X131896146Y-103251000D01*
X131895120Y-103249465D01*
X131700535Y-103054880D01*
X131471727Y-102901995D01*
X131394485Y-102870000D01*
X131471727Y-102838005D01*
X131700535Y-102685120D01*
X131895120Y-102490535D01*
X132048005Y-102261727D01*
X132153314Y-102007490D01*
X132207000Y-101737592D01*
X132207000Y-101462408D01*
X132153314Y-101192510D01*
X132048005Y-100938273D01*
X131895120Y-100709465D01*
X131700535Y-100514880D01*
X131471727Y-100361995D01*
X131394485Y-100330000D01*
X131471727Y-100298005D01*
X131700535Y-100145120D01*
X131895120Y-99950535D01*
X132048005Y-99721727D01*
X132153314Y-99467490D01*
X132207000Y-99197592D01*
X132207000Y-98922408D01*
X132153314Y-98652510D01*
X132048005Y-98398273D01*
X131895120Y-98169465D01*
X131700535Y-97974880D01*
X131471727Y-97821995D01*
X131394485Y-97790000D01*
X131471727Y-97758005D01*
X131700535Y-97605120D01*
X131895120Y-97410535D01*
X132048005Y-97181727D01*
X132153314Y-96927490D01*
X132207000Y-96657592D01*
X132207000Y-96382408D01*
X132153314Y-96112510D01*
X132048005Y-95858273D01*
X131895120Y-95629465D01*
X131700535Y-95434880D01*
X131471727Y-95281995D01*
X131394485Y-95250000D01*
X131471727Y-95218005D01*
X131700535Y-95065120D01*
X131895120Y-94870535D01*
X132048005Y-94641727D01*
X132153314Y-94387490D01*
X132207000Y-94117592D01*
X132207000Y-93842408D01*
X132153314Y-93572510D01*
X132048005Y-93318273D01*
X131895120Y-93089465D01*
X131700535Y-92894880D01*
X131471727Y-92741995D01*
X131394485Y-92710000D01*
X131471727Y-92678005D01*
X131700535Y-92525120D01*
X131895120Y-92330535D01*
X132048005Y-92101727D01*
X132153314Y-91847490D01*
X132207000Y-91577592D01*
X132207000Y-91302408D01*
X132153314Y-91032510D01*
X132048005Y-90778273D01*
X131895120Y-90549465D01*
X131700535Y-90354880D01*
X131471727Y-90201995D01*
X131394485Y-90170000D01*
X131471727Y-90138005D01*
X131700535Y-89985120D01*
X131895120Y-89790535D01*
X132048005Y-89561727D01*
X132153314Y-89307490D01*
X132207000Y-89037592D01*
X132207000Y-88762408D01*
X132153314Y-88492510D01*
X132048005Y-88238273D01*
X131895120Y-88009465D01*
X131700535Y-87814880D01*
X131471727Y-87661995D01*
X131394485Y-87630000D01*
X131471727Y-87598005D01*
X131700535Y-87445120D01*
X131895120Y-87250535D01*
X132048005Y-87021727D01*
X132153314Y-86767490D01*
X132207000Y-86497592D01*
X132207000Y-86222408D01*
X132153314Y-85952510D01*
X132048005Y-85698273D01*
X131895120Y-85469465D01*
X131700535Y-85274880D01*
X131471727Y-85121995D01*
X131394485Y-85090000D01*
X131471727Y-85058005D01*
X131700535Y-84905120D01*
X131895120Y-84710535D01*
X132048005Y-84481727D01*
X132153314Y-84227490D01*
X132207000Y-83957592D01*
X132207000Y-83682408D01*
X132153314Y-83412510D01*
X132048005Y-83158273D01*
X131895120Y-82929465D01*
X131700535Y-82734880D01*
X131471727Y-82581995D01*
X131394485Y-82550000D01*
X131471727Y-82518005D01*
X131700535Y-82365120D01*
X131805111Y-82260544D01*
X150386918Y-100842351D01*
X150410776Y-100871422D01*
X150526806Y-100966645D01*
X150659183Y-101037402D01*
X150802820Y-101080974D01*
X150914772Y-101092000D01*
X150914774Y-101092000D01*
X150952197Y-101095686D01*
X150989620Y-101092000D01*
X151764999Y-101092000D01*
X151765000Y-112357566D01*
X151761313Y-112394999D01*
X151776026Y-112544377D01*
X151819598Y-112688014D01*
X151890354Y-112820391D01*
X151958150Y-112903000D01*
X151985578Y-112936421D01*
X152014648Y-112960278D01*
X152536396Y-113482027D01*
X152431995Y-113638273D01*
X152326686Y-113892510D01*
X152273000Y-114162408D01*
X152273000Y-114437592D01*
X152326686Y-114707490D01*
X152431995Y-114961727D01*
X152584880Y-115190535D01*
X152779465Y-115385120D01*
X153008273Y-115538005D01*
X153085515Y-115570000D01*
X153008273Y-115601995D01*
X152779465Y-115754880D01*
X152584880Y-115949465D01*
X152431995Y-116178273D01*
X152326686Y-116432510D01*
X152273000Y-116702408D01*
X152273000Y-116977592D01*
X152326686Y-117247490D01*
X152431995Y-117501727D01*
X152584880Y-117730535D01*
X152779465Y-117925120D01*
X153008273Y-118078005D01*
X153085515Y-118110000D01*
X153008273Y-118141995D01*
X152779465Y-118294880D01*
X152584880Y-118489465D01*
X152431995Y-118718273D01*
X152326686Y-118972510D01*
X152273000Y-119242408D01*
X152273000Y-119517592D01*
X152326686Y-119787490D01*
X152431995Y-120041727D01*
X152584880Y-120270535D01*
X152779465Y-120465120D01*
X153008273Y-120618005D01*
X153262510Y-120723314D01*
X153532408Y-120777000D01*
X153807592Y-120777000D01*
X154077490Y-120723314D01*
X154331727Y-120618005D01*
X154560535Y-120465120D01*
X154755120Y-120270535D01*
X154908005Y-120041727D01*
X155013314Y-119787490D01*
X155067000Y-119517592D01*
X155067000Y-119242408D01*
X155013314Y-118972510D01*
X154908005Y-118718273D01*
X154755120Y-118489465D01*
X154560535Y-118294880D01*
X154331727Y-118141995D01*
X154254485Y-118110000D01*
X154331727Y-118078005D01*
X154560535Y-117925120D01*
X154755120Y-117730535D01*
X154841005Y-117602000D01*
X156650607Y-117602000D01*
X156688030Y-117605686D01*
X156725453Y-117602000D01*
X156725456Y-117602000D01*
X156837408Y-117590974D01*
X156981045Y-117547402D01*
X157113422Y-117476645D01*
X157229452Y-117381422D01*
X157253314Y-117352346D01*
X159334665Y-115270995D01*
X159264350Y-115624491D01*
X159264350Y-116023509D01*
X159342195Y-116414860D01*
X159494892Y-116783505D01*
X159716575Y-117115276D01*
X159998724Y-117397425D01*
X160330495Y-117619108D01*
X160699140Y-117771805D01*
X161090491Y-117849650D01*
X161489509Y-117849650D01*
X161880860Y-117771805D01*
X162249505Y-117619108D01*
X162581276Y-117397425D01*
X162863425Y-117115276D01*
X163085108Y-116783505D01*
X163237805Y-116414860D01*
X163315650Y-116023509D01*
X163315650Y-115624491D01*
X163237805Y-115233140D01*
X163085108Y-114864495D01*
X162863425Y-114532724D01*
X162581276Y-114250575D01*
X162249505Y-114028892D01*
X161880860Y-113876195D01*
X161489509Y-113798350D01*
X161090491Y-113798350D01*
X160736995Y-113868665D01*
X164253448Y-110352212D01*
X164282523Y-110328351D01*
X164361596Y-110232000D01*
X164377746Y-110212322D01*
X164448502Y-110079945D01*
X164448503Y-110079944D01*
X164492075Y-109936307D01*
X164503101Y-109824355D01*
X164503101Y-109824352D01*
X164506787Y-109786929D01*
X164503101Y-109749506D01*
X164503101Y-102818523D01*
X164506787Y-102781100D01*
X164503101Y-102743675D01*
X164492075Y-102631723D01*
X164448503Y-102488086D01*
X164377746Y-102355709D01*
X164282523Y-102239679D01*
X164253453Y-102215822D01*
X163959243Y-101921612D01*
X163995100Y-101741345D01*
X163995100Y-101458655D01*
X163939950Y-101181397D01*
X163831769Y-100920225D01*
X163674715Y-100685177D01*
X163474823Y-100485285D01*
X163241068Y-100329095D01*
X163301574Y-100296754D01*
X163373169Y-100052774D01*
X162560000Y-99239605D01*
X162545858Y-99253748D01*
X162366253Y-99074143D01*
X162380395Y-99060000D01*
X162739605Y-99060000D01*
X163552774Y-99873169D01*
X163796754Y-99801574D01*
X163917664Y-99546046D01*
X163986400Y-99271839D01*
X164000320Y-98989492D01*
X163958889Y-98709853D01*
X163863700Y-98443672D01*
X163796754Y-98318426D01*
X163552774Y-98246831D01*
X162739605Y-99060000D01*
X162380395Y-99060000D01*
X161567226Y-98246831D01*
X161323246Y-98318426D01*
X161202336Y-98573954D01*
X161133600Y-98848161D01*
X161121957Y-99084326D01*
X158661001Y-96623371D01*
X158661001Y-89356423D01*
X158664687Y-89319000D01*
X158661001Y-89281575D01*
X158649975Y-89169623D01*
X158606403Y-89025986D01*
X158535646Y-88893609D01*
X158440423Y-88777579D01*
X158411353Y-88753722D01*
X157980739Y-88323108D01*
X157989680Y-88309727D01*
X158097853Y-88048574D01*
X158153000Y-87771335D01*
X158153000Y-87488665D01*
X158097853Y-87211426D01*
X157989680Y-86950273D01*
X157832637Y-86715241D01*
X157632759Y-86515363D01*
X157397727Y-86358320D01*
X157136574Y-86250147D01*
X156859335Y-86195000D01*
X156576665Y-86195000D01*
X156299426Y-86250147D01*
X156038273Y-86358320D01*
X155803241Y-86515363D01*
X155603363Y-86715241D01*
X155446320Y-86950273D01*
X155338147Y-87211426D01*
X155283000Y-87488665D01*
X155283000Y-87771335D01*
X155338147Y-88048574D01*
X155446320Y-88309727D01*
X155603363Y-88544759D01*
X155803241Y-88744637D01*
X156038273Y-88901680D01*
X156299426Y-89009853D01*
X156565061Y-89062692D01*
X157137002Y-89634633D01*
X157137002Y-90060324D01*
X157136574Y-90060147D01*
X156859335Y-90005000D01*
X156576665Y-90005000D01*
X156299426Y-90060147D01*
X156038273Y-90168320D01*
X155803241Y-90325363D01*
X155603363Y-90525241D01*
X155446320Y-90760273D01*
X155338147Y-91021426D01*
X155283000Y-91298665D01*
X155283000Y-91581335D01*
X155338147Y-91858574D01*
X155446320Y-92119727D01*
X155603363Y-92354759D01*
X155803241Y-92554637D01*
X155956001Y-92656708D01*
X155956000Y-98260577D01*
X155952314Y-98298000D01*
X155956000Y-98335423D01*
X155956000Y-98335425D01*
X155967026Y-98447377D01*
X156010598Y-98591014D01*
X156010599Y-98591015D01*
X156081355Y-98723392D01*
X156117130Y-98766984D01*
X156176578Y-98839422D01*
X156205654Y-98863284D01*
X161160757Y-103818387D01*
X161124900Y-103998655D01*
X161124900Y-104281345D01*
X161180050Y-104558603D01*
X161288231Y-104819775D01*
X161445285Y-105054823D01*
X161645177Y-105254715D01*
X161877578Y-105410000D01*
X161645177Y-105565285D01*
X161445285Y-105765177D01*
X161343172Y-105918000D01*
X156247422Y-105918000D01*
X156209999Y-105914314D01*
X156172576Y-105918000D01*
X156172574Y-105918000D01*
X156060622Y-105929026D01*
X155916985Y-105972598D01*
X155784608Y-106043355D01*
X155668578Y-106138578D01*
X155644721Y-106167648D01*
X155067000Y-106745369D01*
X155067000Y-106542408D01*
X155013314Y-106272510D01*
X154908005Y-106018273D01*
X154755120Y-105789465D01*
X154560535Y-105594880D01*
X154331727Y-105441995D01*
X154254485Y-105410000D01*
X154331727Y-105378005D01*
X154560535Y-105225120D01*
X154755120Y-105030535D01*
X154908005Y-104801727D01*
X155013314Y-104547490D01*
X155067000Y-104277592D01*
X155067000Y-104002408D01*
X155013314Y-103732510D01*
X154908005Y-103478273D01*
X154755120Y-103249465D01*
X154560535Y-103054880D01*
X154331727Y-102901995D01*
X154254485Y-102870000D01*
X154331727Y-102838005D01*
X154560535Y-102685120D01*
X154755120Y-102490535D01*
X154908005Y-102261727D01*
X155013314Y-102007490D01*
X155067000Y-101737592D01*
X155067000Y-101462408D01*
X155013314Y-101192510D01*
X154908005Y-100938273D01*
X154755120Y-100709465D01*
X154560535Y-100514880D01*
X154331727Y-100361995D01*
X154254485Y-100330000D01*
X154331727Y-100298005D01*
X154560535Y-100145120D01*
X154755120Y-99950535D01*
X154908005Y-99721727D01*
X155013314Y-99467490D01*
X155067000Y-99197592D01*
X155067000Y-98922408D01*
X155013314Y-98652510D01*
X154908005Y-98398273D01*
X154755120Y-98169465D01*
X154560535Y-97974880D01*
X154331727Y-97821995D01*
X154254485Y-97790000D01*
X154331727Y-97758005D01*
X154560535Y-97605120D01*
X154755120Y-97410535D01*
X154908005Y-97181727D01*
X155013314Y-96927490D01*
X155067000Y-96657592D01*
X155067000Y-96382408D01*
X155013314Y-96112510D01*
X154908005Y-95858273D01*
X154755120Y-95629465D01*
X154560535Y-95434880D01*
X154331727Y-95281995D01*
X154254485Y-95250000D01*
X154331727Y-95218005D01*
X154560535Y-95065120D01*
X154755120Y-94870535D01*
X154908005Y-94641727D01*
X155013314Y-94387490D01*
X155067000Y-94117592D01*
X155067000Y-93842408D01*
X155013314Y-93572510D01*
X154908005Y-93318273D01*
X154755120Y-93089465D01*
X154560535Y-92894880D01*
X154331727Y-92741995D01*
X154254485Y-92710000D01*
X154331727Y-92678005D01*
X154560535Y-92525120D01*
X154755120Y-92330535D01*
X154908005Y-92101727D01*
X155013314Y-91847490D01*
X155067000Y-91577592D01*
X155067000Y-91302408D01*
X155013314Y-91032510D01*
X154908005Y-90778273D01*
X154755120Y-90549465D01*
X154560535Y-90354880D01*
X154331727Y-90201995D01*
X154254485Y-90170000D01*
X154331727Y-90138005D01*
X154560535Y-89985120D01*
X154755120Y-89790535D01*
X154908005Y-89561727D01*
X155013314Y-89307490D01*
X155067000Y-89037592D01*
X155067000Y-88762408D01*
X155013314Y-88492510D01*
X154908005Y-88238273D01*
X154755120Y-88009465D01*
X154560535Y-87814880D01*
X154331727Y-87661995D01*
X154254485Y-87630000D01*
X154331727Y-87598005D01*
X154560535Y-87445120D01*
X154755120Y-87250535D01*
X154908005Y-87021727D01*
X155013314Y-86767490D01*
X155067000Y-86497592D01*
X155067000Y-86222408D01*
X155013314Y-85952510D01*
X154908005Y-85698273D01*
X154755120Y-85469465D01*
X154560535Y-85274880D01*
X154331727Y-85121995D01*
X154254485Y-85090000D01*
X154331727Y-85058005D01*
X154560535Y-84905120D01*
X154755120Y-84710535D01*
X154908005Y-84481727D01*
X155013314Y-84227490D01*
X155067000Y-83957592D01*
X155067000Y-83682408D01*
X155066256Y-83678665D01*
X155283000Y-83678665D01*
X155283000Y-83961335D01*
X155338147Y-84238574D01*
X155446320Y-84499727D01*
X155603363Y-84734759D01*
X155803241Y-84934637D01*
X156038273Y-85091680D01*
X156299426Y-85199853D01*
X156576665Y-85255000D01*
X156859335Y-85255000D01*
X157136574Y-85199853D01*
X157397727Y-85091680D01*
X157632759Y-84934637D01*
X157832637Y-84734759D01*
X157989680Y-84499727D01*
X158097853Y-84238574D01*
X158111684Y-84169039D01*
X162946096Y-84169039D01*
X162986754Y-84303087D01*
X163106963Y-84557420D01*
X163274481Y-84783414D01*
X163482869Y-84972385D01*
X163724119Y-85117070D01*
X163988960Y-85211909D01*
X164211000Y-85090624D01*
X164211000Y-83947000D01*
X163068085Y-83947000D01*
X162946096Y-84169039D01*
X158111684Y-84169039D01*
X158153000Y-83961335D01*
X158153000Y-83678665D01*
X158111685Y-83470961D01*
X162946096Y-83470961D01*
X163068085Y-83693000D01*
X164211000Y-83693000D01*
X164211000Y-82549376D01*
X163988960Y-82428091D01*
X163724119Y-82522930D01*
X163482869Y-82667615D01*
X163274481Y-82856586D01*
X163106963Y-83082580D01*
X162986754Y-83336913D01*
X162946096Y-83470961D01*
X158111685Y-83470961D01*
X158097853Y-83401426D01*
X157989680Y-83140273D01*
X157832637Y-82905241D01*
X157632759Y-82705363D01*
X157397727Y-82548320D01*
X157136574Y-82440147D01*
X156859335Y-82385000D01*
X156576665Y-82385000D01*
X156299426Y-82440147D01*
X156038273Y-82548320D01*
X155803241Y-82705363D01*
X155603363Y-82905241D01*
X155446320Y-83140273D01*
X155338147Y-83401426D01*
X155283000Y-83678665D01*
X155066256Y-83678665D01*
X155013314Y-83412510D01*
X154908005Y-83158273D01*
X154755120Y-82929465D01*
X154560535Y-82734880D01*
X154331727Y-82581995D01*
X154254485Y-82550000D01*
X154331727Y-82518005D01*
X154560535Y-82365120D01*
X154755120Y-82170535D01*
X154908005Y-81941727D01*
X155013314Y-81687490D01*
X155067000Y-81417592D01*
X155067000Y-81142408D01*
X155013314Y-80872510D01*
X154908005Y-80618273D01*
X154755120Y-80389465D01*
X154560535Y-80194880D01*
X154331727Y-80041995D01*
X154254485Y-80010000D01*
X154331727Y-79978005D01*
X154560535Y-79825120D01*
X154755120Y-79630535D01*
X154804594Y-79556491D01*
X159264350Y-79556491D01*
X159264350Y-79955509D01*
X159342195Y-80346860D01*
X159494892Y-80715505D01*
X159716575Y-81047276D01*
X159998724Y-81329425D01*
X160330495Y-81551108D01*
X160699140Y-81703805D01*
X161090491Y-81781650D01*
X161489509Y-81781650D01*
X161880860Y-81703805D01*
X162249505Y-81551108D01*
X162581276Y-81329425D01*
X162863425Y-81047276D01*
X163085108Y-80715505D01*
X163237805Y-80346860D01*
X163315650Y-79955509D01*
X163315650Y-79556491D01*
X163237805Y-79165140D01*
X163085108Y-78796495D01*
X162863425Y-78464724D01*
X162581276Y-78182575D01*
X162249505Y-77960892D01*
X161880860Y-77808195D01*
X161489509Y-77730350D01*
X161090491Y-77730350D01*
X160699140Y-77808195D01*
X160330495Y-77960892D01*
X159998724Y-78182575D01*
X159716575Y-78464724D01*
X159494892Y-78796495D01*
X159342195Y-79165140D01*
X159264350Y-79556491D01*
X154804594Y-79556491D01*
X154908005Y-79401727D01*
X155013314Y-79147490D01*
X155067000Y-78877592D01*
X155067000Y-78602408D01*
X155013314Y-78332510D01*
X154908005Y-78078273D01*
X154755120Y-77849465D01*
X154560535Y-77654880D01*
X154331727Y-77501995D01*
X154254485Y-77470000D01*
X154331727Y-77438005D01*
X154560535Y-77285120D01*
X154755120Y-77090535D01*
X154908005Y-76861727D01*
X155013314Y-76607490D01*
X155067000Y-76337592D01*
X155067000Y-76062408D01*
X155013314Y-75792510D01*
X154908005Y-75538273D01*
X154755120Y-75309465D01*
X154560535Y-75114880D01*
X154331727Y-74961995D01*
X154254485Y-74930000D01*
X154331727Y-74898005D01*
X154560535Y-74745120D01*
X154755120Y-74550535D01*
X154908005Y-74321727D01*
X155013314Y-74067490D01*
X155067000Y-73797592D01*
X155067000Y-73522408D01*
X155018583Y-73278999D01*
X159360478Y-73278999D01*
X159494892Y-73603505D01*
X159716575Y-73935276D01*
X159998724Y-74217425D01*
X160330495Y-74439108D01*
X160699140Y-74591805D01*
X161090491Y-74669650D01*
X161489509Y-74669650D01*
X161880860Y-74591805D01*
X162249505Y-74439108D01*
X162581276Y-74217425D01*
X162863425Y-73935276D01*
X163085108Y-73603505D01*
X163237805Y-73234860D01*
X163315650Y-72843509D01*
X163315650Y-72444491D01*
X163237805Y-72053140D01*
X163085108Y-71684495D01*
X162863425Y-71352724D01*
X162581276Y-71070575D01*
X162249505Y-70848892D01*
X161880860Y-70696195D01*
X161489509Y-70618350D01*
X161090491Y-70618350D01*
X160699140Y-70696195D01*
X160330495Y-70848892D01*
X159998724Y-71070575D01*
X159716575Y-71352724D01*
X159617500Y-71500999D01*
X152019000Y-71500999D01*
X152019000Y-66399429D01*
X156006800Y-66399429D01*
X156006800Y-68220572D01*
X156028117Y-68436998D01*
X156112356Y-68714697D01*
X156249153Y-68970626D01*
X156433251Y-69194950D01*
X156657575Y-69379048D01*
X156913504Y-69515845D01*
X157191203Y-69600084D01*
X157480000Y-69628528D01*
X157768798Y-69600084D01*
X158046497Y-69515845D01*
X158302426Y-69379048D01*
X158526750Y-69194950D01*
X158710848Y-68970626D01*
X158750001Y-68897377D01*
X158789153Y-68970626D01*
X158973251Y-69194950D01*
X159197575Y-69379048D01*
X159453504Y-69515845D01*
X159731203Y-69600084D01*
X160020000Y-69628528D01*
X160308798Y-69600084D01*
X160586497Y-69515845D01*
X160842426Y-69379048D01*
X161066750Y-69194950D01*
X161250848Y-68970626D01*
X161290829Y-68895826D01*
X161405637Y-69072263D01*
X161608094Y-69279712D01*
X161847132Y-69443678D01*
X162113565Y-69557859D01*
X162204962Y-69577979D01*
X162433000Y-69456500D01*
X162433000Y-67437000D01*
X162687000Y-67437000D01*
X162687000Y-69456500D01*
X162915038Y-69577979D01*
X163006435Y-69557859D01*
X163272868Y-69443678D01*
X163511906Y-69279712D01*
X163714363Y-69072263D01*
X163872458Y-68829302D01*
X163980116Y-68560167D01*
X164033200Y-68275200D01*
X164033200Y-67437000D01*
X162687000Y-67437000D01*
X162433000Y-67437000D01*
X162413000Y-67437000D01*
X162413000Y-67183000D01*
X162433000Y-67183000D01*
X162433000Y-65163500D01*
X162687000Y-65163500D01*
X162687000Y-67183000D01*
X164033200Y-67183000D01*
X164033200Y-66344800D01*
X163980116Y-66059833D01*
X163872458Y-65790698D01*
X163714363Y-65547737D01*
X163511906Y-65340288D01*
X163272868Y-65176322D01*
X163006435Y-65062141D01*
X162915038Y-65042021D01*
X162687000Y-65163500D01*
X162433000Y-65163500D01*
X162204962Y-65042021D01*
X162113565Y-65062141D01*
X161847132Y-65176322D01*
X161608094Y-65340288D01*
X161405637Y-65547737D01*
X161290829Y-65724174D01*
X161250848Y-65649374D01*
X161066749Y-65425050D01*
X160842425Y-65240952D01*
X160586496Y-65104155D01*
X160308797Y-65019916D01*
X160020000Y-64991472D01*
X159731202Y-65019916D01*
X159453503Y-65104155D01*
X159197574Y-65240952D01*
X158973250Y-65425051D01*
X158789152Y-65649375D01*
X158750000Y-65722623D01*
X158710848Y-65649374D01*
X158526749Y-65425050D01*
X158302425Y-65240952D01*
X158046496Y-65104155D01*
X157768797Y-65019916D01*
X157480000Y-64991472D01*
X157191202Y-65019916D01*
X156913503Y-65104155D01*
X156657574Y-65240952D01*
X156433250Y-65425051D01*
X156249152Y-65649375D01*
X156112355Y-65905304D01*
X156028116Y-66183003D01*
X156006800Y-66399429D01*
X152019000Y-66399429D01*
X152019000Y-55218695D01*
X152036727Y-55206850D01*
X152234850Y-55008727D01*
X152390514Y-54775759D01*
X152497738Y-54516899D01*
X152552400Y-54242094D01*
X152552400Y-53961906D01*
X152497738Y-53687101D01*
X152390514Y-53428241D01*
X152234850Y-53195273D01*
X152036727Y-52997150D01*
X151979631Y-52959000D01*
X164973000Y-52959000D01*
X164973001Y-82535596D01*
X164951881Y-82522930D01*
X164687040Y-82428091D01*
X164465000Y-82549376D01*
X164465000Y-83693000D01*
X164485000Y-83693000D01*
X164485000Y-83947000D01*
X164465000Y-83947000D01*
X164465000Y-85090624D01*
X164687040Y-85211909D01*
X164951881Y-85117070D01*
X164973001Y-85104404D01*
X164973001Y-86339794D01*
X164756574Y-86250147D01*
X164479335Y-86195000D01*
X164196665Y-86195000D01*
X163919426Y-86250147D01*
X163658273Y-86358320D01*
X163423241Y-86515363D01*
X163223363Y-86715241D01*
X163066320Y-86950273D01*
X162958147Y-87211426D01*
X162903000Y-87488665D01*
X162903000Y-87771335D01*
X162958147Y-88048574D01*
X163066320Y-88309727D01*
X163223363Y-88544759D01*
X163423241Y-88744637D01*
X163449000Y-88761849D01*
X163449001Y-90308151D01*
X163423241Y-90325363D01*
X163223363Y-90525241D01*
X163066320Y-90760273D01*
X162958147Y-91021426D01*
X162903000Y-91298665D01*
X162903000Y-91581335D01*
X162909044Y-91611720D01*
X162699765Y-91821000D01*
X162603667Y-91821000D01*
X162560000Y-91816699D01*
X162516333Y-91821000D01*
X162385726Y-91833864D01*
X162218149Y-91884697D01*
X162063709Y-91967247D01*
X161928341Y-92078341D01*
X161817247Y-92213709D01*
X161734697Y-92368149D01*
X161683864Y-92535726D01*
X161666699Y-92710000D01*
X161671001Y-92753677D01*
X161671000Y-95388030D01*
X161645177Y-95405285D01*
X161445285Y-95605177D01*
X161288231Y-95840225D01*
X161180050Y-96101397D01*
X161124900Y-96378655D01*
X161124900Y-96661345D01*
X161180050Y-96938603D01*
X161288231Y-97199775D01*
X161445285Y-97434823D01*
X161645177Y-97634715D01*
X161878932Y-97790905D01*
X161818426Y-97823246D01*
X161746831Y-98067226D01*
X162560000Y-98880395D01*
X163373169Y-98067226D01*
X163301574Y-97823246D01*
X163237256Y-97792812D01*
X163239775Y-97791769D01*
X163474823Y-97634715D01*
X163674715Y-97434823D01*
X163831769Y-97199775D01*
X163939950Y-96938603D01*
X163995100Y-96661345D01*
X163995100Y-96378655D01*
X163939950Y-96101397D01*
X163831769Y-95840225D01*
X163674715Y-95605177D01*
X163474823Y-95405285D01*
X163449000Y-95388031D01*
X163449000Y-93514377D01*
X163564291Y-93452753D01*
X163699659Y-93341659D01*
X163727499Y-93307736D01*
X164166280Y-92868956D01*
X164196665Y-92875000D01*
X164479335Y-92875000D01*
X164756574Y-92819853D01*
X165017727Y-92711680D01*
X165252759Y-92554637D01*
X165452637Y-92354759D01*
X165609680Y-92119727D01*
X165717853Y-91858574D01*
X165773000Y-91581335D01*
X165773000Y-91298665D01*
X165717853Y-91021426D01*
X165609680Y-90760273D01*
X165452637Y-90525241D01*
X165252759Y-90325363D01*
X165227000Y-90308151D01*
X165227000Y-88761849D01*
X165252759Y-88744637D01*
X165452637Y-88544759D01*
X165469849Y-88519000D01*
X165818333Y-88519000D01*
X165862000Y-88523301D01*
X165905667Y-88519000D01*
X166036274Y-88506136D01*
X166203851Y-88455303D01*
X166358291Y-88372753D01*
X166493659Y-88261659D01*
X166604753Y-88126291D01*
X166687303Y-87971851D01*
X166738136Y-87804274D01*
X166755301Y-87630000D01*
X166751000Y-87586333D01*
X166751000Y-52474338D01*
X166755300Y-52430678D01*
X166751000Y-52387018D01*
X166751000Y-52387011D01*
X166738136Y-52256404D01*
X166734457Y-52244274D01*
X166687303Y-52088828D01*
X166687303Y-52088827D01*
X166604753Y-51934387D01*
X166493659Y-51799019D01*
X166459737Y-51771180D01*
X166160821Y-51472264D01*
X166132981Y-51438341D01*
X165997613Y-51327247D01*
X165843173Y-51244697D01*
X165675596Y-51193864D01*
X165544989Y-51181000D01*
X165544982Y-51181000D01*
X165501322Y-51176700D01*
X165457662Y-51181000D01*
X161835903Y-51181000D01*
X162045827Y-50866827D01*
X162218150Y-50450802D01*
X162306000Y-50009151D01*
X162306000Y-49558849D01*
X162218150Y-49117198D01*
X162045827Y-48701173D01*
X161795652Y-48326760D01*
X161477240Y-48008348D01*
X161102827Y-47758173D01*
X160686802Y-47585850D01*
X160245151Y-47498000D01*
X159794849Y-47498000D01*
X159353198Y-47585850D01*
X158937173Y-47758173D01*
X158562760Y-48008348D01*
X158244348Y-48326760D01*
X157994173Y-48701173D01*
X157821850Y-49117198D01*
X157734000Y-49558849D01*
X157734000Y-50009151D01*
X157821850Y-50450802D01*
X157994173Y-50866827D01*
X158204097Y-51181000D01*
X143553660Y-51181000D01*
X143510000Y-51176700D01*
X143466340Y-51181000D01*
X143466333Y-51181000D01*
X143352325Y-51192229D01*
X143335725Y-51193864D01*
X143284892Y-51209284D01*
X143168149Y-51244697D01*
X143013709Y-51327247D01*
X142878341Y-51438341D01*
X142850506Y-51472258D01*
X141134259Y-53188506D01*
X141100342Y-53216341D01*
X141072507Y-53250258D01*
X141072505Y-53250260D01*
X140989248Y-53351709D01*
X140906698Y-53506148D01*
X140855864Y-53673726D01*
X140838700Y-53848000D01*
X140843001Y-53891670D01*
X140843000Y-65207854D01*
X140841465Y-65208880D01*
X140646880Y-65403465D01*
X140493995Y-65632273D01*
X140462000Y-65709515D01*
X140430005Y-65632273D01*
X140277120Y-65403465D01*
X140082535Y-65208880D01*
X139853727Y-65055995D01*
X139599490Y-64950686D01*
X139329592Y-64897000D01*
X139054408Y-64897000D01*
X138784510Y-64950686D01*
X138530273Y-65055995D01*
X138301465Y-65208880D01*
X138106880Y-65403465D01*
X137953995Y-65632273D01*
X137922000Y-65709515D01*
X137890005Y-65632273D01*
X137737120Y-65403465D01*
X137542535Y-65208880D01*
X137313727Y-65055995D01*
X137059490Y-64950686D01*
X136789592Y-64897000D01*
X136514408Y-64897000D01*
X136244510Y-64950686D01*
X135990273Y-65055995D01*
X135761465Y-65208880D01*
X135566880Y-65403465D01*
X135413995Y-65632273D01*
X135382000Y-65709515D01*
X135350005Y-65632273D01*
X135197120Y-65403465D01*
X135002535Y-65208880D01*
X134773727Y-65055995D01*
X134519490Y-64950686D01*
X134249592Y-64897000D01*
X133974408Y-64897000D01*
X133704510Y-64950686D01*
X133450273Y-65055995D01*
X133221465Y-65208880D01*
X133026880Y-65403465D01*
X132873995Y-65632273D01*
X132842000Y-65709515D01*
X132810005Y-65632273D01*
X132657120Y-65403465D01*
X132462535Y-65208880D01*
X132233727Y-65055995D01*
X131979490Y-64950686D01*
X131709592Y-64897000D01*
X131434408Y-64897000D01*
X131164510Y-64950686D01*
X130910273Y-65055995D01*
X130681465Y-65208880D01*
X130486880Y-65403465D01*
X130333995Y-65632273D01*
X130302000Y-65709515D01*
X130270005Y-65632273D01*
X130117120Y-65403465D01*
X129922535Y-65208880D01*
X129693727Y-65055995D01*
X129439490Y-64950686D01*
X129169592Y-64897000D01*
X128894408Y-64897000D01*
X128624510Y-64950686D01*
X128370273Y-65055995D01*
X128141465Y-65208880D01*
X127946880Y-65403465D01*
X127793995Y-65632273D01*
X127688686Y-65886510D01*
X127635000Y-66156408D01*
X126390000Y-66156408D01*
X126390000Y-63674222D01*
X126952000Y-63674222D01*
X126952000Y-63833778D01*
X126983128Y-63990268D01*
X127044188Y-64137679D01*
X127132832Y-64270345D01*
X127245655Y-64383168D01*
X127378321Y-64471812D01*
X127525732Y-64532872D01*
X127682222Y-64564000D01*
X127841778Y-64564000D01*
X127998268Y-64532872D01*
X128145679Y-64471812D01*
X128278345Y-64383168D01*
X128391168Y-64270345D01*
X128479812Y-64137679D01*
X128540872Y-63990268D01*
X128572000Y-63833778D01*
X128572000Y-63674222D01*
X128540872Y-63517732D01*
X128479812Y-63370321D01*
X128391168Y-63237655D01*
X128278345Y-63124832D01*
X128145679Y-63036188D01*
X127998268Y-62975128D01*
X127841778Y-62944000D01*
X127682222Y-62944000D01*
X127525732Y-62975128D01*
X127378321Y-63036188D01*
X127245655Y-63124832D01*
X127132832Y-63237655D01*
X127044188Y-63370321D01*
X126983128Y-63517732D01*
X126952000Y-63674222D01*
X126390000Y-63674222D01*
X126390000Y-44175701D01*
X144535000Y-44175701D01*
X144535000Y-44724299D01*
X144642026Y-45262354D01*
X144851965Y-45769192D01*
X145156750Y-46225334D01*
X145544666Y-46613250D01*
X146000808Y-46918035D01*
X146507646Y-47127974D01*
X147045701Y-47235000D01*
X147594299Y-47235000D01*
X148132354Y-47127974D01*
X148639192Y-46918035D01*
X149095334Y-46613250D01*
X149483250Y-46225334D01*
X149788035Y-45769192D01*
X149997974Y-45262354D01*
X150105000Y-44724299D01*
X150105000Y-44175701D01*
X149997974Y-43637646D01*
X149788035Y-43130808D01*
X149483250Y-42674666D01*
X149095334Y-42286750D01*
X148639192Y-41981965D01*
X148132354Y-41772026D01*
X147594299Y-41665000D01*
X147045701Y-41665000D01*
X146507646Y-41772026D01*
X146000808Y-41981965D01*
X145544666Y-42286750D01*
X145156750Y-42674666D01*
X144851965Y-43130808D01*
X144642026Y-43637646D01*
X144535000Y-44175701D01*
X126390000Y-44175701D01*
X126390000Y-40538000D01*
X168250000Y-40538000D01*
X168250001Y-128372000D01*
G37*
G04 #@! TD.AperFunction*
D24*
X147683273Y-52997150D02*
X147485150Y-53195273D01*
X147329486Y-53428241D01*
X147222262Y-53687101D01*
X147167600Y-53961906D01*
X147167600Y-54242094D01*
X147222262Y-54516899D01*
X147329486Y-54775759D01*
X147485150Y-55008727D01*
X147683273Y-55206850D01*
X147916241Y-55362514D01*
X148175101Y-55469738D01*
X148449906Y-55524400D01*
X148730094Y-55524400D01*
X149004899Y-55469738D01*
X149263759Y-55362514D01*
X149496727Y-55206850D01*
X149694850Y-55008727D01*
X149850514Y-54775759D01*
X149860000Y-54752858D01*
X149869486Y-54775759D01*
X150025150Y-55008727D01*
X150223273Y-55206850D01*
X150241000Y-55218695D01*
X150241001Y-71500999D01*
X138832500Y-71500999D01*
X138733425Y-71352724D01*
X138451276Y-71070575D01*
X138119505Y-70848892D01*
X137750860Y-70696195D01*
X137359509Y-70618350D01*
X136960491Y-70618350D01*
X136569140Y-70696195D01*
X136200495Y-70848892D01*
X135868724Y-71070575D01*
X135586575Y-71352724D01*
X135364892Y-71684495D01*
X135212195Y-72053140D01*
X135134350Y-72444491D01*
X135134350Y-72843509D01*
X135212195Y-73234860D01*
X135364892Y-73603505D01*
X135586575Y-73935276D01*
X135868724Y-74217425D01*
X136200495Y-74439108D01*
X136569140Y-74591805D01*
X136960491Y-74669650D01*
X137359509Y-74669650D01*
X137750860Y-74591805D01*
X138119505Y-74439108D01*
X138451276Y-74217425D01*
X138733425Y-73935276D01*
X138955108Y-73603505D01*
X139089522Y-73278999D01*
X152321417Y-73278999D01*
X152273000Y-73522408D01*
X152273000Y-73797592D01*
X152326686Y-74067490D01*
X152431995Y-74321727D01*
X152584880Y-74550535D01*
X152779465Y-74745120D01*
X153008273Y-74898005D01*
X153085515Y-74930000D01*
X153008273Y-74961995D01*
X152779465Y-75114880D01*
X152584880Y-75309465D01*
X152431995Y-75538273D01*
X152326686Y-75792510D01*
X152273000Y-76062408D01*
X152273000Y-76337592D01*
X152326686Y-76607490D01*
X152431995Y-76861727D01*
X152584880Y-77090535D01*
X152779465Y-77285120D01*
X153008273Y-77438005D01*
X153085515Y-77470000D01*
X153008273Y-77501995D01*
X152779465Y-77654880D01*
X152584880Y-77849465D01*
X152431995Y-78078273D01*
X152326686Y-78332510D01*
X152273000Y-78602408D01*
X152273000Y-78877592D01*
X152326686Y-79147490D01*
X152431995Y-79401727D01*
X152584880Y-79630535D01*
X152779465Y-79825120D01*
X153008273Y-79978005D01*
X153085515Y-80010000D01*
X153008273Y-80041995D01*
X152779465Y-80194880D01*
X152584880Y-80389465D01*
X152431995Y-80618273D01*
X152326686Y-80872510D01*
X152273000Y-81142408D01*
X152273000Y-81417592D01*
X152326686Y-81687490D01*
X152431995Y-81941727D01*
X152584880Y-82170535D01*
X152779465Y-82365120D01*
X153008273Y-82518005D01*
X153085515Y-82550000D01*
X153008273Y-82581995D01*
X152779465Y-82734880D01*
X152584880Y-82929465D01*
X152431995Y-83158273D01*
X152326686Y-83412510D01*
X152273000Y-83682408D01*
X152273000Y-83957592D01*
X152326686Y-84227490D01*
X152431995Y-84481727D01*
X152584880Y-84710535D01*
X152779465Y-84905120D01*
X153008273Y-85058005D01*
X153085515Y-85090000D01*
X153008273Y-85121995D01*
X152779465Y-85274880D01*
X152584880Y-85469465D01*
X152431995Y-85698273D01*
X152326686Y-85952510D01*
X152273000Y-86222408D01*
X152273000Y-86497592D01*
X152326686Y-86767490D01*
X152431995Y-87021727D01*
X152584880Y-87250535D01*
X152779465Y-87445120D01*
X153008273Y-87598005D01*
X153085515Y-87630000D01*
X153008273Y-87661995D01*
X152779465Y-87814880D01*
X152584880Y-88009465D01*
X152431995Y-88238273D01*
X152326686Y-88492510D01*
X152273000Y-88762408D01*
X152273000Y-89037592D01*
X152326686Y-89307490D01*
X152431995Y-89561727D01*
X152584880Y-89790535D01*
X152779465Y-89985120D01*
X153008273Y-90138005D01*
X153085515Y-90170000D01*
X153008273Y-90201995D01*
X152779465Y-90354880D01*
X152584880Y-90549465D01*
X152431995Y-90778273D01*
X152326686Y-91032510D01*
X152273000Y-91302408D01*
X152273000Y-91577592D01*
X152326686Y-91847490D01*
X152431995Y-92101727D01*
X152584880Y-92330535D01*
X152779465Y-92525120D01*
X153008273Y-92678005D01*
X153085515Y-92710000D01*
X153008273Y-92741995D01*
X152779465Y-92894880D01*
X152584880Y-93089465D01*
X152431995Y-93318273D01*
X152326686Y-93572510D01*
X152273000Y-93842408D01*
X152273000Y-94117592D01*
X152326686Y-94387490D01*
X152431995Y-94641727D01*
X152584880Y-94870535D01*
X152779465Y-95065120D01*
X153008273Y-95218005D01*
X153085515Y-95250000D01*
X153008273Y-95281995D01*
X152779465Y-95434880D01*
X152584880Y-95629465D01*
X152431995Y-95858273D01*
X152326686Y-96112510D01*
X152273000Y-96382408D01*
X152273000Y-96657592D01*
X152326686Y-96927490D01*
X152431995Y-97181727D01*
X152584880Y-97410535D01*
X152779465Y-97605120D01*
X153008273Y-97758005D01*
X153085515Y-97790000D01*
X153008273Y-97821995D01*
X152779465Y-97974880D01*
X152584880Y-98169465D01*
X152431995Y-98398273D01*
X152326686Y-98652510D01*
X152273000Y-98922408D01*
X152273000Y-99197592D01*
X152326686Y-99467490D01*
X152368094Y-99567457D01*
X152362577Y-99568000D01*
X151267829Y-99568000D01*
X145936901Y-94237072D01*
X146177000Y-94237072D01*
X146301482Y-94224812D01*
X146421180Y-94188502D01*
X146531494Y-94129537D01*
X146628185Y-94050185D01*
X146707537Y-93953494D01*
X146766502Y-93843180D01*
X146767830Y-93838800D01*
X149926805Y-93838800D01*
X149978369Y-94065946D01*
X150205716Y-94170339D01*
X150449059Y-94228373D01*
X150699049Y-94237818D01*
X150946078Y-94198310D01*
X151180653Y-94111369D01*
X151265631Y-94065946D01*
X151317195Y-93838800D01*
X150622000Y-93143605D01*
X149926805Y-93838800D01*
X146767830Y-93838800D01*
X146802812Y-93723482D01*
X146815072Y-93599000D01*
X146815072Y-93041049D01*
X149348182Y-93041049D01*
X149387690Y-93288078D01*
X149474631Y-93522653D01*
X149520054Y-93607631D01*
X149747200Y-93659195D01*
X150442395Y-92964000D01*
X150801605Y-92964000D01*
X151496800Y-93659195D01*
X151723946Y-93607631D01*
X151828339Y-93380284D01*
X151886373Y-93136941D01*
X151895818Y-92886951D01*
X151856310Y-92639922D01*
X151769369Y-92405347D01*
X151723946Y-92320369D01*
X151496800Y-92268805D01*
X150801605Y-92964000D01*
X150442395Y-92964000D01*
X149747200Y-92268805D01*
X149520054Y-92320369D01*
X149415661Y-92547716D01*
X149357627Y-92791059D01*
X149348182Y-93041049D01*
X146815072Y-93041049D01*
X146815072Y-92329000D01*
X146802812Y-92204518D01*
X146767831Y-92089200D01*
X149926805Y-92089200D01*
X150622000Y-92784395D01*
X151317195Y-92089200D01*
X151265631Y-91862054D01*
X151038284Y-91757661D01*
X150794941Y-91699627D01*
X150544951Y-91690182D01*
X150297922Y-91729690D01*
X150063347Y-91816631D01*
X149978369Y-91862054D01*
X149926805Y-92089200D01*
X146767831Y-92089200D01*
X146766502Y-92084820D01*
X146707537Y-91974506D01*
X146628185Y-91877815D01*
X146531494Y-91798463D01*
X146421180Y-91739498D01*
X146301482Y-91703188D01*
X146177000Y-91690928D01*
X145346559Y-91690928D01*
X143764000Y-90108370D01*
X143764000Y-89608707D01*
X143916759Y-89506637D01*
X144116637Y-89306759D01*
X144218707Y-89154000D01*
X146012577Y-89154000D01*
X146050000Y-89157686D01*
X146087423Y-89154000D01*
X146087426Y-89154000D01*
X146199378Y-89142974D01*
X146343015Y-89099402D01*
X146475392Y-89028645D01*
X146591422Y-88933422D01*
X146615284Y-88904346D01*
X146778591Y-88741039D01*
X149230096Y-88741039D01*
X149270754Y-88875087D01*
X149390963Y-89129420D01*
X149558481Y-89355414D01*
X149766869Y-89544385D01*
X150008119Y-89689070D01*
X150272960Y-89783909D01*
X150495000Y-89662624D01*
X150495000Y-88519000D01*
X150749000Y-88519000D01*
X150749000Y-89662624D01*
X150971040Y-89783909D01*
X151235881Y-89689070D01*
X151477131Y-89544385D01*
X151685519Y-89355414D01*
X151853037Y-89129420D01*
X151973246Y-88875087D01*
X152013904Y-88741039D01*
X151891915Y-88519000D01*
X150749000Y-88519000D01*
X150495000Y-88519000D01*
X149352085Y-88519000D01*
X149230096Y-88741039D01*
X146778591Y-88741039D01*
X147476669Y-88042961D01*
X149230096Y-88042961D01*
X149352085Y-88265000D01*
X150495000Y-88265000D01*
X150495000Y-87121376D01*
X150749000Y-87121376D01*
X150749000Y-88265000D01*
X151891915Y-88265000D01*
X152013904Y-88042961D01*
X151973246Y-87908913D01*
X151853037Y-87654580D01*
X151685519Y-87428586D01*
X151477131Y-87239615D01*
X151235881Y-87094930D01*
X150971040Y-87000091D01*
X150749000Y-87121376D01*
X150495000Y-87121376D01*
X150272960Y-87000091D01*
X150008119Y-87094930D01*
X149766869Y-87239615D01*
X149558481Y-87428586D01*
X149390963Y-87654580D01*
X149270754Y-87908913D01*
X149230096Y-88042961D01*
X147476669Y-88042961D01*
X150300474Y-85219157D01*
X150480665Y-85255000D01*
X150763335Y-85255000D01*
X151040574Y-85199853D01*
X151301727Y-85091680D01*
X151536759Y-84934637D01*
X151736637Y-84734759D01*
X151893680Y-84499727D01*
X152001853Y-84238574D01*
X152057000Y-83961335D01*
X152057000Y-83678665D01*
X152001853Y-83401426D01*
X151893680Y-83140273D01*
X151736637Y-82905241D01*
X151536759Y-82705363D01*
X151301727Y-82548320D01*
X151040574Y-82440147D01*
X150763335Y-82385000D01*
X150480665Y-82385000D01*
X150203426Y-82440147D01*
X149942273Y-82548320D01*
X149707241Y-82705363D01*
X149507363Y-82905241D01*
X149350320Y-83140273D01*
X149242147Y-83401426D01*
X149187000Y-83678665D01*
X149187000Y-83961335D01*
X149222843Y-84141526D01*
X145734370Y-87630000D01*
X144218707Y-87630000D01*
X144116637Y-87477241D01*
X143916759Y-87277363D01*
X143681727Y-87120320D01*
X143420574Y-87012147D01*
X143143335Y-86957000D01*
X142860665Y-86957000D01*
X142680474Y-86992843D01*
X139366296Y-83678665D01*
X141567000Y-83678665D01*
X141567000Y-83961335D01*
X141622147Y-84238574D01*
X141730320Y-84499727D01*
X141887363Y-84734759D01*
X142087241Y-84934637D01*
X142322273Y-85091680D01*
X142583426Y-85199853D01*
X142860665Y-85255000D01*
X143143335Y-85255000D01*
X143420574Y-85199853D01*
X143681727Y-85091680D01*
X143916759Y-84934637D01*
X144116637Y-84734759D01*
X144273680Y-84499727D01*
X144381853Y-84238574D01*
X144437000Y-83961335D01*
X144437000Y-83678665D01*
X144381853Y-83401426D01*
X144273680Y-83140273D01*
X144116637Y-82905241D01*
X143916759Y-82705363D01*
X143681727Y-82548320D01*
X143420574Y-82440147D01*
X143143335Y-82385000D01*
X142860665Y-82385000D01*
X142583426Y-82440147D01*
X142322273Y-82548320D01*
X142087241Y-82705363D01*
X141887363Y-82905241D01*
X141730320Y-83140273D01*
X141622147Y-83401426D01*
X141567000Y-83678665D01*
X139366296Y-83678665D01*
X137451068Y-81763438D01*
X137750860Y-81703805D01*
X138119505Y-81551108D01*
X138451276Y-81329425D01*
X138733425Y-81047276D01*
X138955108Y-80715505D01*
X139107805Y-80346860D01*
X139185650Y-79955509D01*
X139185650Y-79556491D01*
X139107805Y-79165140D01*
X138955108Y-78796495D01*
X138733425Y-78464724D01*
X138451276Y-78182575D01*
X138119505Y-77960892D01*
X137750860Y-77808195D01*
X137359509Y-77730350D01*
X136960491Y-77730350D01*
X136569140Y-77808195D01*
X136200495Y-77960892D01*
X135868724Y-78182575D01*
X135586575Y-78464724D01*
X135364892Y-78796495D01*
X135212195Y-79165140D01*
X135152562Y-79464932D01*
X132772283Y-77084653D01*
X132748421Y-77055577D01*
X132632391Y-76960354D01*
X132500014Y-76889597D01*
X132356377Y-76846025D01*
X132244425Y-76834999D01*
X132244422Y-76834999D01*
X132206999Y-76831313D01*
X132169576Y-76834999D01*
X132059076Y-76834999D01*
X132153314Y-76607490D01*
X132207000Y-76337592D01*
X132207000Y-76062408D01*
X132153314Y-75792510D01*
X132048005Y-75538273D01*
X131895120Y-75309465D01*
X131700535Y-75114880D01*
X131471727Y-74961995D01*
X131400057Y-74932308D01*
X131413023Y-74927636D01*
X131528980Y-74865656D01*
X131595960Y-74625565D01*
X130810000Y-73839605D01*
X130795858Y-73853748D01*
X130616253Y-73674143D01*
X130630395Y-73660000D01*
X130989605Y-73660000D01*
X131775565Y-74445960D01*
X132015656Y-74378980D01*
X132132756Y-74129952D01*
X132199023Y-73862865D01*
X132211910Y-73587983D01*
X132170922Y-73315867D01*
X132077636Y-73056977D01*
X132015656Y-72941020D01*
X131775565Y-72874040D01*
X130989605Y-73660000D01*
X130630395Y-73660000D01*
X130616253Y-73645858D01*
X130795858Y-73466253D01*
X130810000Y-73480395D01*
X131595960Y-72694435D01*
X131528980Y-72454344D01*
X131279952Y-72337244D01*
X131012865Y-72270977D01*
X130737983Y-72258090D01*
X130465867Y-72299078D01*
X130206977Y-72392364D01*
X130091020Y-72454344D01*
X130024041Y-72694433D01*
X129907631Y-72578023D01*
X129844790Y-72640864D01*
X129844790Y-69098840D01*
X131282789Y-67660841D01*
X131434408Y-67691000D01*
X131709592Y-67691000D01*
X131979490Y-67637314D01*
X132233727Y-67532005D01*
X132462535Y-67379120D01*
X132657120Y-67184535D01*
X132810005Y-66955727D01*
X132842000Y-66878485D01*
X132873995Y-66955727D01*
X133026880Y-67184535D01*
X133221465Y-67379120D01*
X133450273Y-67532005D01*
X133704510Y-67637314D01*
X133974408Y-67691000D01*
X134249592Y-67691000D01*
X134519490Y-67637314D01*
X134773727Y-67532005D01*
X135002535Y-67379120D01*
X135197120Y-67184535D01*
X135350005Y-66955727D01*
X135382000Y-66878485D01*
X135413995Y-66955727D01*
X135566880Y-67184535D01*
X135761465Y-67379120D01*
X135990273Y-67532005D01*
X136244510Y-67637314D01*
X136514408Y-67691000D01*
X136789592Y-67691000D01*
X137059490Y-67637314D01*
X137313727Y-67532005D01*
X137542535Y-67379120D01*
X137737120Y-67184535D01*
X137890005Y-66955727D01*
X137922000Y-66878485D01*
X137953995Y-66955727D01*
X138106880Y-67184535D01*
X138301465Y-67379120D01*
X138530273Y-67532005D01*
X138784510Y-67637314D01*
X139054408Y-67691000D01*
X139329592Y-67691000D01*
X139599490Y-67637314D01*
X139853727Y-67532005D01*
X140082535Y-67379120D01*
X140277120Y-67184535D01*
X140430005Y-66955727D01*
X140462000Y-66878485D01*
X140493995Y-66955727D01*
X140646880Y-67184535D01*
X140841465Y-67379120D01*
X141070273Y-67532005D01*
X141324510Y-67637314D01*
X141594408Y-67691000D01*
X141869592Y-67691000D01*
X142139490Y-67637314D01*
X142393727Y-67532005D01*
X142622535Y-67379120D01*
X142817120Y-67184535D01*
X142970005Y-66955727D01*
X143075314Y-66701490D01*
X143129000Y-66431592D01*
X143129000Y-66156408D01*
X143075314Y-65886510D01*
X142970005Y-65632273D01*
X142817120Y-65403465D01*
X142622535Y-65208880D01*
X142621000Y-65207854D01*
X142621000Y-64472922D01*
X142765732Y-64532872D01*
X142922222Y-64564000D01*
X143081778Y-64564000D01*
X143238268Y-64532872D01*
X143385679Y-64471812D01*
X143518345Y-64383168D01*
X143631168Y-64270345D01*
X143719812Y-64137679D01*
X143780872Y-63990268D01*
X143812000Y-63833778D01*
X143812000Y-63674222D01*
X143780872Y-63517732D01*
X143719812Y-63370321D01*
X143631168Y-63237655D01*
X143518345Y-63124832D01*
X143385679Y-63036188D01*
X143238268Y-62975128D01*
X143081778Y-62944000D01*
X142922222Y-62944000D01*
X142765732Y-62975128D01*
X142621000Y-63035078D01*
X142621000Y-54216235D01*
X143878236Y-52959000D01*
X147740369Y-52959000D01*
X147683273Y-52997150D01*
G04 #@! TA.AperFunction,Conductor*
D25*
G36*
X147683273Y-52997150D02*
G01*
X147485150Y-53195273D01*
X147329486Y-53428241D01*
X147222262Y-53687101D01*
X147167600Y-53961906D01*
X147167600Y-54242094D01*
X147222262Y-54516899D01*
X147329486Y-54775759D01*
X147485150Y-55008727D01*
X147683273Y-55206850D01*
X147916241Y-55362514D01*
X148175101Y-55469738D01*
X148449906Y-55524400D01*
X148730094Y-55524400D01*
X149004899Y-55469738D01*
X149263759Y-55362514D01*
X149496727Y-55206850D01*
X149694850Y-55008727D01*
X149850514Y-54775759D01*
X149860000Y-54752858D01*
X149869486Y-54775759D01*
X150025150Y-55008727D01*
X150223273Y-55206850D01*
X150241000Y-55218695D01*
X150241001Y-71500999D01*
X138832500Y-71500999D01*
X138733425Y-71352724D01*
X138451276Y-71070575D01*
X138119505Y-70848892D01*
X137750860Y-70696195D01*
X137359509Y-70618350D01*
X136960491Y-70618350D01*
X136569140Y-70696195D01*
X136200495Y-70848892D01*
X135868724Y-71070575D01*
X135586575Y-71352724D01*
X135364892Y-71684495D01*
X135212195Y-72053140D01*
X135134350Y-72444491D01*
X135134350Y-72843509D01*
X135212195Y-73234860D01*
X135364892Y-73603505D01*
X135586575Y-73935276D01*
X135868724Y-74217425D01*
X136200495Y-74439108D01*
X136569140Y-74591805D01*
X136960491Y-74669650D01*
X137359509Y-74669650D01*
X137750860Y-74591805D01*
X138119505Y-74439108D01*
X138451276Y-74217425D01*
X138733425Y-73935276D01*
X138955108Y-73603505D01*
X139089522Y-73278999D01*
X152321417Y-73278999D01*
X152273000Y-73522408D01*
X152273000Y-73797592D01*
X152326686Y-74067490D01*
X152431995Y-74321727D01*
X152584880Y-74550535D01*
X152779465Y-74745120D01*
X153008273Y-74898005D01*
X153085515Y-74930000D01*
X153008273Y-74961995D01*
X152779465Y-75114880D01*
X152584880Y-75309465D01*
X152431995Y-75538273D01*
X152326686Y-75792510D01*
X152273000Y-76062408D01*
X152273000Y-76337592D01*
X152326686Y-76607490D01*
X152431995Y-76861727D01*
X152584880Y-77090535D01*
X152779465Y-77285120D01*
X153008273Y-77438005D01*
X153085515Y-77470000D01*
X153008273Y-77501995D01*
X152779465Y-77654880D01*
X152584880Y-77849465D01*
X152431995Y-78078273D01*
X152326686Y-78332510D01*
X152273000Y-78602408D01*
X152273000Y-78877592D01*
X152326686Y-79147490D01*
X152431995Y-79401727D01*
X152584880Y-79630535D01*
X152779465Y-79825120D01*
X153008273Y-79978005D01*
X153085515Y-80010000D01*
X153008273Y-80041995D01*
X152779465Y-80194880D01*
X152584880Y-80389465D01*
X152431995Y-80618273D01*
X152326686Y-80872510D01*
X152273000Y-81142408D01*
X152273000Y-81417592D01*
X152326686Y-81687490D01*
X152431995Y-81941727D01*
X152584880Y-82170535D01*
X152779465Y-82365120D01*
X153008273Y-82518005D01*
X153085515Y-82550000D01*
X153008273Y-82581995D01*
X152779465Y-82734880D01*
X152584880Y-82929465D01*
X152431995Y-83158273D01*
X152326686Y-83412510D01*
X152273000Y-83682408D01*
X152273000Y-83957592D01*
X152326686Y-84227490D01*
X152431995Y-84481727D01*
X152584880Y-84710535D01*
X152779465Y-84905120D01*
X153008273Y-85058005D01*
X153085515Y-85090000D01*
X153008273Y-85121995D01*
X152779465Y-85274880D01*
X152584880Y-85469465D01*
X152431995Y-85698273D01*
X152326686Y-85952510D01*
X152273000Y-86222408D01*
X152273000Y-86497592D01*
X152326686Y-86767490D01*
X152431995Y-87021727D01*
X152584880Y-87250535D01*
X152779465Y-87445120D01*
X153008273Y-87598005D01*
X153085515Y-87630000D01*
X153008273Y-87661995D01*
X152779465Y-87814880D01*
X152584880Y-88009465D01*
X152431995Y-88238273D01*
X152326686Y-88492510D01*
X152273000Y-88762408D01*
X152273000Y-89037592D01*
X152326686Y-89307490D01*
X152431995Y-89561727D01*
X152584880Y-89790535D01*
X152779465Y-89985120D01*
X153008273Y-90138005D01*
X153085515Y-90170000D01*
X153008273Y-90201995D01*
X152779465Y-90354880D01*
X152584880Y-90549465D01*
X152431995Y-90778273D01*
X152326686Y-91032510D01*
X152273000Y-91302408D01*
X152273000Y-91577592D01*
X152326686Y-91847490D01*
X152431995Y-92101727D01*
X152584880Y-92330535D01*
X152779465Y-92525120D01*
X153008273Y-92678005D01*
X153085515Y-92710000D01*
X153008273Y-92741995D01*
X152779465Y-92894880D01*
X152584880Y-93089465D01*
X152431995Y-93318273D01*
X152326686Y-93572510D01*
X152273000Y-93842408D01*
X152273000Y-94117592D01*
X152326686Y-94387490D01*
X152431995Y-94641727D01*
X152584880Y-94870535D01*
X152779465Y-95065120D01*
X153008273Y-95218005D01*
X153085515Y-95250000D01*
X153008273Y-95281995D01*
X152779465Y-95434880D01*
X152584880Y-95629465D01*
X152431995Y-95858273D01*
X152326686Y-96112510D01*
X152273000Y-96382408D01*
X152273000Y-96657592D01*
X152326686Y-96927490D01*
X152431995Y-97181727D01*
X152584880Y-97410535D01*
X152779465Y-97605120D01*
X153008273Y-97758005D01*
X153085515Y-97790000D01*
X153008273Y-97821995D01*
X152779465Y-97974880D01*
X152584880Y-98169465D01*
X152431995Y-98398273D01*
X152326686Y-98652510D01*
X152273000Y-98922408D01*
X152273000Y-99197592D01*
X152326686Y-99467490D01*
X152368094Y-99567457D01*
X152362577Y-99568000D01*
X151267829Y-99568000D01*
X145936901Y-94237072D01*
X146177000Y-94237072D01*
X146301482Y-94224812D01*
X146421180Y-94188502D01*
X146531494Y-94129537D01*
X146628185Y-94050185D01*
X146707537Y-93953494D01*
X146766502Y-93843180D01*
X146767830Y-93838800D01*
X149926805Y-93838800D01*
X149978369Y-94065946D01*
X150205716Y-94170339D01*
X150449059Y-94228373D01*
X150699049Y-94237818D01*
X150946078Y-94198310D01*
X151180653Y-94111369D01*
X151265631Y-94065946D01*
X151317195Y-93838800D01*
X150622000Y-93143605D01*
X149926805Y-93838800D01*
X146767830Y-93838800D01*
X146802812Y-93723482D01*
X146815072Y-93599000D01*
X146815072Y-93041049D01*
X149348182Y-93041049D01*
X149387690Y-93288078D01*
X149474631Y-93522653D01*
X149520054Y-93607631D01*
X149747200Y-93659195D01*
X150442395Y-92964000D01*
X150801605Y-92964000D01*
X151496800Y-93659195D01*
X151723946Y-93607631D01*
X151828339Y-93380284D01*
X151886373Y-93136941D01*
X151895818Y-92886951D01*
X151856310Y-92639922D01*
X151769369Y-92405347D01*
X151723946Y-92320369D01*
X151496800Y-92268805D01*
X150801605Y-92964000D01*
X150442395Y-92964000D01*
X149747200Y-92268805D01*
X149520054Y-92320369D01*
X149415661Y-92547716D01*
X149357627Y-92791059D01*
X149348182Y-93041049D01*
X146815072Y-93041049D01*
X146815072Y-92329000D01*
X146802812Y-92204518D01*
X146767831Y-92089200D01*
X149926805Y-92089200D01*
X150622000Y-92784395D01*
X151317195Y-92089200D01*
X151265631Y-91862054D01*
X151038284Y-91757661D01*
X150794941Y-91699627D01*
X150544951Y-91690182D01*
X150297922Y-91729690D01*
X150063347Y-91816631D01*
X149978369Y-91862054D01*
X149926805Y-92089200D01*
X146767831Y-92089200D01*
X146766502Y-92084820D01*
X146707537Y-91974506D01*
X146628185Y-91877815D01*
X146531494Y-91798463D01*
X146421180Y-91739498D01*
X146301482Y-91703188D01*
X146177000Y-91690928D01*
X145346559Y-91690928D01*
X143764000Y-90108370D01*
X143764000Y-89608707D01*
X143916759Y-89506637D01*
X144116637Y-89306759D01*
X144218707Y-89154000D01*
X146012577Y-89154000D01*
X146050000Y-89157686D01*
X146087423Y-89154000D01*
X146087426Y-89154000D01*
X146199378Y-89142974D01*
X146343015Y-89099402D01*
X146475392Y-89028645D01*
X146591422Y-88933422D01*
X146615284Y-88904346D01*
X146778591Y-88741039D01*
X149230096Y-88741039D01*
X149270754Y-88875087D01*
X149390963Y-89129420D01*
X149558481Y-89355414D01*
X149766869Y-89544385D01*
X150008119Y-89689070D01*
X150272960Y-89783909D01*
X150495000Y-89662624D01*
X150495000Y-88519000D01*
X150749000Y-88519000D01*
X150749000Y-89662624D01*
X150971040Y-89783909D01*
X151235881Y-89689070D01*
X151477131Y-89544385D01*
X151685519Y-89355414D01*
X151853037Y-89129420D01*
X151973246Y-88875087D01*
X152013904Y-88741039D01*
X151891915Y-88519000D01*
X150749000Y-88519000D01*
X150495000Y-88519000D01*
X149352085Y-88519000D01*
X149230096Y-88741039D01*
X146778591Y-88741039D01*
X147476669Y-88042961D01*
X149230096Y-88042961D01*
X149352085Y-88265000D01*
X150495000Y-88265000D01*
X150495000Y-87121376D01*
X150749000Y-87121376D01*
X150749000Y-88265000D01*
X151891915Y-88265000D01*
X152013904Y-88042961D01*
X151973246Y-87908913D01*
X151853037Y-87654580D01*
X151685519Y-87428586D01*
X151477131Y-87239615D01*
X151235881Y-87094930D01*
X150971040Y-87000091D01*
X150749000Y-87121376D01*
X150495000Y-87121376D01*
X150272960Y-87000091D01*
X150008119Y-87094930D01*
X149766869Y-87239615D01*
X149558481Y-87428586D01*
X149390963Y-87654580D01*
X149270754Y-87908913D01*
X149230096Y-88042961D01*
X147476669Y-88042961D01*
X150300474Y-85219157D01*
X150480665Y-85255000D01*
X150763335Y-85255000D01*
X151040574Y-85199853D01*
X151301727Y-85091680D01*
X151536759Y-84934637D01*
X151736637Y-84734759D01*
X151893680Y-84499727D01*
X152001853Y-84238574D01*
X152057000Y-83961335D01*
X152057000Y-83678665D01*
X152001853Y-83401426D01*
X151893680Y-83140273D01*
X151736637Y-82905241D01*
X151536759Y-82705363D01*
X151301727Y-82548320D01*
X151040574Y-82440147D01*
X150763335Y-82385000D01*
X150480665Y-82385000D01*
X150203426Y-82440147D01*
X149942273Y-82548320D01*
X149707241Y-82705363D01*
X149507363Y-82905241D01*
X149350320Y-83140273D01*
X149242147Y-83401426D01*
X149187000Y-83678665D01*
X149187000Y-83961335D01*
X149222843Y-84141526D01*
X145734370Y-87630000D01*
X144218707Y-87630000D01*
X144116637Y-87477241D01*
X143916759Y-87277363D01*
X143681727Y-87120320D01*
X143420574Y-87012147D01*
X143143335Y-86957000D01*
X142860665Y-86957000D01*
X142680474Y-86992843D01*
X139366296Y-83678665D01*
X141567000Y-83678665D01*
X141567000Y-83961335D01*
X141622147Y-84238574D01*
X141730320Y-84499727D01*
X141887363Y-84734759D01*
X142087241Y-84934637D01*
X142322273Y-85091680D01*
X142583426Y-85199853D01*
X142860665Y-85255000D01*
X143143335Y-85255000D01*
X143420574Y-85199853D01*
X143681727Y-85091680D01*
X143916759Y-84934637D01*
X144116637Y-84734759D01*
X144273680Y-84499727D01*
X144381853Y-84238574D01*
X144437000Y-83961335D01*
X144437000Y-83678665D01*
X144381853Y-83401426D01*
X144273680Y-83140273D01*
X144116637Y-82905241D01*
X143916759Y-82705363D01*
X143681727Y-82548320D01*
X143420574Y-82440147D01*
X143143335Y-82385000D01*
X142860665Y-82385000D01*
X142583426Y-82440147D01*
X142322273Y-82548320D01*
X142087241Y-82705363D01*
X141887363Y-82905241D01*
X141730320Y-83140273D01*
X141622147Y-83401426D01*
X141567000Y-83678665D01*
X139366296Y-83678665D01*
X137451068Y-81763438D01*
X137750860Y-81703805D01*
X138119505Y-81551108D01*
X138451276Y-81329425D01*
X138733425Y-81047276D01*
X138955108Y-80715505D01*
X139107805Y-80346860D01*
X139185650Y-79955509D01*
X139185650Y-79556491D01*
X139107805Y-79165140D01*
X138955108Y-78796495D01*
X138733425Y-78464724D01*
X138451276Y-78182575D01*
X138119505Y-77960892D01*
X137750860Y-77808195D01*
X137359509Y-77730350D01*
X136960491Y-77730350D01*
X136569140Y-77808195D01*
X136200495Y-77960892D01*
X135868724Y-78182575D01*
X135586575Y-78464724D01*
X135364892Y-78796495D01*
X135212195Y-79165140D01*
X135152562Y-79464932D01*
X132772283Y-77084653D01*
X132748421Y-77055577D01*
X132632391Y-76960354D01*
X132500014Y-76889597D01*
X132356377Y-76846025D01*
X132244425Y-76834999D01*
X132244422Y-76834999D01*
X132206999Y-76831313D01*
X132169576Y-76834999D01*
X132059076Y-76834999D01*
X132153314Y-76607490D01*
X132207000Y-76337592D01*
X132207000Y-76062408D01*
X132153314Y-75792510D01*
X132048005Y-75538273D01*
X131895120Y-75309465D01*
X131700535Y-75114880D01*
X131471727Y-74961995D01*
X131400057Y-74932308D01*
X131413023Y-74927636D01*
X131528980Y-74865656D01*
X131595960Y-74625565D01*
X130810000Y-73839605D01*
X130795858Y-73853748D01*
X130616253Y-73674143D01*
X130630395Y-73660000D01*
X130989605Y-73660000D01*
X131775565Y-74445960D01*
X132015656Y-74378980D01*
X132132756Y-74129952D01*
X132199023Y-73862865D01*
X132211910Y-73587983D01*
X132170922Y-73315867D01*
X132077636Y-73056977D01*
X132015656Y-72941020D01*
X131775565Y-72874040D01*
X130989605Y-73660000D01*
X130630395Y-73660000D01*
X130616253Y-73645858D01*
X130795858Y-73466253D01*
X130810000Y-73480395D01*
X131595960Y-72694435D01*
X131528980Y-72454344D01*
X131279952Y-72337244D01*
X131012865Y-72270977D01*
X130737983Y-72258090D01*
X130465867Y-72299078D01*
X130206977Y-72392364D01*
X130091020Y-72454344D01*
X130024041Y-72694433D01*
X129907631Y-72578023D01*
X129844790Y-72640864D01*
X129844790Y-69098840D01*
X131282789Y-67660841D01*
X131434408Y-67691000D01*
X131709592Y-67691000D01*
X131979490Y-67637314D01*
X132233727Y-67532005D01*
X132462535Y-67379120D01*
X132657120Y-67184535D01*
X132810005Y-66955727D01*
X132842000Y-66878485D01*
X132873995Y-66955727D01*
X133026880Y-67184535D01*
X133221465Y-67379120D01*
X133450273Y-67532005D01*
X133704510Y-67637314D01*
X133974408Y-67691000D01*
X134249592Y-67691000D01*
X134519490Y-67637314D01*
X134773727Y-67532005D01*
X135002535Y-67379120D01*
X135197120Y-67184535D01*
X135350005Y-66955727D01*
X135382000Y-66878485D01*
X135413995Y-66955727D01*
X135566880Y-67184535D01*
X135761465Y-67379120D01*
X135990273Y-67532005D01*
X136244510Y-67637314D01*
X136514408Y-67691000D01*
X136789592Y-67691000D01*
X137059490Y-67637314D01*
X137313727Y-67532005D01*
X137542535Y-67379120D01*
X137737120Y-67184535D01*
X137890005Y-66955727D01*
X137922000Y-66878485D01*
X137953995Y-66955727D01*
X138106880Y-67184535D01*
X138301465Y-67379120D01*
X138530273Y-67532005D01*
X138784510Y-67637314D01*
X139054408Y-67691000D01*
X139329592Y-67691000D01*
X139599490Y-67637314D01*
X139853727Y-67532005D01*
X140082535Y-67379120D01*
X140277120Y-67184535D01*
X140430005Y-66955727D01*
X140462000Y-66878485D01*
X140493995Y-66955727D01*
X140646880Y-67184535D01*
X140841465Y-67379120D01*
X141070273Y-67532005D01*
X141324510Y-67637314D01*
X141594408Y-67691000D01*
X141869592Y-67691000D01*
X142139490Y-67637314D01*
X142393727Y-67532005D01*
X142622535Y-67379120D01*
X142817120Y-67184535D01*
X142970005Y-66955727D01*
X143075314Y-66701490D01*
X143129000Y-66431592D01*
X143129000Y-66156408D01*
X143075314Y-65886510D01*
X142970005Y-65632273D01*
X142817120Y-65403465D01*
X142622535Y-65208880D01*
X142621000Y-65207854D01*
X142621000Y-64472922D01*
X142765732Y-64532872D01*
X142922222Y-64564000D01*
X143081778Y-64564000D01*
X143238268Y-64532872D01*
X143385679Y-64471812D01*
X143518345Y-64383168D01*
X143631168Y-64270345D01*
X143719812Y-64137679D01*
X143780872Y-63990268D01*
X143812000Y-63833778D01*
X143812000Y-63674222D01*
X143780872Y-63517732D01*
X143719812Y-63370321D01*
X143631168Y-63237655D01*
X143518345Y-63124832D01*
X143385679Y-63036188D01*
X143238268Y-62975128D01*
X143081778Y-62944000D01*
X142922222Y-62944000D01*
X142765732Y-62975128D01*
X142621000Y-63035078D01*
X142621000Y-54216235D01*
X143878236Y-52959000D01*
X147740369Y-52959000D01*
X147683273Y-52997150D01*
G37*
G04 #@! TD.AperFunction*
M02*
