G04 #@! TF.GenerationSoftware,KiCad,Pcbnew,(5.1.10-1-10_14)*
G04 #@! TF.CreationDate,2021-09-07T21:53:28-06:00*
G04 #@! TF.ProjectId,soil_moisture_0.5,736f696c-5f6d-46f6-9973-747572655f30,0.5*
G04 #@! TF.SameCoordinates,Original*
G04 #@! TF.FileFunction,Soldermask,Bot*
G04 #@! TF.FilePolarity,Negative*
%FSLAX46Y46*%
G04 Gerber Fmt 4.6, Leading zero omitted, Abs format (unit mm)*
G04 Created by KiCad (PCBNEW (5.1.10-1-10_14)) date 2021-09-07 21:53:28*
%MOMM*%
%LPD*%
G01*
G04 APERTURE LIST*
%ADD10C,0.100000*%
%ADD11C,4.401600*%
%ADD12C,1.778000*%
%ADD13C,1.727200*%
%ADD14C,0.451600*%
%ADD15C,2.984500*%
%ADD16C,3.403600*%
%ADD17O,1.879600X3.556000*%
%ADD18C,1.803400*%
%ADD19O,1.701600X1.701600*%
%ADD20C,1.701600*%
%ADD21C,1.371600*%
G04 APERTURE END LIST*
D10*
G36*
X162153600Y-72669400D02*
G01*
X162134609Y-72447814D01*
X162058859Y-72238713D01*
X161931523Y-72056376D01*
X161761296Y-71913254D01*
X161340800Y-71780400D01*
X161112699Y-71800398D01*
X160897546Y-71878752D01*
X160710003Y-72010122D01*
X160562852Y-72185554D01*
X160426400Y-72618600D01*
X160426400Y-72618601D01*
X160452993Y-72845827D01*
X160537482Y-73058432D01*
X160674112Y-73241929D01*
X160853573Y-73383819D01*
X161290000Y-73507600D01*
X161289999Y-73507600D01*
X161510661Y-73481893D01*
X161717150Y-73399951D01*
X161895396Y-73267357D01*
X162033250Y-73093149D01*
X162121318Y-72889196D01*
X162153600Y-72669400D01*
G37*
G36*
X162153600Y-122961400D02*
G01*
X162153600Y-122961399D01*
X162134609Y-122739813D01*
X162058859Y-122530712D01*
X161931523Y-122348375D01*
X161761296Y-122205253D01*
X161340800Y-122072400D01*
X161112699Y-122092398D01*
X160897546Y-122170752D01*
X160710003Y-122302122D01*
X160562852Y-122477554D01*
X160426400Y-122910600D01*
X160452993Y-123137826D01*
X160537482Y-123350431D01*
X160674112Y-123533928D01*
X160853573Y-123675818D01*
X161290000Y-123799600D01*
X161289999Y-123799600D01*
X161510661Y-123773893D01*
X161717150Y-123691951D01*
X161895396Y-123559357D01*
X162033250Y-123385149D01*
X162121318Y-123181196D01*
X162153600Y-122961400D01*
G37*
G36*
X162153600Y-79781400D02*
G01*
X162134609Y-79559814D01*
X162058859Y-79350713D01*
X161931523Y-79168376D01*
X161761296Y-79025254D01*
X161340800Y-78892400D01*
X161112699Y-78912398D01*
X160897546Y-78990752D01*
X160710003Y-79122122D01*
X160562852Y-79297554D01*
X160426400Y-79730600D01*
X160426400Y-79730601D01*
X160452993Y-79957827D01*
X160537482Y-80170432D01*
X160674112Y-80353929D01*
X160853573Y-80495819D01*
X161290000Y-80619600D01*
X161289999Y-80619600D01*
X161510661Y-80593893D01*
X161717150Y-80511951D01*
X161895396Y-80379357D01*
X162033250Y-80205149D01*
X162121318Y-80001196D01*
X162153600Y-79781400D01*
G37*
G36*
X162153600Y-115849400D02*
G01*
X162153600Y-115849399D01*
X162134609Y-115627813D01*
X162058859Y-115418712D01*
X161931523Y-115236375D01*
X161761296Y-115093253D01*
X161340800Y-114960400D01*
X161112699Y-114980398D01*
X160897546Y-115058752D01*
X160710003Y-115190122D01*
X160562852Y-115365554D01*
X160426400Y-115798600D01*
X160452993Y-116025826D01*
X160537482Y-116238431D01*
X160674112Y-116421928D01*
X160853573Y-116563818D01*
X161290000Y-116687600D01*
X161289999Y-116687600D01*
X161510661Y-116661893D01*
X161717150Y-116579951D01*
X161895396Y-116447357D01*
X162033250Y-116273149D01*
X162121318Y-116069196D01*
X162153600Y-115849400D01*
G37*
G36*
X138023600Y-115849400D02*
G01*
X138023600Y-115849399D01*
X138004609Y-115627813D01*
X137928859Y-115418712D01*
X137801523Y-115236375D01*
X137631296Y-115093253D01*
X137210800Y-114960400D01*
X136982699Y-114980398D01*
X136767546Y-115058752D01*
X136580003Y-115190122D01*
X136432852Y-115365554D01*
X136296400Y-115798600D01*
X136322993Y-116025826D01*
X136407482Y-116238431D01*
X136544112Y-116421928D01*
X136723573Y-116563818D01*
X137160000Y-116687600D01*
X137159999Y-116687600D01*
X137380661Y-116661893D01*
X137587150Y-116579951D01*
X137765396Y-116447357D01*
X137903250Y-116273149D01*
X137991318Y-116069196D01*
X138023600Y-115849400D01*
G37*
G36*
X138023600Y-79781400D02*
G01*
X138004609Y-79559814D01*
X137928859Y-79350713D01*
X137801523Y-79168376D01*
X137631296Y-79025254D01*
X137210800Y-78892400D01*
X136982699Y-78912398D01*
X136767546Y-78990752D01*
X136580003Y-79122122D01*
X136432852Y-79297554D01*
X136296400Y-79730600D01*
X136296400Y-79730601D01*
X136322993Y-79957827D01*
X136407482Y-80170432D01*
X136544112Y-80353929D01*
X136723573Y-80495819D01*
X137160000Y-80619600D01*
X137159999Y-80619600D01*
X137380661Y-80593893D01*
X137587150Y-80511951D01*
X137765396Y-80379357D01*
X137903250Y-80205149D01*
X137991318Y-80001196D01*
X138023600Y-79781400D01*
G37*
G36*
X138023600Y-122961400D02*
G01*
X138023600Y-122961399D01*
X138004609Y-122739813D01*
X137928859Y-122530712D01*
X137801523Y-122348375D01*
X137631296Y-122205253D01*
X137210800Y-122072400D01*
X136982699Y-122092398D01*
X136767546Y-122170752D01*
X136580003Y-122302122D01*
X136432852Y-122477554D01*
X136296400Y-122910600D01*
X136322993Y-123137826D01*
X136407482Y-123350431D01*
X136544112Y-123533928D01*
X136723573Y-123675818D01*
X137160000Y-123799600D01*
X137159999Y-123799600D01*
X137380661Y-123773893D01*
X137587150Y-123691951D01*
X137765396Y-123559357D01*
X137903250Y-123385149D01*
X137991318Y-123181196D01*
X138023600Y-122961400D01*
G37*
G36*
X138023600Y-72669400D02*
G01*
X138004609Y-72447814D01*
X137928859Y-72238713D01*
X137801523Y-72056376D01*
X137631296Y-71913254D01*
X137210800Y-71780400D01*
X136982699Y-71800398D01*
X136767546Y-71878752D01*
X136580003Y-72010122D01*
X136432852Y-72185554D01*
X136296400Y-72618600D01*
X136296400Y-72618601D01*
X136322993Y-72845827D01*
X136407482Y-73058432D01*
X136544112Y-73241929D01*
X136723573Y-73383819D01*
X137160000Y-73507600D01*
X137159999Y-73507600D01*
X137380661Y-73481893D01*
X137587150Y-73399951D01*
X137765396Y-73267357D01*
X137903250Y-73093149D01*
X137991318Y-72889196D01*
X138023600Y-72669400D01*
G37*
D11*
X147320000Y-124460000D03*
X147320000Y-44450000D03*
D12*
X151130000Y-54102000D03*
X148590000Y-54102000D03*
D13*
X153670000Y-73660000D03*
X153670000Y-76200000D03*
X153670000Y-78740000D03*
X153670000Y-81280000D03*
X153670000Y-83820000D03*
X153670000Y-86360000D03*
X153670000Y-88900000D03*
X153670000Y-91440000D03*
X153670000Y-93980000D03*
X153670000Y-96520000D03*
X153670000Y-99060000D03*
X153670000Y-101600000D03*
X153670000Y-104140000D03*
X153670000Y-106680000D03*
X153670000Y-109220000D03*
X153670000Y-111760000D03*
X153670000Y-114300000D03*
X153670000Y-116840000D03*
X153670000Y-119380000D03*
X130810000Y-73660000D03*
X130810000Y-76200000D03*
X130810000Y-78740000D03*
X130810000Y-81280000D03*
X130810000Y-83820000D03*
X130810000Y-86360000D03*
X130810000Y-88900000D03*
X130810000Y-91440000D03*
X130810000Y-93980000D03*
X130810000Y-96520000D03*
X130810000Y-99060000D03*
X130810000Y-101600000D03*
X130810000Y-104140000D03*
X130810000Y-106680000D03*
X130810000Y-109220000D03*
X130810000Y-111760000D03*
X130810000Y-114300000D03*
X130810000Y-116840000D03*
X130810000Y-119380000D03*
X129032000Y-66294000D03*
X131572000Y-66294000D03*
X134112000Y-66294000D03*
X136652000Y-66294000D03*
X139192000Y-66294000D03*
X141732000Y-66294000D03*
D14*
X127762000Y-63754000D03*
X143002000Y-63754000D03*
D15*
X161290000Y-79756000D03*
X161290000Y-72644000D03*
X161290000Y-115824000D03*
X161290000Y-122936000D03*
X137160000Y-122936000D03*
X137160000Y-115824000D03*
X137160000Y-72644000D03*
X137160000Y-79756000D03*
D16*
X160020000Y-49784000D03*
D17*
X162560000Y-67310000D03*
X160020000Y-67310000D03*
X157480000Y-67310000D03*
D18*
X162560000Y-96520000D03*
X162560000Y-99060000D03*
X162560000Y-101600000D03*
X162560000Y-104140000D03*
X162560000Y-106680000D03*
X162560000Y-109220000D03*
D19*
X164338000Y-91440000D03*
D20*
X156718000Y-91440000D03*
X156718000Y-87630000D03*
D19*
X164338000Y-87630000D03*
D20*
X156718000Y-83820000D03*
D19*
X164338000Y-83820000D03*
D10*
G36*
X158024113Y-109181802D02*
G01*
X158042534Y-109181802D01*
X158047514Y-109182047D01*
X158096345Y-109186857D01*
X158101275Y-109187588D01*
X158149400Y-109197160D01*
X158154237Y-109198372D01*
X158201192Y-109212616D01*
X158205885Y-109214295D01*
X158251218Y-109233072D01*
X158255726Y-109235204D01*
X158298999Y-109258335D01*
X158303273Y-109260897D01*
X158344072Y-109288157D01*
X158348077Y-109291127D01*
X158386006Y-109322255D01*
X158389700Y-109325603D01*
X158424397Y-109360300D01*
X158427745Y-109363994D01*
X158458873Y-109401923D01*
X158461843Y-109405928D01*
X158489103Y-109446727D01*
X158491665Y-109451001D01*
X158514796Y-109494274D01*
X158516928Y-109498782D01*
X158535705Y-109544115D01*
X158537384Y-109548808D01*
X158551628Y-109595763D01*
X158552840Y-109600600D01*
X158562412Y-109648725D01*
X158563143Y-109653655D01*
X158567953Y-109702486D01*
X158568198Y-109707466D01*
X158568198Y-109725887D01*
X158568800Y-109732000D01*
X158568800Y-110232000D01*
X158568198Y-110238113D01*
X158568198Y-110256534D01*
X158567953Y-110261514D01*
X158563143Y-110310345D01*
X158562412Y-110315275D01*
X158552840Y-110363400D01*
X158551628Y-110368237D01*
X158537384Y-110415192D01*
X158535705Y-110419885D01*
X158516928Y-110465218D01*
X158514796Y-110469726D01*
X158491665Y-110512999D01*
X158489103Y-110517273D01*
X158461843Y-110558072D01*
X158458873Y-110562077D01*
X158427745Y-110600006D01*
X158424397Y-110603700D01*
X158389700Y-110638397D01*
X158386006Y-110641745D01*
X158348077Y-110672873D01*
X158344072Y-110675843D01*
X158303273Y-110703103D01*
X158298999Y-110705665D01*
X158255726Y-110728796D01*
X158251218Y-110730928D01*
X158205885Y-110749705D01*
X158201192Y-110751384D01*
X158154237Y-110765628D01*
X158149400Y-110766840D01*
X158101275Y-110776412D01*
X158096345Y-110777143D01*
X158047514Y-110781953D01*
X158042534Y-110782198D01*
X158024113Y-110782198D01*
X158018000Y-110782800D01*
X157518000Y-110782800D01*
X157508089Y-110781824D01*
X157498560Y-110778933D01*
X157489777Y-110774239D01*
X157482079Y-110767921D01*
X157475761Y-110760223D01*
X157471067Y-110751440D01*
X157468176Y-110741911D01*
X157467200Y-110732000D01*
X157467200Y-109232000D01*
X157468176Y-109222089D01*
X157471067Y-109212560D01*
X157475761Y-109203777D01*
X157482079Y-109196079D01*
X157489777Y-109189761D01*
X157498560Y-109185067D01*
X157508089Y-109182176D01*
X157518000Y-109181200D01*
X158018000Y-109181200D01*
X158024113Y-109181802D01*
G37*
G36*
X157227911Y-109182176D02*
G01*
X157237440Y-109185067D01*
X157246223Y-109189761D01*
X157253921Y-109196079D01*
X157260239Y-109203777D01*
X157264933Y-109212560D01*
X157267824Y-109222089D01*
X157268800Y-109232000D01*
X157268800Y-110732000D01*
X157267824Y-110741911D01*
X157264933Y-110751440D01*
X157260239Y-110760223D01*
X157253921Y-110767921D01*
X157246223Y-110774239D01*
X157237440Y-110778933D01*
X157227911Y-110781824D01*
X157218000Y-110782800D01*
X156718000Y-110782800D01*
X156711887Y-110782198D01*
X156693466Y-110782198D01*
X156688486Y-110781953D01*
X156639655Y-110777143D01*
X156634725Y-110776412D01*
X156586600Y-110766840D01*
X156581763Y-110765628D01*
X156534808Y-110751384D01*
X156530115Y-110749705D01*
X156484782Y-110730928D01*
X156480274Y-110728796D01*
X156437001Y-110705665D01*
X156432727Y-110703103D01*
X156391928Y-110675843D01*
X156387923Y-110672873D01*
X156349994Y-110641745D01*
X156346300Y-110638397D01*
X156311603Y-110603700D01*
X156308255Y-110600006D01*
X156277127Y-110562077D01*
X156274157Y-110558072D01*
X156246897Y-110517273D01*
X156244335Y-110512999D01*
X156221204Y-110469726D01*
X156219072Y-110465218D01*
X156200295Y-110419885D01*
X156198616Y-110415192D01*
X156184372Y-110368237D01*
X156183160Y-110363400D01*
X156173588Y-110315275D01*
X156172857Y-110310345D01*
X156168047Y-110261514D01*
X156167802Y-110256534D01*
X156167802Y-110238113D01*
X156167200Y-110232000D01*
X156167200Y-109732000D01*
X156167802Y-109725887D01*
X156167802Y-109707466D01*
X156168047Y-109702486D01*
X156172857Y-109653655D01*
X156173588Y-109648725D01*
X156183160Y-109600600D01*
X156184372Y-109595763D01*
X156198616Y-109548808D01*
X156200295Y-109544115D01*
X156219072Y-109498782D01*
X156221204Y-109494274D01*
X156244335Y-109451001D01*
X156246897Y-109446727D01*
X156274157Y-109405928D01*
X156277127Y-109401923D01*
X156308255Y-109363994D01*
X156311603Y-109360300D01*
X156346300Y-109325603D01*
X156349994Y-109322255D01*
X156387923Y-109291127D01*
X156391928Y-109288157D01*
X156432727Y-109260897D01*
X156437001Y-109258335D01*
X156480274Y-109235204D01*
X156484782Y-109233072D01*
X156530115Y-109214295D01*
X156534808Y-109212616D01*
X156581763Y-109198372D01*
X156586600Y-109197160D01*
X156634725Y-109187588D01*
X156639655Y-109186857D01*
X156688486Y-109182047D01*
X156693466Y-109181802D01*
X156711887Y-109181802D01*
X156718000Y-109181200D01*
X157218000Y-109181200D01*
X157227911Y-109182176D01*
G37*
G36*
X157197911Y-112230176D02*
G01*
X157207440Y-112233067D01*
X157216223Y-112237761D01*
X157223921Y-112244079D01*
X157230239Y-112251777D01*
X157234933Y-112260560D01*
X157237824Y-112270089D01*
X157238800Y-112280000D01*
X157238800Y-113780000D01*
X157237824Y-113789911D01*
X157234933Y-113799440D01*
X157230239Y-113808223D01*
X157223921Y-113815921D01*
X157216223Y-113822239D01*
X157207440Y-113826933D01*
X157197911Y-113829824D01*
X157188000Y-113830800D01*
X156688000Y-113830800D01*
X156681887Y-113830198D01*
X156663466Y-113830198D01*
X156658486Y-113829953D01*
X156609655Y-113825143D01*
X156604725Y-113824412D01*
X156556600Y-113814840D01*
X156551763Y-113813628D01*
X156504808Y-113799384D01*
X156500115Y-113797705D01*
X156454782Y-113778928D01*
X156450274Y-113776796D01*
X156407001Y-113753665D01*
X156402727Y-113751103D01*
X156361928Y-113723843D01*
X156357923Y-113720873D01*
X156319994Y-113689745D01*
X156316300Y-113686397D01*
X156281603Y-113651700D01*
X156278255Y-113648006D01*
X156247127Y-113610077D01*
X156244157Y-113606072D01*
X156216897Y-113565273D01*
X156214335Y-113560999D01*
X156191204Y-113517726D01*
X156189072Y-113513218D01*
X156170295Y-113467885D01*
X156168616Y-113463192D01*
X156154372Y-113416237D01*
X156153160Y-113411400D01*
X156143588Y-113363275D01*
X156142857Y-113358345D01*
X156138047Y-113309514D01*
X156137802Y-113304534D01*
X156137802Y-113286113D01*
X156137200Y-113280000D01*
X156137200Y-112780000D01*
X156137802Y-112773887D01*
X156137802Y-112755466D01*
X156138047Y-112750486D01*
X156142857Y-112701655D01*
X156143588Y-112696725D01*
X156153160Y-112648600D01*
X156154372Y-112643763D01*
X156168616Y-112596808D01*
X156170295Y-112592115D01*
X156189072Y-112546782D01*
X156191204Y-112542274D01*
X156214335Y-112499001D01*
X156216897Y-112494727D01*
X156244157Y-112453928D01*
X156247127Y-112449923D01*
X156278255Y-112411994D01*
X156281603Y-112408300D01*
X156316300Y-112373603D01*
X156319994Y-112370255D01*
X156357923Y-112339127D01*
X156361928Y-112336157D01*
X156402727Y-112308897D01*
X156407001Y-112306335D01*
X156450274Y-112283204D01*
X156454782Y-112281072D01*
X156500115Y-112262295D01*
X156504808Y-112260616D01*
X156551763Y-112246372D01*
X156556600Y-112245160D01*
X156604725Y-112235588D01*
X156609655Y-112234857D01*
X156658486Y-112230047D01*
X156663466Y-112229802D01*
X156681887Y-112229802D01*
X156688000Y-112229200D01*
X157188000Y-112229200D01*
X157197911Y-112230176D01*
G37*
G36*
X157994113Y-112229802D02*
G01*
X158012534Y-112229802D01*
X158017514Y-112230047D01*
X158066345Y-112234857D01*
X158071275Y-112235588D01*
X158119400Y-112245160D01*
X158124237Y-112246372D01*
X158171192Y-112260616D01*
X158175885Y-112262295D01*
X158221218Y-112281072D01*
X158225726Y-112283204D01*
X158268999Y-112306335D01*
X158273273Y-112308897D01*
X158314072Y-112336157D01*
X158318077Y-112339127D01*
X158356006Y-112370255D01*
X158359700Y-112373603D01*
X158394397Y-112408300D01*
X158397745Y-112411994D01*
X158428873Y-112449923D01*
X158431843Y-112453928D01*
X158459103Y-112494727D01*
X158461665Y-112499001D01*
X158484796Y-112542274D01*
X158486928Y-112546782D01*
X158505705Y-112592115D01*
X158507384Y-112596808D01*
X158521628Y-112643763D01*
X158522840Y-112648600D01*
X158532412Y-112696725D01*
X158533143Y-112701655D01*
X158537953Y-112750486D01*
X158538198Y-112755466D01*
X158538198Y-112773887D01*
X158538800Y-112780000D01*
X158538800Y-113280000D01*
X158538198Y-113286113D01*
X158538198Y-113304534D01*
X158537953Y-113309514D01*
X158533143Y-113358345D01*
X158532412Y-113363275D01*
X158522840Y-113411400D01*
X158521628Y-113416237D01*
X158507384Y-113463192D01*
X158505705Y-113467885D01*
X158486928Y-113513218D01*
X158484796Y-113517726D01*
X158461665Y-113560999D01*
X158459103Y-113565273D01*
X158431843Y-113606072D01*
X158428873Y-113610077D01*
X158397745Y-113648006D01*
X158394397Y-113651700D01*
X158359700Y-113686397D01*
X158356006Y-113689745D01*
X158318077Y-113720873D01*
X158314072Y-113723843D01*
X158273273Y-113751103D01*
X158268999Y-113753665D01*
X158225726Y-113776796D01*
X158221218Y-113778928D01*
X158175885Y-113797705D01*
X158171192Y-113799384D01*
X158124237Y-113813628D01*
X158119400Y-113814840D01*
X158071275Y-113824412D01*
X158066345Y-113825143D01*
X158017514Y-113829953D01*
X158012534Y-113830198D01*
X157994113Y-113830198D01*
X157988000Y-113830800D01*
X157488000Y-113830800D01*
X157478089Y-113829824D01*
X157468560Y-113826933D01*
X157459777Y-113822239D01*
X157452079Y-113815921D01*
X157445761Y-113808223D01*
X157441067Y-113799440D01*
X157438176Y-113789911D01*
X157437200Y-113780000D01*
X157437200Y-112280000D01*
X157438176Y-112270089D01*
X157441067Y-112260560D01*
X157445761Y-112251777D01*
X157452079Y-112244079D01*
X157459777Y-112237761D01*
X157468560Y-112233067D01*
X157478089Y-112230176D01*
X157488000Y-112229200D01*
X157988000Y-112229200D01*
X157994113Y-112229802D01*
G37*
G36*
G01*
X144856200Y-93599000D02*
X144856200Y-92329000D01*
G75*
G02*
X144907000Y-92278200I50800J0D01*
G01*
X146177000Y-92278200D01*
G75*
G02*
X146227800Y-92329000I0J-50800D01*
G01*
X146227800Y-93599000D01*
G75*
G02*
X146177000Y-93649800I-50800J0D01*
G01*
X144907000Y-93649800D01*
G75*
G02*
X144856200Y-93599000I0J50800D01*
G01*
G37*
D21*
X150622000Y-92964000D03*
D20*
X143002000Y-83820000D03*
D19*
X150622000Y-83820000D03*
X150622000Y-88392000D03*
D20*
X143002000Y-88392000D03*
M02*
