G04 #@! TF.GenerationSoftware,KiCad,Pcbnew,(5.1.10-1-10_14)*
G04 #@! TF.CreationDate,2021-09-07T21:53:28-06:00*
G04 #@! TF.ProjectId,soil_moisture_0.5,736f696c-5f6d-46f6-9973-747572655f30,0.5*
G04 #@! TF.SameCoordinates,Original*
G04 #@! TF.FileFunction,Legend,Top*
G04 #@! TF.FilePolarity,Positive*
%FSLAX46Y46*%
G04 Gerber Fmt 4.6, Leading zero omitted, Abs format (unit mm)*
G04 Created by KiCad (PCBNEW (5.1.10-1-10_14)) date 2021-09-07 21:53:28*
%MOMM*%
%LPD*%
G01*
G04 APERTURE LIST*
%ADD10C,0.150000*%
%ADD11C,0.152400*%
%ADD12C,0.508000*%
%ADD13C,0.127000*%
%ADD14C,0.203200*%
%ADD15C,0.050800*%
%ADD16C,0.100000*%
%ADD17C,0.120000*%
%ADD18C,0.096520*%
%ADD19C,0.115824*%
%ADD20C,0.168910*%
G04 APERTURE END LIST*
D10*
X153496095Y-41807380D02*
X153496095Y-42521666D01*
X153448476Y-42664523D01*
X153353238Y-42759761D01*
X153210380Y-42807380D01*
X153115142Y-42807380D01*
X154400857Y-42807380D02*
X154400857Y-42283571D01*
X154353238Y-42188333D01*
X154258000Y-42140714D01*
X154067523Y-42140714D01*
X153972285Y-42188333D01*
X154400857Y-42759761D02*
X154305619Y-42807380D01*
X154067523Y-42807380D01*
X153972285Y-42759761D01*
X153924666Y-42664523D01*
X153924666Y-42569285D01*
X153972285Y-42474047D01*
X154067523Y-42426428D01*
X154305619Y-42426428D01*
X154400857Y-42378809D01*
X154877047Y-42807380D02*
X154877047Y-42140714D01*
X154877047Y-42235952D02*
X154924666Y-42188333D01*
X155019904Y-42140714D01*
X155162761Y-42140714D01*
X155258000Y-42188333D01*
X155305619Y-42283571D01*
X155305619Y-42807380D01*
X155305619Y-42283571D02*
X155353238Y-42188333D01*
X155448476Y-42140714D01*
X155591333Y-42140714D01*
X155686571Y-42188333D01*
X155734190Y-42283571D01*
X155734190Y-42807380D01*
X156591333Y-42759761D02*
X156496095Y-42807380D01*
X156305619Y-42807380D01*
X156210380Y-42759761D01*
X156162761Y-42664523D01*
X156162761Y-42283571D01*
X156210380Y-42188333D01*
X156305619Y-42140714D01*
X156496095Y-42140714D01*
X156591333Y-42188333D01*
X156638952Y-42283571D01*
X156638952Y-42378809D01*
X156162761Y-42474047D01*
X157019904Y-42759761D02*
X157115142Y-42807380D01*
X157305619Y-42807380D01*
X157400857Y-42759761D01*
X157448476Y-42664523D01*
X157448476Y-42616904D01*
X157400857Y-42521666D01*
X157305619Y-42474047D01*
X157162761Y-42474047D01*
X157067523Y-42426428D01*
X157019904Y-42331190D01*
X157019904Y-42283571D01*
X157067523Y-42188333D01*
X157162761Y-42140714D01*
X157305619Y-42140714D01*
X157400857Y-42188333D01*
X159162761Y-41855000D02*
X159067523Y-41807380D01*
X158924666Y-41807380D01*
X158781809Y-41855000D01*
X158686571Y-41950238D01*
X158638952Y-42045476D01*
X158591333Y-42235952D01*
X158591333Y-42378809D01*
X158638952Y-42569285D01*
X158686571Y-42664523D01*
X158781809Y-42759761D01*
X158924666Y-42807380D01*
X159019904Y-42807380D01*
X159162761Y-42759761D01*
X159210380Y-42712142D01*
X159210380Y-42378809D01*
X159019904Y-42378809D01*
X160067523Y-42807380D02*
X160067523Y-42283571D01*
X160019904Y-42188333D01*
X159924666Y-42140714D01*
X159734190Y-42140714D01*
X159638952Y-42188333D01*
X160067523Y-42759761D02*
X159972285Y-42807380D01*
X159734190Y-42807380D01*
X159638952Y-42759761D01*
X159591333Y-42664523D01*
X159591333Y-42569285D01*
X159638952Y-42474047D01*
X159734190Y-42426428D01*
X159972285Y-42426428D01*
X160067523Y-42378809D01*
X160686571Y-42807380D02*
X160591333Y-42759761D01*
X160543714Y-42664523D01*
X160543714Y-41807380D01*
X161210380Y-42807380D02*
X161115142Y-42759761D01*
X161067523Y-42664523D01*
X161067523Y-41807380D01*
X162019904Y-42807380D02*
X162019904Y-42283571D01*
X161972285Y-42188333D01*
X161877047Y-42140714D01*
X161686571Y-42140714D01*
X161591333Y-42188333D01*
X162019904Y-42759761D02*
X161924666Y-42807380D01*
X161686571Y-42807380D01*
X161591333Y-42759761D01*
X161543714Y-42664523D01*
X161543714Y-42569285D01*
X161591333Y-42474047D01*
X161686571Y-42426428D01*
X161924666Y-42426428D01*
X162019904Y-42378809D01*
X162924666Y-42140714D02*
X162924666Y-42950238D01*
X162877047Y-43045476D01*
X162829428Y-43093095D01*
X162734190Y-43140714D01*
X162591333Y-43140714D01*
X162496095Y-43093095D01*
X162924666Y-42759761D02*
X162829428Y-42807380D01*
X162638952Y-42807380D01*
X162543714Y-42759761D01*
X162496095Y-42712142D01*
X162448476Y-42616904D01*
X162448476Y-42331190D01*
X162496095Y-42235952D01*
X162543714Y-42188333D01*
X162638952Y-42140714D01*
X162829428Y-42140714D01*
X162924666Y-42188333D01*
X163400857Y-42807380D02*
X163400857Y-41807380D01*
X163829428Y-42807380D02*
X163829428Y-42283571D01*
X163781809Y-42188333D01*
X163686571Y-42140714D01*
X163543714Y-42140714D01*
X163448476Y-42188333D01*
X163400857Y-42235952D01*
X164686571Y-42759761D02*
X164591333Y-42807380D01*
X164400857Y-42807380D01*
X164305619Y-42759761D01*
X164258000Y-42664523D01*
X164258000Y-42283571D01*
X164305619Y-42188333D01*
X164400857Y-42140714D01*
X164591333Y-42140714D01*
X164686571Y-42188333D01*
X164734190Y-42283571D01*
X164734190Y-42378809D01*
X164258000Y-42474047D01*
X165162761Y-42807380D02*
X165162761Y-42140714D01*
X165162761Y-42331190D02*
X165210380Y-42235952D01*
X165258000Y-42188333D01*
X165353238Y-42140714D01*
X165448476Y-42140714D01*
X151924666Y-44457380D02*
X151924666Y-43457380D01*
X151924666Y-43933571D02*
X152496095Y-43933571D01*
X152496095Y-44457380D02*
X152496095Y-43457380D01*
X152924666Y-44171666D02*
X153400857Y-44171666D01*
X152829428Y-44457380D02*
X153162761Y-43457380D01*
X153496095Y-44457380D01*
X153781809Y-44409761D02*
X153924666Y-44457380D01*
X154162761Y-44457380D01*
X154258000Y-44409761D01*
X154305619Y-44362142D01*
X154353238Y-44266904D01*
X154353238Y-44171666D01*
X154305619Y-44076428D01*
X154258000Y-44028809D01*
X154162761Y-43981190D01*
X153972285Y-43933571D01*
X153877047Y-43885952D01*
X153829428Y-43838333D01*
X153781809Y-43743095D01*
X153781809Y-43647857D01*
X153829428Y-43552619D01*
X153877047Y-43505000D01*
X153972285Y-43457380D01*
X154210380Y-43457380D01*
X154353238Y-43505000D01*
X154638952Y-43457380D02*
X155210380Y-43457380D01*
X154924666Y-44457380D02*
X154924666Y-43457380D01*
X156781809Y-44457380D02*
X156305619Y-44457380D01*
X156305619Y-43457380D01*
X157496095Y-44409761D02*
X157400857Y-44457380D01*
X157210380Y-44457380D01*
X157115142Y-44409761D01*
X157067523Y-44314523D01*
X157067523Y-43933571D01*
X157115142Y-43838333D01*
X157210380Y-43790714D01*
X157400857Y-43790714D01*
X157496095Y-43838333D01*
X157543714Y-43933571D01*
X157543714Y-44028809D01*
X157067523Y-44124047D01*
X158400857Y-44457380D02*
X158400857Y-43933571D01*
X158353238Y-43838333D01*
X158258000Y-43790714D01*
X158067523Y-43790714D01*
X157972285Y-43838333D01*
X158400857Y-44409761D02*
X158305619Y-44457380D01*
X158067523Y-44457380D01*
X157972285Y-44409761D01*
X157924666Y-44314523D01*
X157924666Y-44219285D01*
X157972285Y-44124047D01*
X158067523Y-44076428D01*
X158305619Y-44076428D01*
X158400857Y-44028809D01*
X158734190Y-43790714D02*
X159115142Y-43790714D01*
X158877047Y-44457380D02*
X158877047Y-43600238D01*
X158924666Y-43505000D01*
X159019904Y-43457380D01*
X159115142Y-43457380D01*
X160210380Y-44457380D02*
X160210380Y-43457380D01*
X160781809Y-44457380D01*
X160781809Y-43457380D01*
X161400857Y-44457380D02*
X161305619Y-44409761D01*
X161258000Y-44362142D01*
X161210380Y-44266904D01*
X161210380Y-43981190D01*
X161258000Y-43885952D01*
X161305619Y-43838333D01*
X161400857Y-43790714D01*
X161543714Y-43790714D01*
X161638952Y-43838333D01*
X161686571Y-43885952D01*
X161734190Y-43981190D01*
X161734190Y-44266904D01*
X161686571Y-44362142D01*
X161638952Y-44409761D01*
X161543714Y-44457380D01*
X161400857Y-44457380D01*
X162591333Y-44457380D02*
X162591333Y-43457380D01*
X162591333Y-44409761D02*
X162496095Y-44457380D01*
X162305619Y-44457380D01*
X162210380Y-44409761D01*
X162162761Y-44362142D01*
X162115142Y-44266904D01*
X162115142Y-43981190D01*
X162162761Y-43885952D01*
X162210380Y-43838333D01*
X162305619Y-43790714D01*
X162496095Y-43790714D01*
X162591333Y-43838333D01*
X163448476Y-44409761D02*
X163353238Y-44457380D01*
X163162761Y-44457380D01*
X163067523Y-44409761D01*
X163019904Y-44314523D01*
X163019904Y-43933571D01*
X163067523Y-43838333D01*
X163162761Y-43790714D01*
X163353238Y-43790714D01*
X163448476Y-43838333D01*
X163496095Y-43933571D01*
X163496095Y-44028809D01*
X163019904Y-44124047D01*
X164877047Y-43457380D02*
X164972285Y-43457380D01*
X165067523Y-43505000D01*
X165115142Y-43552619D01*
X165162761Y-43647857D01*
X165210380Y-43838333D01*
X165210380Y-44076428D01*
X165162761Y-44266904D01*
X165115142Y-44362142D01*
X165067523Y-44409761D01*
X164972285Y-44457380D01*
X164877047Y-44457380D01*
X164781809Y-44409761D01*
X164734190Y-44362142D01*
X164686571Y-44266904D01*
X164638952Y-44076428D01*
X164638952Y-43838333D01*
X164686571Y-43647857D01*
X164734190Y-43552619D01*
X164781809Y-43505000D01*
X164877047Y-43457380D01*
X165638952Y-44362142D02*
X165686571Y-44409761D01*
X165638952Y-44457380D01*
X165591333Y-44409761D01*
X165638952Y-44362142D01*
X165638952Y-44457380D01*
X166591333Y-43457380D02*
X166115142Y-43457380D01*
X166067523Y-43933571D01*
X166115142Y-43885952D01*
X166210380Y-43838333D01*
X166448476Y-43838333D01*
X166543714Y-43885952D01*
X166591333Y-43933571D01*
X166638952Y-44028809D01*
X166638952Y-44266904D01*
X166591333Y-44362142D01*
X166543714Y-44409761D01*
X166448476Y-44457380D01*
X166210380Y-44457380D01*
X166115142Y-44409761D01*
X166067523Y-44362142D01*
X156638666Y-114768380D02*
X156638666Y-115482666D01*
X156591047Y-115625523D01*
X156495809Y-115720761D01*
X156352952Y-115768380D01*
X156257714Y-115768380D01*
X157067238Y-114863619D02*
X157114857Y-114816000D01*
X157210095Y-114768380D01*
X157448190Y-114768380D01*
X157543428Y-114816000D01*
X157591047Y-114863619D01*
X157638666Y-114958857D01*
X157638666Y-115054095D01*
X157591047Y-115196952D01*
X157019619Y-115768380D01*
X157638666Y-115768380D01*
X157146666Y-107402380D02*
X157146666Y-108116666D01*
X157099047Y-108259523D01*
X157003809Y-108354761D01*
X156860952Y-108402380D01*
X156765714Y-108402380D01*
X158146666Y-108402380D02*
X157575238Y-108402380D01*
X157860952Y-108402380D02*
X157860952Y-107402380D01*
X157765714Y-107545238D01*
X157670476Y-107640476D01*
X157575238Y-107688095D01*
X166695523Y-108911000D02*
X166600285Y-108863380D01*
X166457428Y-108863380D01*
X166314571Y-108911000D01*
X166219333Y-109006238D01*
X166171714Y-109101476D01*
X166124095Y-109291952D01*
X166124095Y-109434809D01*
X166171714Y-109625285D01*
X166219333Y-109720523D01*
X166314571Y-109815761D01*
X166457428Y-109863380D01*
X166552666Y-109863380D01*
X166695523Y-109815761D01*
X166743142Y-109768142D01*
X166743142Y-109434809D01*
X166552666Y-109434809D01*
X167695523Y-109863380D02*
X167124095Y-109863380D01*
X167409809Y-109863380D02*
X167409809Y-108863380D01*
X167314571Y-109006238D01*
X167219333Y-109101476D01*
X167124095Y-109149095D01*
X168076476Y-108958619D02*
X168124095Y-108911000D01*
X168219333Y-108863380D01*
X168457428Y-108863380D01*
X168552666Y-108911000D01*
X168600285Y-108958619D01*
X168647904Y-109053857D01*
X168647904Y-109149095D01*
X168600285Y-109291952D01*
X168028857Y-109863380D01*
X168647904Y-109863380D01*
X166671714Y-111227666D02*
X167147904Y-111227666D01*
X166576476Y-111513380D02*
X166909809Y-110513380D01*
X167243142Y-111513380D01*
X167766952Y-110513380D02*
X167862190Y-110513380D01*
X167957428Y-110561000D01*
X168005047Y-110608619D01*
X168052666Y-110703857D01*
X168100285Y-110894333D01*
X168100285Y-111132428D01*
X168052666Y-111322904D01*
X168005047Y-111418142D01*
X167957428Y-111465761D01*
X167862190Y-111513380D01*
X167766952Y-111513380D01*
X167671714Y-111465761D01*
X167624095Y-111418142D01*
X167576476Y-111322904D01*
X167528857Y-111132428D01*
X167528857Y-110894333D01*
X167576476Y-110703857D01*
X167624095Y-110608619D01*
X167671714Y-110561000D01*
X167766952Y-110513380D01*
X166695523Y-106180000D02*
X166600285Y-106132380D01*
X166457428Y-106132380D01*
X166314571Y-106180000D01*
X166219333Y-106275238D01*
X166171714Y-106370476D01*
X166124095Y-106560952D01*
X166124095Y-106703809D01*
X166171714Y-106894285D01*
X166219333Y-106989523D01*
X166314571Y-107084761D01*
X166457428Y-107132380D01*
X166552666Y-107132380D01*
X166695523Y-107084761D01*
X166743142Y-107037142D01*
X166743142Y-106703809D01*
X166552666Y-106703809D01*
X167695523Y-107132380D02*
X167124095Y-107132380D01*
X167409809Y-107132380D02*
X167409809Y-106132380D01*
X167314571Y-106275238D01*
X167219333Y-106370476D01*
X167124095Y-106418095D01*
X168647904Y-107132380D02*
X168076476Y-107132380D01*
X168362190Y-107132380D02*
X168362190Y-106132380D01*
X168266952Y-106275238D01*
X168171714Y-106370476D01*
X168076476Y-106418095D01*
X166171714Y-104544761D02*
X166314571Y-104592380D01*
X166552666Y-104592380D01*
X166647904Y-104544761D01*
X166695523Y-104497142D01*
X166743142Y-104401904D01*
X166743142Y-104306666D01*
X166695523Y-104211428D01*
X166647904Y-104163809D01*
X166552666Y-104116190D01*
X166362190Y-104068571D01*
X166266952Y-104020952D01*
X166219333Y-103973333D01*
X166171714Y-103878095D01*
X166171714Y-103782857D01*
X166219333Y-103687619D01*
X166266952Y-103640000D01*
X166362190Y-103592380D01*
X166600285Y-103592380D01*
X166743142Y-103640000D01*
X167171714Y-104592380D02*
X167171714Y-103592380D01*
X167409809Y-103592380D01*
X167552666Y-103640000D01*
X167647904Y-103735238D01*
X167695523Y-103830476D01*
X167743142Y-104020952D01*
X167743142Y-104163809D01*
X167695523Y-104354285D01*
X167647904Y-104449523D01*
X167552666Y-104544761D01*
X167409809Y-104592380D01*
X167171714Y-104592380D01*
X168124095Y-104306666D02*
X168600285Y-104306666D01*
X168028857Y-104592380D02*
X168362190Y-103592380D01*
X168695523Y-104592380D01*
X166195523Y-102004761D02*
X166338380Y-102052380D01*
X166576476Y-102052380D01*
X166671714Y-102004761D01*
X166719333Y-101957142D01*
X166766952Y-101861904D01*
X166766952Y-101766666D01*
X166719333Y-101671428D01*
X166671714Y-101623809D01*
X166576476Y-101576190D01*
X166386000Y-101528571D01*
X166290761Y-101480952D01*
X166243142Y-101433333D01*
X166195523Y-101338095D01*
X166195523Y-101242857D01*
X166243142Y-101147619D01*
X166290761Y-101100000D01*
X166386000Y-101052380D01*
X166624095Y-101052380D01*
X166766952Y-101100000D01*
X167766952Y-101957142D02*
X167719333Y-102004761D01*
X167576476Y-102052380D01*
X167481238Y-102052380D01*
X167338380Y-102004761D01*
X167243142Y-101909523D01*
X167195523Y-101814285D01*
X167147904Y-101623809D01*
X167147904Y-101480952D01*
X167195523Y-101290476D01*
X167243142Y-101195238D01*
X167338380Y-101100000D01*
X167481238Y-101052380D01*
X167576476Y-101052380D01*
X167719333Y-101100000D01*
X167766952Y-101147619D01*
X168671714Y-102052380D02*
X168195523Y-102052380D01*
X168195523Y-101052380D01*
X166751047Y-99131428D02*
X167512952Y-99131428D01*
X166751047Y-96591428D02*
X167512952Y-96591428D01*
X167132000Y-96972380D02*
X167132000Y-96210476D01*
X148137809Y-51252380D02*
X148137809Y-50252380D01*
X148518761Y-50252380D01*
X148614000Y-50300000D01*
X148661619Y-50347619D01*
X148709238Y-50442857D01*
X148709238Y-50585714D01*
X148661619Y-50680952D01*
X148614000Y-50728571D01*
X148518761Y-50776190D01*
X148137809Y-50776190D01*
X149280666Y-51252380D02*
X149185428Y-51204761D01*
X149137809Y-51157142D01*
X149090190Y-51061904D01*
X149090190Y-50776190D01*
X149137809Y-50680952D01*
X149185428Y-50633333D01*
X149280666Y-50585714D01*
X149423523Y-50585714D01*
X149518761Y-50633333D01*
X149566380Y-50680952D01*
X149614000Y-50776190D01*
X149614000Y-51061904D01*
X149566380Y-51157142D01*
X149518761Y-51204761D01*
X149423523Y-51252380D01*
X149280666Y-51252380D01*
X149947333Y-50585714D02*
X150137809Y-51252380D01*
X150328285Y-50776190D01*
X150518761Y-51252380D01*
X150709238Y-50585714D01*
X151471142Y-51204761D02*
X151375904Y-51252380D01*
X151185428Y-51252380D01*
X151090190Y-51204761D01*
X151042571Y-51109523D01*
X151042571Y-50728571D01*
X151090190Y-50633333D01*
X151185428Y-50585714D01*
X151375904Y-50585714D01*
X151471142Y-50633333D01*
X151518761Y-50728571D01*
X151518761Y-50823809D01*
X151042571Y-50919047D01*
X151947333Y-51252380D02*
X151947333Y-50585714D01*
X151947333Y-50776190D02*
X151994952Y-50680952D01*
X152042571Y-50633333D01*
X152137809Y-50585714D01*
X152233047Y-50585714D01*
D11*
X152781000Y-55499000D02*
X152781000Y-52705000D01*
X146939000Y-55499000D02*
X152781000Y-55499000D01*
X146939000Y-52705000D02*
X146939000Y-55499000D01*
X152781000Y-52705000D02*
X146939000Y-52705000D01*
D12*
X154940000Y-54102000D02*
G75*
G03*
X154178000Y-54102000I-381000J0D01*
G01*
X154178000Y-54102000D02*
G75*
G03*
X154940000Y-54102000I381000J0D01*
G01*
D13*
X127567959Y-72390000D02*
G75*
G03*
X127567959Y-72390000I-567959J0D01*
G01*
D14*
X129540000Y-71120000D02*
X154940000Y-71120000D01*
X129540000Y-121920000D02*
X129540000Y-71120000D01*
X154940000Y-121920000D02*
X129540000Y-121920000D01*
X154940000Y-71120000D02*
X154940000Y-121920000D01*
D13*
X128536575Y-67564000D02*
G75*
G03*
X128536575Y-67564000I-647575J0D01*
G01*
X141732000Y-40894000D02*
X141732000Y-48514000D01*
X129032000Y-40894000D02*
X141732000Y-40894000D01*
X129032000Y-48514000D02*
X129032000Y-40894000D01*
X129032000Y-48514000D02*
X126492000Y-48514000D01*
X141732000Y-48514000D02*
X129032000Y-48514000D01*
X144272000Y-48514000D02*
X141732000Y-48514000D01*
X144272000Y-68834000D02*
X144272000Y-48514000D01*
X126492000Y-68834000D02*
X144272000Y-68834000D01*
X126492000Y-48514000D02*
X126492000Y-68834000D01*
X154813000Y-62230000D02*
X165227000Y-62230000D01*
X165227000Y-46355000D02*
X154813000Y-46355000D01*
X165227000Y-62230000D02*
X165227000Y-49784000D01*
X165227000Y-49784000D02*
X164338000Y-49784000D01*
X164338000Y-49784000D02*
X164338000Y-48260000D01*
X164338000Y-48260000D02*
X165227000Y-48260000D01*
X165227000Y-48260000D02*
X165227000Y-46355000D01*
X154813000Y-62230000D02*
X154813000Y-49784000D01*
X154813000Y-49784000D02*
X155702000Y-49784000D01*
X155702000Y-49784000D02*
X155702000Y-48260000D01*
X155702000Y-48260000D02*
X154813000Y-48260000D01*
X154813000Y-48260000D02*
X154813000Y-46355000D01*
D15*
X155448000Y-61595000D02*
X164592000Y-61595000D01*
X164592000Y-53340000D02*
X164592000Y-61595000D01*
X164592000Y-53340000D02*
X155448000Y-53340000D01*
X155448000Y-61595000D02*
X155448000Y-53340000D01*
D13*
X161823400Y-49784000D02*
G75*
G03*
X161823400Y-49784000I-1803400J0D01*
G01*
D16*
G36*
X162179000Y-65659000D02*
G01*
X162941000Y-65659000D01*
X162941000Y-65024000D01*
X162179000Y-65024000D01*
X162179000Y-65659000D01*
G37*
G36*
X159639000Y-65659000D02*
G01*
X160401000Y-65659000D01*
X160401000Y-65024000D01*
X159639000Y-65024000D01*
X159639000Y-65659000D01*
G37*
G36*
X157099000Y-65659000D02*
G01*
X157861000Y-65659000D01*
X157861000Y-65024000D01*
X157099000Y-65024000D01*
X157099000Y-65659000D01*
G37*
G36*
X156845000Y-65024000D02*
G01*
X158115000Y-65024000D01*
X158115000Y-62230000D01*
X156845000Y-62230000D01*
X156845000Y-65024000D01*
G37*
G36*
X159385000Y-65024000D02*
G01*
X160655000Y-65024000D01*
X160655000Y-62230000D01*
X159385000Y-62230000D01*
X159385000Y-65024000D01*
G37*
G36*
X161925000Y-65024000D02*
G01*
X163195000Y-65024000D01*
X163195000Y-62230000D01*
X161925000Y-62230000D01*
X161925000Y-65024000D01*
G37*
D11*
X165785800Y-94894400D02*
X159334200Y-94894400D01*
X165785800Y-110845600D02*
X165785800Y-94894400D01*
X159334200Y-110845600D02*
X165785800Y-110845600D01*
X159334200Y-94894400D02*
X159334200Y-110845600D01*
D12*
X162560000Y-92735400D02*
G75*
G03*
X162560000Y-93497400I0J-381000D01*
G01*
X162560000Y-93497400D02*
G75*
G03*
X162560000Y-92735400I0J381000D01*
G01*
D17*
X157258000Y-90400000D02*
X157258000Y-90070000D01*
X157258000Y-90070000D02*
X163798000Y-90070000D01*
X163798000Y-90070000D02*
X163798000Y-90400000D01*
X157258000Y-92480000D02*
X157258000Y-92810000D01*
X157258000Y-92810000D02*
X163798000Y-92810000D01*
X163798000Y-92810000D02*
X163798000Y-92480000D01*
X163798000Y-89000000D02*
X163798000Y-88670000D01*
X157258000Y-89000000D02*
X163798000Y-89000000D01*
X157258000Y-88670000D02*
X157258000Y-89000000D01*
X163798000Y-86260000D02*
X163798000Y-86590000D01*
X157258000Y-86260000D02*
X163798000Y-86260000D01*
X157258000Y-86590000D02*
X157258000Y-86260000D01*
X163798000Y-85190000D02*
X163798000Y-84860000D01*
X157258000Y-85190000D02*
X163798000Y-85190000D01*
X157258000Y-84860000D02*
X157258000Y-85190000D01*
X163798000Y-82450000D02*
X163798000Y-82780000D01*
X157258000Y-82450000D02*
X163798000Y-82450000D01*
X157258000Y-82780000D02*
X157258000Y-82450000D01*
X147320000Y-94996000D02*
X148844000Y-94996000D01*
X147320000Y-90932000D02*
X148844000Y-90932000D01*
X144018000Y-92329000D02*
X144018000Y-93599000D01*
X143383000Y-92964000D02*
X144574260Y-92964000D01*
X145660242Y-91996260D02*
G75*
G02*
X147447000Y-90932000I1786758J-967740D01*
G01*
X150507427Y-93924934D02*
G75*
G02*
X148717000Y-94996000I-1790427J960934D01*
G01*
X147447003Y-94996000D02*
G75*
G02*
X145660243Y-93931741I-3J2032000D01*
G01*
X148717000Y-90932000D02*
G75*
G02*
X150507427Y-92003066I0J-2032000D01*
G01*
X150082000Y-85190000D02*
X150082000Y-84860000D01*
X143542000Y-85190000D02*
X150082000Y-85190000D01*
X143542000Y-84860000D02*
X143542000Y-85190000D01*
X150082000Y-82450000D02*
X150082000Y-82780000D01*
X143542000Y-82450000D02*
X150082000Y-82450000D01*
X143542000Y-82780000D02*
X143542000Y-82450000D01*
X143542000Y-87352000D02*
X143542000Y-87022000D01*
X143542000Y-87022000D02*
X150082000Y-87022000D01*
X150082000Y-87022000D02*
X150082000Y-87352000D01*
X143542000Y-89432000D02*
X143542000Y-89762000D01*
X143542000Y-89762000D02*
X150082000Y-89762000D01*
X150082000Y-89762000D02*
X150082000Y-89432000D01*
D10*
X146558095Y-119612380D02*
X146558095Y-118612380D01*
X146558095Y-119088571D02*
X147129523Y-119088571D01*
X147129523Y-119612380D02*
X147129523Y-118612380D01*
X147558095Y-118707619D02*
X147605714Y-118660000D01*
X147700952Y-118612380D01*
X147939047Y-118612380D01*
X148034285Y-118660000D01*
X148081904Y-118707619D01*
X148129523Y-118802857D01*
X148129523Y-118898095D01*
X148081904Y-119040952D01*
X147510476Y-119612380D01*
X148129523Y-119612380D01*
X146558095Y-41600380D02*
X146558095Y-40600380D01*
X146558095Y-41076571D02*
X147129523Y-41076571D01*
X147129523Y-41600380D02*
X147129523Y-40600380D01*
X148129523Y-41600380D02*
X147558095Y-41600380D01*
X147843809Y-41600380D02*
X147843809Y-40600380D01*
X147748571Y-40743238D01*
X147653333Y-40838476D01*
X147558095Y-40886095D01*
D18*
X141319999Y-72650047D02*
X141319999Y-73626738D01*
X141377452Y-73741642D01*
X141434904Y-73799095D01*
X141549809Y-73856547D01*
X141779618Y-73856547D01*
X141894523Y-73799095D01*
X141951976Y-73741642D01*
X142009428Y-73626738D01*
X142009428Y-72650047D01*
X143215928Y-73856547D02*
X142526499Y-73856547D01*
X142871214Y-73856547D02*
X142871214Y-72650047D01*
X142756309Y-72822404D01*
X142641404Y-72937309D01*
X142526499Y-72994761D01*
X134461999Y-50806047D02*
X134461999Y-51782738D01*
X134519452Y-51897642D01*
X134576904Y-51955095D01*
X134691809Y-52012547D01*
X134921618Y-52012547D01*
X135036523Y-51955095D01*
X135093976Y-51897642D01*
X135151428Y-51782738D01*
X135151428Y-50806047D01*
X135668499Y-50920952D02*
X135725952Y-50863500D01*
X135840857Y-50806047D01*
X136128118Y-50806047D01*
X136243023Y-50863500D01*
X136300476Y-50920952D01*
X136357928Y-51035857D01*
X136357928Y-51150761D01*
X136300476Y-51323119D01*
X135611047Y-52012547D01*
X136357928Y-52012547D01*
X126784547Y-53733095D02*
X126956904Y-53790547D01*
X127244166Y-53790547D01*
X127359071Y-53733095D01*
X127416523Y-53675642D01*
X127473976Y-53560738D01*
X127473976Y-53445833D01*
X127416523Y-53330928D01*
X127359071Y-53273476D01*
X127244166Y-53216023D01*
X127014357Y-53158571D01*
X126899452Y-53101119D01*
X126841999Y-53043666D01*
X126784547Y-52928761D01*
X126784547Y-52813857D01*
X126841999Y-52698952D01*
X126899452Y-52641500D01*
X127014357Y-52584047D01*
X127301618Y-52584047D01*
X127473976Y-52641500D01*
X127991047Y-53790547D02*
X127991047Y-52584047D01*
X128278309Y-52584047D01*
X128450666Y-52641500D01*
X128565571Y-52756404D01*
X128623023Y-52871309D01*
X128680476Y-53101119D01*
X128680476Y-53273476D01*
X128623023Y-53503285D01*
X128565571Y-53618190D01*
X128450666Y-53733095D01*
X128278309Y-53790547D01*
X127991047Y-53790547D01*
X128910285Y-53905452D02*
X129829523Y-53905452D01*
X130518952Y-53158571D02*
X130691309Y-53216023D01*
X130748761Y-53273476D01*
X130806214Y-53388380D01*
X130806214Y-53560738D01*
X130748761Y-53675642D01*
X130691309Y-53733095D01*
X130576404Y-53790547D01*
X130116785Y-53790547D01*
X130116785Y-52584047D01*
X130518952Y-52584047D01*
X130633857Y-52641500D01*
X130691309Y-52698952D01*
X130748761Y-52813857D01*
X130748761Y-52928761D01*
X130691309Y-53043666D01*
X130633857Y-53101119D01*
X130518952Y-53158571D01*
X130116785Y-53158571D01*
X132012714Y-53790547D02*
X131610547Y-53216023D01*
X131323285Y-53790547D02*
X131323285Y-52584047D01*
X131782904Y-52584047D01*
X131897809Y-52641500D01*
X131955261Y-52698952D01*
X132012714Y-52813857D01*
X132012714Y-52986214D01*
X131955261Y-53101119D01*
X131897809Y-53158571D01*
X131782904Y-53216023D01*
X131323285Y-53216023D01*
X132529785Y-53158571D02*
X132931952Y-53158571D01*
X133104309Y-53790547D02*
X132529785Y-53790547D01*
X132529785Y-52584047D01*
X133104309Y-52584047D01*
X133563928Y-53445833D02*
X134138452Y-53445833D01*
X133449023Y-53790547D02*
X133851190Y-52584047D01*
X134253357Y-53790547D01*
X134655523Y-53790547D02*
X134655523Y-52584047D01*
X135344952Y-53790547D02*
X134827880Y-53101119D01*
X135344952Y-52584047D02*
X134655523Y-53273476D01*
X136091833Y-52584047D02*
X136321642Y-52584047D01*
X136436547Y-52641500D01*
X136551452Y-52756404D01*
X136608904Y-52986214D01*
X136608904Y-53388380D01*
X136551452Y-53618190D01*
X136436547Y-53733095D01*
X136321642Y-53790547D01*
X136091833Y-53790547D01*
X135976928Y-53733095D01*
X135862023Y-53618190D01*
X135804571Y-53388380D01*
X135804571Y-52986214D01*
X135862023Y-52756404D01*
X135976928Y-52641500D01*
X136091833Y-52584047D01*
X137125976Y-52584047D02*
X137125976Y-53560738D01*
X137183428Y-53675642D01*
X137240880Y-53733095D01*
X137355785Y-53790547D01*
X137585595Y-53790547D01*
X137700499Y-53733095D01*
X137757952Y-53675642D01*
X137815404Y-53560738D01*
X137815404Y-52584047D01*
X138217571Y-52584047D02*
X138906999Y-52584047D01*
X138562285Y-53790547D02*
X138562285Y-52584047D01*
X139021904Y-53905452D02*
X139941142Y-53905452D01*
X140228404Y-53158571D02*
X140630571Y-53158571D01*
X140802928Y-53790547D02*
X140228404Y-53790547D01*
X140228404Y-52584047D01*
X140802928Y-52584047D01*
X141722166Y-53158571D02*
X141894523Y-53216023D01*
X141951976Y-53273476D01*
X142009428Y-53388380D01*
X142009428Y-53560738D01*
X141951976Y-53675642D01*
X141894523Y-53733095D01*
X141779618Y-53790547D01*
X141319999Y-53790547D01*
X141319999Y-52584047D01*
X141722166Y-52584047D01*
X141837071Y-52641500D01*
X141894523Y-52698952D01*
X141951976Y-52813857D01*
X141951976Y-52928761D01*
X141894523Y-53043666D01*
X141837071Y-53101119D01*
X141722166Y-53158571D01*
X141319999Y-53158571D01*
X142469047Y-53445833D02*
X143043571Y-53445833D01*
X142354142Y-53790547D02*
X142756309Y-52584047D01*
X143158476Y-53790547D01*
X143790452Y-53216023D02*
X143790452Y-53790547D01*
X143388285Y-52584047D02*
X143790452Y-53216023D01*
X144192618Y-52584047D01*
D19*
X136704977Y-70154074D02*
X136787708Y-70181651D01*
X136815285Y-70209228D01*
X136842862Y-70264382D01*
X136842862Y-70347114D01*
X136815285Y-70402268D01*
X136787708Y-70429845D01*
X136732554Y-70457422D01*
X136511937Y-70457422D01*
X136511937Y-69878302D01*
X136704977Y-69878302D01*
X136760131Y-69905880D01*
X136787708Y-69933457D01*
X136815285Y-69988611D01*
X136815285Y-70043765D01*
X136787708Y-70098920D01*
X136760131Y-70126497D01*
X136704977Y-70154074D01*
X136511937Y-70154074D01*
X137008325Y-69878302D02*
X137339251Y-69878302D01*
X137173788Y-70457422D02*
X137173788Y-69878302D01*
X137835640Y-70457422D02*
X137504714Y-70457422D01*
X137670177Y-70457422D02*
X137670177Y-69878302D01*
X137615022Y-69961034D01*
X137559868Y-70016188D01*
X137504714Y-70043765D01*
D20*
X159880024Y-56214433D02*
X159719158Y-56134000D01*
X159558291Y-55973133D01*
X159316991Y-55731833D01*
X159156124Y-55651400D01*
X158995258Y-55651400D01*
X159075691Y-56053566D02*
X158914824Y-55973133D01*
X158753958Y-55812266D01*
X158673524Y-55490533D01*
X158673524Y-54927500D01*
X158753958Y-54605766D01*
X158914824Y-54444900D01*
X159075691Y-54364466D01*
X159397424Y-54364466D01*
X159558291Y-54444900D01*
X159719158Y-54605766D01*
X159799591Y-54927500D01*
X159799591Y-55490533D01*
X159719158Y-55812266D01*
X159558291Y-55973133D01*
X159397424Y-56053566D01*
X159075691Y-56053566D01*
X161408258Y-56053566D02*
X160443058Y-56053566D01*
X160925658Y-56053566D02*
X160925658Y-54364466D01*
X160764791Y-54605766D01*
X160603924Y-54766633D01*
X160443058Y-54847066D01*
D10*
X166203333Y-91892380D02*
X165870000Y-91416190D01*
X165631904Y-91892380D02*
X165631904Y-90892380D01*
X166012857Y-90892380D01*
X166108095Y-90940000D01*
X166155714Y-90987619D01*
X166203333Y-91082857D01*
X166203333Y-91225714D01*
X166155714Y-91320952D01*
X166108095Y-91368571D01*
X166012857Y-91416190D01*
X165631904Y-91416190D01*
X166536666Y-90892380D02*
X167155714Y-90892380D01*
X166822380Y-91273333D01*
X166965238Y-91273333D01*
X167060476Y-91320952D01*
X167108095Y-91368571D01*
X167155714Y-91463809D01*
X167155714Y-91701904D01*
X167108095Y-91797142D01*
X167060476Y-91844761D01*
X166965238Y-91892380D01*
X166679523Y-91892380D01*
X166584285Y-91844761D01*
X166536666Y-91797142D01*
X166457333Y-88082380D02*
X166124000Y-87606190D01*
X165885904Y-88082380D02*
X165885904Y-87082380D01*
X166266857Y-87082380D01*
X166362095Y-87130000D01*
X166409714Y-87177619D01*
X166457333Y-87272857D01*
X166457333Y-87415714D01*
X166409714Y-87510952D01*
X166362095Y-87558571D01*
X166266857Y-87606190D01*
X165885904Y-87606190D01*
X167314476Y-87415714D02*
X167314476Y-88082380D01*
X167076380Y-87034761D02*
X166838285Y-87749047D01*
X167457333Y-87749047D01*
X166457333Y-84272380D02*
X166124000Y-83796190D01*
X165885904Y-84272380D02*
X165885904Y-83272380D01*
X166266857Y-83272380D01*
X166362095Y-83320000D01*
X166409714Y-83367619D01*
X166457333Y-83462857D01*
X166457333Y-83605714D01*
X166409714Y-83700952D01*
X166362095Y-83748571D01*
X166266857Y-83796190D01*
X165885904Y-83796190D01*
X167362095Y-83272380D02*
X166885904Y-83272380D01*
X166838285Y-83748571D01*
X166885904Y-83700952D01*
X166981142Y-83653333D01*
X167219238Y-83653333D01*
X167314476Y-83700952D01*
X167362095Y-83748571D01*
X167409714Y-83843809D01*
X167409714Y-84081904D01*
X167362095Y-84177142D01*
X167314476Y-84224761D01*
X167219238Y-84272380D01*
X166981142Y-84272380D01*
X166885904Y-84224761D01*
X166838285Y-84177142D01*
X142581333Y-92051142D02*
X142533714Y-92098761D01*
X142390857Y-92146380D01*
X142295619Y-92146380D01*
X142152761Y-92098761D01*
X142057523Y-92003523D01*
X142009904Y-91908285D01*
X141962285Y-91717809D01*
X141962285Y-91574952D01*
X142009904Y-91384476D01*
X142057523Y-91289238D01*
X142152761Y-91194000D01*
X142295619Y-91146380D01*
X142390857Y-91146380D01*
X142533714Y-91194000D01*
X142581333Y-91241619D01*
X143533714Y-92146380D02*
X142962285Y-92146380D01*
X143248000Y-92146380D02*
X143248000Y-91146380D01*
X143152761Y-91289238D01*
X143057523Y-91384476D01*
X142962285Y-91432095D01*
X146788380Y-95194380D02*
X146216952Y-95194380D01*
X146502666Y-95194380D02*
X146502666Y-94194380D01*
X146407428Y-94337238D01*
X146312190Y-94432476D01*
X146216952Y-94480095D01*
X147407428Y-94194380D02*
X147502666Y-94194380D01*
X147597904Y-94242000D01*
X147645523Y-94289619D01*
X147693142Y-94384857D01*
X147740761Y-94575333D01*
X147740761Y-94813428D01*
X147693142Y-95003904D01*
X147645523Y-95099142D01*
X147597904Y-95146761D01*
X147502666Y-95194380D01*
X147407428Y-95194380D01*
X147312190Y-95146761D01*
X147264571Y-95099142D01*
X147216952Y-95003904D01*
X147169333Y-94813428D01*
X147169333Y-94575333D01*
X147216952Y-94384857D01*
X147264571Y-94289619D01*
X147312190Y-94242000D01*
X147407428Y-94194380D01*
X148359809Y-94194380D02*
X148455047Y-94194380D01*
X148550285Y-94242000D01*
X148597904Y-94289619D01*
X148645523Y-94384857D01*
X148693142Y-94575333D01*
X148693142Y-94813428D01*
X148645523Y-95003904D01*
X148597904Y-95099142D01*
X148550285Y-95146761D01*
X148455047Y-95194380D01*
X148359809Y-95194380D01*
X148264571Y-95146761D01*
X148216952Y-95099142D01*
X148169333Y-95003904D01*
X148121714Y-94813428D01*
X148121714Y-94575333D01*
X148169333Y-94384857D01*
X148216952Y-94289619D01*
X148264571Y-94242000D01*
X148359809Y-94194380D01*
X149121714Y-94527714D02*
X149121714Y-95194380D01*
X149121714Y-94622952D02*
X149169333Y-94575333D01*
X149264571Y-94527714D01*
X149407428Y-94527714D01*
X149502666Y-94575333D01*
X149550285Y-94670571D01*
X149550285Y-95194380D01*
X150359809Y-94670571D02*
X150026476Y-94670571D01*
X150026476Y-95194380D02*
X150026476Y-94194380D01*
X150502666Y-94194380D01*
X140549333Y-84272380D02*
X140216000Y-83796190D01*
X139977904Y-84272380D02*
X139977904Y-83272380D01*
X140358857Y-83272380D01*
X140454095Y-83320000D01*
X140501714Y-83367619D01*
X140549333Y-83462857D01*
X140549333Y-83605714D01*
X140501714Y-83700952D01*
X140454095Y-83748571D01*
X140358857Y-83796190D01*
X139977904Y-83796190D01*
X141501714Y-84272380D02*
X140930285Y-84272380D01*
X141216000Y-84272380D02*
X141216000Y-83272380D01*
X141120761Y-83415238D01*
X141025523Y-83510476D01*
X140930285Y-83558095D01*
X140549333Y-88844380D02*
X140216000Y-88368190D01*
X139977904Y-88844380D02*
X139977904Y-87844380D01*
X140358857Y-87844380D01*
X140454095Y-87892000D01*
X140501714Y-87939619D01*
X140549333Y-88034857D01*
X140549333Y-88177714D01*
X140501714Y-88272952D01*
X140454095Y-88320571D01*
X140358857Y-88368190D01*
X139977904Y-88368190D01*
X140930285Y-87939619D02*
X140977904Y-87892000D01*
X141073142Y-87844380D01*
X141311238Y-87844380D01*
X141406476Y-87892000D01*
X141454095Y-87939619D01*
X141501714Y-88034857D01*
X141501714Y-88130095D01*
X141454095Y-88272952D01*
X140882666Y-88844380D01*
X141501714Y-88844380D01*
M02*
